<mxfile host="65bd71144e">
    <diagram id="DfiRrmdnKlaoDnatrV5q" name="페이지-1">
        <mxGraphModel dx="861" dy="392" grid="1" gridSize="10" guides="1" tooltips="1" connect="1" arrows="1" fold="1" page="1" pageScale="1" pageWidth="827" pageHeight="1169" math="0" shadow="0">
            <root>
                <mxCell id="0"/>
                <mxCell id="1" parent="0"/>
                <mxCell id="49" value="" style="shape=image;verticalLabelPosition=bottom;labelBackgroundColor=#ffffff;verticalAlign=top;aspect=fixed;imageAspect=0;image=data:image/png,iVBORw0KGgoAAAANSUhEUgAAA3MAAAJECAYAAAC8QX3bAAAgAElEQVR4nOzdfXRc6V0n+O9z760qvdnuN4MU3JkV6cAENhAcdmJp6SSYacKcGZhOKfLgUsLSdIAderKb09s7hxnJTmJLzO6mJwsMfdgDNJ1mkAw2UpPMC8M08SbpQXLmsN1wmkOSTYNg27QUEtK2Xqrqvu8fz/3Vfe6tW6UXWy3L/f2co2P51q37Jne7vv49z+9RcRzHICIiIiIiogPF2u8LICIiIiIiop1jmCMiIiIiIjqAGOaIiIiIiIgOIIY5IiIiIiKiA4hhjoiIiIiI6ABimCMiIiIiIjqAGOaIiIiIiIgOIIY5IiIiIiKiA4hhjoiIiIiI6ABimCMiIiIiIjqAGOaIiIiIiIgOIIY5IiIiIiKiA+g2C3NLmFEKyvgau7Ca3eO83j5zZeujrV4Yax2n2/5yzK77Xp3DmHltp+awWrBbp2O2vs4vFR93i+MREREREdHt5fYJc1fnMKZGMZXbvFAbag9A27KKy88stH439WzxMVYvjGH0bHbb1Eg+0C1h5t4JLJibLk1gaDcB7OxoNrgdq2E+jhFfrGFwp8ciIiIiIqID6zYJc6uYe1SHpercCuI41l9L0/rls49j7uoOD3nlSUxcAnBuGtMAcPYy2uOcBL4qZl/W51yZqwLIhb8rl3XIPLeYXNuiPualeVze4rqml+L0flrvm8AjUnFsq8ytYu5U9+pktuIo+8+07q9VvTw/k+ynXzPf11ZdvJLse37OOH9yTHmt4FqIiIiIiGh3bo8wd/Uy5i8BGJ/FE6eN+tSJSSyeA6aX5lE7trNDLj2ra3zTD0zi5DkAmMLltuGTgxh+KwAsYOJRHWwGT8/r4HVmJN3t2DCqAHB2NKnYjWAyjhHHO72uEUwmAXXhpeXi6z4/pEOoYaH2SBpmr8xgqGZUHEcewXyHs02dTeqc505iJPc+ANlQKc5OGOefwuipMYyNpPXSzLUQEREREdGu3SZhbllX5d57sm2o4ciZGJMndnrAJVw+CwDTOHkCGHlAB6iioZbyGi5NYKhT9enYSYyN62+nRnJVq52SYPjicuEQzZEzZiUvxuI5AFjA8lUAWMXcJ3SwalUwl45j4VLBgYC0knhmBDgxmTlu3DFUTmMxjhG/PKuv89ICji/FiOMVzI6b10JERERERDfi9ghziU7Vqh1rDYs8iREAOHGy81DLE5NpcJHraJunN4jaRQlWYgqjamzPqlQyJDI7n28Zy5cAYBqPSQXzxMNJyGo3/cBI+0YZ1jmSn52YkGd2bBjH9VFw8gSQVjGJiIiIiOhmuD3CXJdq1dL5nc/TkiGWODuaVNGkscoUHi86ljQhMebMFQW/tGqWzH3DAuaf2+EcsqQKibcOFzY8kfluTw7PG5W5m0DmvT01rO9V5iMSEREREdG+uE3CXDKMMT+H68oMRs/qStl2liIAAFydw+NnO7+88MxlIzDKUgjpkMnB048hH3OkSpaGyhE8PFfFzqXDJAurZrnhocAqll80Xx/G8DiQCaXS6GUL6RxCfd7V5ed3cf1ERERERHSz3B5hDoOoPZrUumpDabdFGQp4brFt3lw6dy27Ptzqc/O68tXqPJnvJGl2oBxpNUcZbR1nNDtEE8Dg/WOo5q5NNxOpYuz+7gsKZK8zaW4yPouHu84DlOvJN0MpeE4jz6PaYZhlt+tpa4ZCRERERESvqdskzCFp0LHYVhWrzq1kO0t2la4t1175kuCWHRo5cqZgKOO5xVw3yxrmc/Pq9HIGO++yiXOLXdaUS7tdAgDGZ7GSnLfVvOXEZDoUFFXMvvwExrZx2pEz5rOtYvblpKFJ4ZINRERERES011Qcx/F+XwS9dpbOJ01RWoFzCTNqFFOYxmI8ie3GXiIiIiIi2l8Mc68zqxfGiodI5quJRERERER0S7t9hlnStgyenm8fFjo+ixUGOSIiIiKiA4WVOSIiIiIiogOIlTkiIiIiIqIDiGGOiIiIiIjoAGKYIyIiIiIiOoAY5oiIiIiIiA4ghjkiIiIiIqIDiGGOiIiIiIjoAGKYIyIiIiIiOoAY5oiIiIiIiA4ghjkiIiIiIqIDiGGOiIiIiIjoAGKYIyIiIiIiOoAY5oiIiIiIiA4ghjkiIiIiIqIDiGGOiIiIiIjoAGKYIyIiIiIiOoAY5oiIiIiIiA4ghjkiIiIiIqIDiGGOiIiIiIjoAGKYIyIiIiIiOoAY5oiIiIiIiA4ghjkiIiIiIqIDyNnvCyAiIiK6nX3m2c/gr7/6VfT29qCvtxe9bV896O3t1a/19MCy7Zt7AUEAONv8yOe6QKWyvX19HyiVstviGFBqe9fQad8iRfvGsf6yLGNTjCAIEYYBgiBEEAYIgwBBo4lQKQShbAsRBAGCMEQYBIiiOD2u5wLl/DOIAaTnD6MQgR/AD3z4vg8/+T6Q730ffhAg8P3t3V+Xe/3gww/t/Bj0uqHiOI633o2IiIiIduPhD/40bMdB03XhylejCdf34LougiDM7G/bNhzHSb5sOJYNp1wytjlwlNK/ViqwrST8RRGACLByoSkIAEsBlhESozD7e70RCELAtgFlDN4KAx2YzG1RqM/nOEhDTqzf71jIDP6KQiCKc2EubgW8OI4RRhGiMETo+YjiCGGsA1MURgiTQBbFSPeLQoRBiCiK9LYoRBhGiKJo2z+XIpZlwbFt2Mbzt20HjqXglEpwnBJsx05/BqUSbMcItHEEhCHg5EJuFLT/XAr3jfU22wag8PwLL+Czn/l99Pb23tB90e2LlTkiIiKiPfSNa9fwL3/2n+O/+9636w3r6/rXQ4cAAGEYwn/1VXieB7/SA9/34Pk+fNeFd31NV3hK5fSAjbqu3vT1AwBixAiaTYQbGwhKJV2BkurUxibCMETgOPrXIEDYbCBwPYSOk1aA4hhoNnXgMqttnqdfM6t1vq+DWKXSqopZSsEOAtilEuzeXti2rb/iGHbgw+7vh10up9ubLuxySW+3bdhKAfU6YFtAT196rigANutApQcoG8+gvqmvvdfY1/f0PfT3wS5XdChTCk6zCbuvD46cy7HhhCFs14Vz5516X8eGHUWwNjeB/v70fsMQ2NjQ4WpgIPtcNjb0z1Cel+/rn21vr/5qXWtd73/kSPq8fV+/v68vPVcU6fcb53rH6Dux/vW/Re89d2ePSZRgmCMiIiLaQ68mQQ0AsLamP7QfOdJ63W40YJdK6Ln77my4ajSAo0d1YJChhBsbOmAY70cYAtev62DQ05Nu39zUoeGOO9JtzaY+7qFDaaUsjvV15QOLvN8MIfL+gYE0xEjgcRwdhPLXZYYjuYcoAg4f1r8vCDGt67p+XYe4PiO0ra/r1+T9gA6Xa2vZc8l9lUrZ90cRcO0acOed6fMKAh26envT98s2y2q/r81Nfcx8kMv/DJpNPXT18OH0GQaBfn+lsnVoBLD+9a/jm+6+C0RF2ACFiIiIaA81Gk0d5hoN/aF9YCD9YH/9ut5mftjXb9Kho6cnDXL1ug4CSUUPgH7v+rrezwwRrqurQea+nlSu+rNDHjc29K9miGg00vebQa7ZLA5ytp0NPHGcXpcZ5JpNHXzkXHL9BSGmtd0MYhIEzfuS7flzFb1ftlcq6fOKIv3+SiWtfkmQA/T75RnIvuVyNghubOj3mj8D83nLPEgJco6TXpc8Q8tqD7MANjyv/R6IEqzMEREREe0xb2NDB6TDhwHHwSd/6z8CiJO+GvkmIPpD/I/98LthydDCej2t8Ei4k2BhBgNAhyUZLighQsJkb292uOLmZhomRaOhQ8ihQ+n7XVdv7+/PBrnNzfbKFZAGPPO65BoGBvR7OoUYua44zoY2CbP54Lu21v4M1tf1PvnjSnDN72u+Pwj0/VuWDnhmQ5rNTf2r3G8QpOHQHAYp99pjDA81K31bBTm5LwChOcSWKIdhjoiIiGiPuRubmaGN33z0TvydY9/Ucf/f/7//SIcApdKK2OHDabCIYx0slGqviOWrVFIhKpezlatGI62SSUCUfXt70+qd6+ptfX1pMImibLAxw9XmZnv1LAx1kOnp0WFQgmD++uW6PC8b2szhikb3ytaQy/zw0NxQ1tZxpbIpx11bywapIND72bb+MucPSmXVHB4qFb18mG429XvN6l2zmczz603D7Pp6GobNZ7ixsf1On/S6xjBHREREtFeSoXIe4jQYBAEA4FsG7+n+XtvWAaZez85xA9KKmhlMAB0OzDliEs5su30IoAzfk+P6vj6X2ZRD3m/O78oHOTNcNZtpEMtXEEslHWQkyEkIM9/vuvprYCBbVZRnYFbJJJyZVcV6PZ3nZzLvV44hVToJnWGYNoEBssFXnoPMX5R5fvn5eL6vr0up4iBXKunjm2HWHEor95C/L6IOGOaIiIiI9opSsCwLrqwElQShKIoQJKEuu4KZ/n2MODss0awQ1es6DJjDKIH2uW++r4ORBAazk2KjoUOFVNpkaKZZvZP9zAqTNGaJYx3MzPPL/kXXpZQOPVGUhp1O7+/tzTYWkSGj+S6b0shFjiHDQ/PDMOW45XJ6vxKGJfTJdUnQModMSvAyq5UyH8+sKnaqvrmu/l6GbUqVUp6JGdIlDJtNb+IbW26Bbm8Mc0RERER7qLe3F57rpUEIQBgEOHP2LBTSMCe/Hj5yBEff+F2IJcSYc9yaTR0azMAD6MBkVnNkqJ++gGwDDgkt5ryvej2tnMn7pdGHWXlqNnUYkeGSQubU5efk1evpkEvj/lGpZN8v12CGSalKmh0mgc7dJCVImuFIjus46b3ln5UEuVJJH0eCGJAOWzUbnsjQSHNop1T1lNL7SiiUqmgU6XuIovTnUqlkr1UCaj4Mb9bTiilRDsMcERER0R7q7elBLOu4JR0q/SCA7weFYc73fN0bJd+hUqo2ZoVJtgdBOlxPgpxS2cAgFSGgvWujZeltSqVhyQx35nkqlez5JaDkh3LK9cpQTAlyZkVQrksaqcj55FrNqqBYX8+GKxnGWRT6zHszr8kc3ilDK+XezCAljVQk+BYti2AGtFJJX5s5ZNP30yAmVc38z1C6XPbk1tMDcMfddzHIUUcMc0RERER7qKe3ByUJWUnlKQhCPPLIhzq+5zOLf4q4bAQT19Xvd5z2uW+umwYZc6hfuZztPGkOb5QhgGb1TuaCmZ0oJfCY5zcDE5DO/covqi1NU0qlNMSYc8kAfT4JmNIERJY1KJfbm6MUDW+Ufc3gKfP64jgNk82m3nboUBqYpNlJGOrrNKuF+UYq+aGZQp6hbafVN9dNg5wMcTXDbD50SvXPvIdk2Oydb3gDiDrhOnNEREREe6i3pwdOFGWqTEEQoL5ZR73eKPwViHU1D9AhwvN0IDGDkNk1UeZiSUv9Ugl4/uNQSkEphbF/+1f6PeUyVi/9E73dcTDzX+PsXLCixiYSGCUImsz5e/k5eVLBazaBL/zvUAMDmPlj4/pl2GUUZc+XXypAmE1fhNkNEsDSeQWlprFUr6dBTsJafqmAv3gaY319UD09UD92Cav5aqc0YpEglu+wKfsBaUiVKp0Ms5Qhl81mcZiVrqT5gFqvI0iOfeedxqLvRDmszBERERHtod7eXpR6ejJBKAgC/M3Xr6NwnKXugKLDnO/rgABkux7K3DcZQmjO2ZIKkWHh05/D6j/5UQxWKlj+ykL6Qsmo3kkwM5tvmGuu5cOVLExudp7Mz1FzXX39EkzznS/DMNsERJq4FC134LrZqphc7x1G2IkBIHlm+eOalT7Pw+rnFrAAYPpzDUy+MxeSN42lJGQ+YH5ZBKlWys8gjvU2mSNn22mYDYLscE9h3q953GYTr/o+iLbCyhwRERHRHnKcEkr92SC02fDwytev45WvreGVr6/hla9dz/y+t6eMOOjQxCQ/PFLm4wHt1TsA1eo/Bp75Syz39ABYwuWPANX3/oh+sZSEvsZnMdPfD3XnnbpidyU5z+fOQR05gplP/S7GbFtX9M4vYeljSle07nwIc6vpnLzVp6tQd9wBNTAA9b5/i9Uw1KHMST5yPjvTqhaqmT80GqEsYUYpqEOH9Pm+kAS5q3MYUwpjM/8KY3ffDXX6t7EKYOkjCkqu99QcVgH9HAIAiPUz+Ool/d6nfh0zck3nl3Sw+sMZDP3EpwEAU+/qxdiFVQDA6lwVqlyGuuceqMrHsSTLNeQbq/h+Wi2V9QCla6VcS6WitwVBOuzVDKhmVdMMzxsbQH8/Xt3YTPf1vM5/wOh1jZU5IiIioj3mONnOkz9T/ftpBWxjQ1dyzAqXDAsEsk1MpPMikM5zk9/nKz+eXvoA3/HdqC6cw+UvfAwj/n/GFH4Esz/yPVh45tPJfi9j7vT3Y2rsaaz8zo8BF8YwNDKG4S89jVpyqKm/eBPiOMbSeYXRs6N4/Fe/hLi+gpm+78fEo3M4+Vs/isHPfQxDH/x3mP7DEJN/bxEzpfsx9J1vRPwv3gGU9PVP4STiRgOrs6cw9MEHMPOPYkyeWMXc2CimHvxVrPzOQ8DFU/r8L8+jFumK3sKX34yVOMY8APzheQydA6Y/38Tk8DzG7p3AIxdOYv7BI0AEAHamicjCpyM8Ecd4+MIYhmofx9yp30DtxM9i5ak/wdBDn8L0UozJE8Dq3BiGJgLMfnkDtW9bx9z4EEbHvwkrF96PQbPSKdVK82cjVVGl0m6jvq+/AB0uzTAoVU2zc6WsXZes87e2tqa3r62lYZAoh5U5IiIioj1WKhnD/cJQD9mzbV2dya/ZZnZHNLsemmu0yQLU0iEzH+RcF0iCEL79AYyNA1O/93msvvQ8gLdh+NtkoXAX+Mp/wvyngOrYD2IQwOD9Y6hiAcsvh0BZ7zf9wAgAYPhNVQA/jLH7vwXo/bsYHgeAGKjXsfSZ8wDO4eQJAM234eRZAH+6jFUjCE2/++2A52Gw9iimAUw9uwT8xe9jfgGojr0Hg7ZtnD8GNnVQrb7vPRgEkuGluko19c4ezFytYT6OdZDzPMAGWrUKNwlSb3uLvq//5nsAPIPlrzr6mZXNj8GruHxpAXjvgzj5bf1A9E2o/fQU8KmfwpN/YjxXGd4KpAHNdfXP0Gx4IuvL5TuKAulcx/zyEmtrmSYozeTPgC/rzhEVYJgjIiIi2mOlUikb5KSiJgtU55tvSDiQICRDKZVKG37IXCzbzgY539fbZZ6afR+GvwPAi5/Bk//u08BHfxAjVjLcz20Af3MVCwAWakN6+OO9E1gA8Pwr14GS0aYfANwAgAL6zMWyPSB4Bcv/LwCcxahtQx06hNFzABauYtkcWujJEgayWLkLvPQVff4PvDF7/i++BCjjo6o0TPneD2B2XG+aGtFDNmeWgqTZiJzHAxouAKD6bW9KtiWVysDPLqIOABt/huXfBfA9b8GgNCUxX29dv5euGVcq6cAmjU6kwYr8DJXSP0MzsMkyDOZ6ekBhl87m2rr+Nd89lMjAMEdERES0xxzfT9vaK6VDgee1L54t3R3zXQ+lUhcn88Hk/eZi2IAOcVIRknlqoY+R+88Az5zD1DNGuAEA2wHe/O2oAqjOrSB2XcTXryOu1zH/Y2/M3sT6elLts9OgEwKIQ2DgWzH8XQDwUSw2GojX1xH7PuJ4CiMAECZNXKQjprw/cIHh+9Lzx7qLZ7y+jvnqUaDPCDLybA69CbWLer+Vpx8EAEz9wL/GUus5yLpzuaUdpFJZ6c2uJdfYBIJjGH4fgBeXsSpz2XpzwxrNBdPLZf38ZX0/WTBdlkAA2hvRyLIP+Z+ZDLM1q2+uC3ddD7N0OV+OumCYIyIiItpLYYCS46SdGKXjY746I0Mmlcp2jpRKXbLgeGuoX35dMnNpAqVa89QQhsC9w6gCAKoYu3+wNVQRvQPAsZMYGwcWFp7Far2O1YUPQPW9H3NXjXtwG8mi2jZ0y00Ajaaeo2brYYQj7/4YgI/i8pUIqLyAmVJJNxwJQ6CphzxO/fKnsGpZWP3Nj2MKwPR73gm8+Yf0+Z+5jFUAq598EOpQDXNrhwGpIPpuay7a6sVTUGoMc8seBh/8PzBbBTD+Zgy3LtbTz6kia+wllUph51pGhD4w8K04Wa0Cly7i8l/5QO8a5n7+DDA+i4dPIF03T5aBCAK9ra8vXYZB5s5JJ8v8YudS7cstQYAgyAa5ZAHxZpI93aYLok7YAIWIiIhoL9k2SocP6++lOlMq5ZqVeHp4pAQ5qVyZrf0lHGxs6PCQX3xbghyQey0E3pgEtkvHMXx3A/hSZFzgIGq/9V+wbH8fhn5Hb5leilE7BkACndsABg4BdnL8zQ2g39Vz1CxbB5Dj/wtWnnoeQ9/fjykAGJ/FyuQ70kXBAUx/119hKLm36lN/jsl39QLoRe3iIpbVKIbUhN7vv/iovdFKzx/6+pmVyxg8PY/FLyuMfmsFeu8qZl+ewCCAZRfQw0D7gG8k7/WTMOTkhoz6YfKsdKfKwff9FlbqYxj6zjv1ccdnsXKxhkFZN69czq4lJxU5WWxcOld2CnKy7IP8bJtN/WUueRCGeu5cTw+aUZj8EWCYo85U3FqRkoiIiIhutoc++NP40M/8Uxw//jbg+nX9wV0WowZ0iJMP7GbXQ8/TH+5blbaSfn+plK3uAGmbewmDMtwvP6fOddM11GR4ZxwXd9SUa1tf1+eTKqLr6vP19qbhpl7X5zSXRojj9Lqk2Yd0bLRtfS6T5+n9+/rSOYTSLMS8L2nfLwuLSxDa3NSvSQVUrksqmua8RM9L57hJpU1Ccr7aKYuYyzOXqqqsHVepZK8z37my2dTnknXrzGfY35+9ruvXW8/myaeexq/86pP45BO/iLd853ewmyUV4jBLIiIioj1U30wqU41G2rmyNWesoM09kA6/E+Vye6gQ8n4JEpaVXd9MwpWEm76+4nl6fX3ZIBeGydyz3jTIyYLafX3ZKpUETrMi1Wikc8okyG1spA1cTDL01Axd5rOR+5IGIhIaJcg1GjqgSQUUSLtMVirFQU6GuUaRPmZ+LpuEUblepfT1OE4anCuV7DISvb3ZICfnMtepk2eYb3yzvp4GfQBxsli8K8+MqAD/ZBARERHtoc36JhAlwcT8UC9z3GQNMQlYQaADBpAGhnXd2bCtmmUOw5QwKAtaA9nguL6eDhU03++67W3y41jvb1aqgkBvM8OdNAExh4EC+r58PxtYZBkGCUZCQmOplB7DfDZyXxKugOxzlCqXWe10XX1+syMooLc1GtngJsfsyy7sjs3NtFopi4LL8c37NQNnPgznQ5vvpwHZfF4bG/qY5ty5ZPBcVCplAyKRgWGOiIiIaA/VN+tAvZlWqAD9QV3CQTIXDEBa6bLttNIlQwXNqhOQDVIyb0uqWRI2pKKzsdHefEOGBprDGsXaWjqMUa5rfV0fU0KQnF/WuDODlMwpk+PKnLH+/myVSY5rVhxlGQa5L/MYRYurb27q98qzlfvKN4iRIGfb6X1JBTR/XTJkc2BAb5dupFIdlOOaHS7NMBxF+hmacxtlKKf5DM1ryK8lJ4G8zKUJqDOGOSIiIqI9tFmv68Yh5gd4CQFAdi25RkMHBgljEozyFbkg0AEDSAOPudi4Odyv0dD7mseQECTdGU1razqYyf5xnAYTCUFSOYuitCU/kAYmmYsGpGElPwRR5url1lfLBDk5hhmuJMjJdfX0ZCt6cl9m5Us6gJoNZlxXB6b8dTWbent/vz6X2SVU7gNIl4cwF3YX6+v6GsznVTQnT5qgmI1R5JmxrQVtA8McERER0V4zP8DLfLb8/DcJYrK/WXXKD9+TOVqOkwYJCVfm2nVmGJTAJSHKstqHFhYN97t+PbtcgoROIDvPzmwiIkFKunTmG5DIuYDssEuzaYscwwyj5nNYW8tW2cxwaN6X+bzMJir50CnXK41JzGco8+RksfEw1Ps5TnvnyrW1zNy3VpAzK51yLmlGk1n3rqHPyYYntA0Mc0RERER7Lte5Mt++3nXTphoS/GRInhk2ZAiiUtn5YBIQzWYfEjjyQwA3N/Wv+WpfUft86TwpHSKBtKpoVrRkLlh+jp3ZaMS0sZEdxij34PvZZyNh1JwjB6SByRx6KuHQvC+zo6WEYmnEkp8/KGHUHHYqTVTMCmQc62dldgkVMrdRwrA0VzHDnfm8BgayPxupbPb2otSal8ilCagzhjkiIiKi14KEKwkBEpg8T4cGc+6ZBIB85Uw6T5pDEM05YuaQzXwDE0CfX6pc+Tlivq9DiDnPLoqyVbqihikSbszrlWYlRYHHXEJAziXPQBqTKNVaPLut+6aENvO61tfbg6jcr8zVk+qXBDHz2ZpzAs05bhLmzKGk8lzyjVyKnpc0V8kPcc13CZXzSYOZnh4cPXoUAFCO43RILVEOwxwRERHRHiqVSgDibIgwlyaQ7oqyXTpB5itnsr1SSUNApzliRcMNJYjlhysWBbmiphwSRvOt/uVcZpVMqmFFHSLz5/L9dMiiBDkJV/nAI0EwHzB9v3sTE6nqSfUx/2yl02c+jALZICfDQM317fLXJT9b81xm6JP5h/n17NbW9LZk+9E77gAAHLrrzmyYJTKwzykRERHRHjp69CjQTNaYywc5qZ7l56Plw4LrpuuVmZ0vpaV/8v4oihCtryPyfESHBhDVG4jiCLHnIbq+hqingiiK9X5xhGhjE5HnIe7rQ7S2rre7TUSbdUR9vYi++jeIowhRFOrXbRtRuYw4SppzNBtp5UuGkgbJUMH+PsAyG4s0gCDU21Vyb2ESZksloGKE0c0kIPakgUf5Hizfhzp0CJbjwFIKKo5hNRqwenuhXr0GSylYlgXlurDCANbAAFSjAUtZsHwPyvVgHT4M69o1KGXBshSsjQ0ox4FVLsNyXSil9DHDEOrwYShzTqAsgWCGWal25sOwrHtn/hyvXcs2RjH/HJhdLsMQR/v19wP3HN3qjxi9jjHMEREREe2ha9eu4X/7+X+DO+66SwepOEIURogCH1EcI0ISwqIIURDofRCnoQTMH+MAACAASURBVCsKEYWh3re1rf0rZvfDfaeSMGlbFizbhm1bsCxb/95SsC0blmPrX20LtrJgKcB2HFiOk74vjiE/zUOHBrqek17fGOaIiIiI9tDdd92JH/qh9+Ceo0exvrGO9bUNrK2t4fraGtbW1tBsNuH5PnzPhxdFCAM/+b0Hz/fhed6eBzXbtuE4jv7VtmE7NmzbaX3v2E6yTV5PXkvCh2VZ2S87CTTml8rua+f2T/dTrf3a97Gz25RKwpF+zbIsWIhh27au3hn72kplttlJaLIrZdiWvrfsl9X63rJt2GEIu7c32Ve/FgPF4XpjM6mCFgfvzFejiajkJL/PhvWf/qf/DA4XDKcu+KeDiIiIaA/1Dwzg+NuP423f/V27PkYQhgh8H74fwA98BMmvvh/o7UEA39fbHScJW44Dx9EhzbGzv7db22yGhRugAFi2nZ2DCGSXnLhBURTBstjmgorxv14iIiKiPeR5HpTZAGMXnKQill/SjG5/URTt9yXQLYxh7iaK4xhBECAIQgRhgCAIEAZBuq31ffoVFo15l/H0me3pZOU4v00mMct7zffF6X7Yh7H0KhkCoZKx4payWtssy4JKtmW/T/aX72WCsmXlvletoRKt75NzybAIxxwu4WSHTzhtwynSrxv9S5eIiEh47o2HOXr9YpijbhjmOnjyV34N//WFP86GMz9ohbTMlx/o4Q9B0PWYf//7343Y+J/55uYmlFIYGOjHwMAABgYG0NvTk47hLpfglMppyLAsOCUHTqkE27YRhhHCMETUaCAslVu/D6MQ8CPAshCHMRDrSdEK0N2w8gt3dlK0r++3t8eN42zLXRGGCKMIfhwnQTOZ2B2GiC07DaBxnEzsBmIzlPoeIsvW70tCaZz8D63SU0G5XEGlUkalUkEFwFqziWvX13Dt+nUoBVScEizHwebmZvJVx+bmJjY2N9FsNrveeibwZUKgA8dSsJ1SNiBaVmv+wD333IOZ8x/d3jMmIqLbnud5sBjmaJcY5qgbhrkO/uhP/gQ//ZMPw/N8uJ4Hb3MD3sYGPMeB5wd6m+vqbb4PL9b/s3Y9D16jAa/ZhBfH6TbXxRe/+CV4gZ8e0/MQRRFKjoP73nwf3nzfm2BbNjbWvo71a9ew4bpoul46CTeKdaejshHwlIIdhbB7emA7JT1BVynYYQC7XIHdU9FBI5m4a1UqsPv7kgCShEbfh33ksJ7gKxOAPU+fc2CgFVaU7yNsNhFVKggBHRzDEOHGBiIAoVNqhcmo2UToegjLZf37MELougibTYSVCkKlECVhL2w0EMZAZNsII13hjAIfURAisqH3aR3XRRjHWN/YQBhFuOPIEdxxaADl/n54vo/19XV87Wtfw+rqV9FoNADoYFYqlVAulVAqObjj8GGUjx5FqZxss22UbRul3l6UymWUyyWUnBLKAEq9vSj3VFAql/UxlEIJQPnwYWNfByXfR/nQIZR6e/HIhz7MMEdERC2u50FZDHO0Owxz1A3DXEd6oumJE39Pr5+SX0xSFrO0rOzClfW6rmgdPpxOhvW8dA0Vc12RRgNRvQ63pwdeGMJzPXiNOrxvvArPtuEC8H0fYRAgXN9AiBhRSYejMAz19o1NhJZCaNu6Suf7CDfrCC1Lf0UhwjCC32ig6fuIHEe/HoUIPU8HLMvSYSoJTKHr6WNbVhrYfB9xGMIul1utc1sVRMvSIVFCp1KwwhB2Ty/skqNDowKsIIBdqcB2HFSkM1QQwO7vh93fn3S+SrbFMexDA7BsJ+0m5XmwlAX70EArjJYUUA4ClI4cQamvF+VSWYe0RkMHsTvuSIe2yJovySKcAPTin42GXjNGKo5xrBfudJzsBOYg0NsPHcpWJ9fW9J8DcwHSel3/uTH/bBAR0euSnjPHBha0Owxz1A3D3FaiSH8wt21kZh03jMU/zW35IOe6OkA4TroQpGxvNGAdPozeUgm9cq7rNnD0aHbftTU9jDEfDNbX9TUcPpxe69paNnQCaYg5dCgbMDc2dFgxh1K6rt4/fw+bm+37Npv6tf5+fX+Avp7r1/WzkudVtCgqoI/p+9lwtbmpr+3OO9vvNQyBI0faF1vt7c3+bDaShUblucg9NJv6/eb1ywKs+SBn29kgJwuz9vZmg9zGhv412TcIwvTY5rmIiOh162Y0QKHXL4Y56ob/TLSVZlOHiN5eXX2Rbb6vKzFm4JEKj2yT9yqlw4YZQur1bIgA0iBmBrn19eIg12joY0vgiGO9b0H1D76v95Pr8n0dQvr6suHM99Prkn3r9XRbPvR5nr4vs6WxBCEJV2Goz5W/LgmYZuApqpzJuYJAv1+eYRzr41Yq7SE7CLJVsiBIw6jcVxDofctl/WU+w3yVDdDnygfyZlMfp7+/dV1r3/hb/Vpvb3ubYiIiel0Kw5Bz5mjXGOaoG1bmunFd/dXTAz+OMftb/xFADMTQC4tA/secbnv/+96jH2qzmXaPrFTSD/YyZLOnJxuOiqpBGxu6IpSv8EiQ6uvT7+lUTWo09H5mNSkI0gqTGYIk8PT0pOHG91v3n7lWz9OvOU66L6DfD6TBU+61VMpeV72eVq7yQyAPH842U/F9fR99fdlzra/r85sBUQL14cNp8JbhsOY9SMDMVwpluGQ+OG9u6mdsBjzP0/dgBsQwxNpXv6q/N0MfERG97rEyR7vFMEfdMMx10KxvphWtchnwfZRLDt72376p43u+8PyXkjcbnRJtOw1SEiyKqm9A+9y7IGivUnle2mVSws3GRns1SaqHZjgzQ4x5frN6Jtt9X4eY/L5BoF+LY31c+ctJgqMETzmmbWcDk4Qgs4JZVD2UaygKvvK8zPsNQ/3M+vqyQz7z1co41veVD4JFPwP5Obhu9ucgAbNSyf5sNzdxfbMOIiKiPDZAod1imKNuOMyyg0azqUOMBKHkP6RvGbyn4xcAHVYAHXKUSkOIDAvMh5vNTX1sc36XzEXLBwvf16/Zdnpceb+5b7Opr6NSaT9/frhjFAEbf465n7gTamAASo1hbtnTISY/9y4M06BaqaShyfs8Zvr6oO66CypZo23ms5v6/l/9NMaSdeCUUhh7+i/SgHx1DmNKQfX1Qd1xB8Z+52+z19VotM9V3NzUgdJ8XhKS80MupVJoVgWlypavFOaPCaTBeWAgrfR5ybNxnPRccay3xTG6L3hARESvV8WVuVXMnVJQp+awuqPXtpD8/Tp2YZvvvDKz/X3pNccwR90wzHXQcN20ShRFiOv11qLgfm6dOd/Xv8aIEcex/uAfhu1NOYDM/KrW0ML88L38vDUgneOllA6ZSmWHJgoZglkut1ezLCsbYqRKtfIc5p8BcG4RcXMOtbub7ZWrONbHtm19HLPa95Uv43kA00sx4jBEvLaGye8JgL41zD32fiyMz2LF8xD/50ks/NTPYu5rFQCrmPvwBBYe/FWsNBqIl6axUHsEc1eRCUeZIFXUMEVCalGlTeY1mtXDIEifn2yTpjXmX7Qy7NQc3hlFaZg1j7G52Zq/6PrJWoNbrGNHRESvL8XdLAdRuxgjvljD4M082bEa5uMY86e3cdSrcxgbmbqZZ6ebSCmFKIr3+zLoFsYw10GjkXwYT7ozhlAIowhnz57F2TNncfbsWZw5q3+VrziKEQLp8EYhnRj7+9NgIsP3zA6TYdgeIIC0YQqgX7OstDujGUJkjp9tA3/8r3WF7EJS/TpyBOrn/xRL51VSJRvD3JfXgfAKZt7yQSwAwNlRqB/9Tay+8jsYGxjA2PkZ/d5Tc1htNoE/+riuovX16fdfTe7ta3+NBVQx/IakmgboEOUc039J/fZpDG5uAvcOo4pPYf65VcC/G7Vfv474N09jsKcHODaMKhb0a42GDk5mE5F6XT/XfOiSkJwfYirP22z6InPc5NnKkE+ZeyiK5jXGcdrB1Pw5ytzIpBGM57np9UqVloiIXveKG6Dkq29LmElGsqhTT2K52wGvzOi/568UvJapzKXnmGt9BpjBkpzv3gksAFioDUGdX7qxm6SbznEcVuaoK4a5DpoSSq5fB0olBI6DKAzh+7oy5/m6Imf+PooiRM2kYYh82Jeuk/k5YjJ8z+wEubGhg0a+MYlci4QOmc9mHlOGBOaajUx98Q2Y/8Y3sHgOwNlRPH7fCuJ4EdNYwMS/uIjVge/H5MuzqALA5LOInx7HYK8OOwsvDuOJOEb8m+/D4F//Nsbe9VFMP+chjlcwO76Aif/p17HqOFhdeRHAAib+jq2Haj7+QnuzEtvG0iUdGo+/8R4ddoxK4dJT+i+T4284ooOc2WVSlis4dCh9rvK88kNMJaDlh8jmlxWQyltvb7aC2WleowzFNOfkSTdLx2kdw5V/BMgHciIiel3bTgOUpfOjmEIVsy/HiD8xjOcv3cQLuDQPPBQjfnkWVUzh8QurAEZanwGqcyuIz4zcxBPSzcAwR1thA5QOXFnoO2ksEl67jjCK8DOPfKjje77wx19B6DjZpQmaTR02zAAgFaL8sgRKtS9SXa+nQysdp9VoIxNWzLl0ZhAEMP193wUcOoTh+6oAgLH7B4Gmi+EHAdjJvLdQ/iehdAhZ04Gp+t6TGEwanqwu/i4W8FE89n0lAIOoPbmGWhwDAxuYe2YBqD6Fld8Yx+AffRzq3e/C2N9d0cM7ksrZ6r//cYyeBYDzOPmdG/pcSTVt9cJY8tpHcPLtxlIOMtwyvwwEkG7PrztXrxc3TDFDsgzNzAdnaZhS1BU0CPTPS35mrqtDOpCeKwjgra/p73M/ByIien3bOswt4fJZAOceQ+0YAJzE2Dj0yJkiJyYRx5M7uILjGD4GAMM4DmDqpWXg5g7upD1QYpijLTDMdROmVZ8wDBGFEer1ZKidUmitR5D8PooitP5zk8W3zeqbDI3MV21kWKG5BIEZ5MyOmNK5UqpGsp80VpG/LCSg9fZnq3++BzRdwAZg2TqQNJLhgE45u2+czBFzHCy/9CkA36u3r63pez5yBMBh1J6uoxZF+tzv/EFM42P6L4n6YX19X/wlDNX0X0fTlz+MERWmwyKvzBivPYYRIBvkZB0387qksmlW6sJQX5e5WDlQPFewaBkHebZKZYdsSmg0w7PM55PhlZbVqvS5EvCIiIgM+97NcnwYw/t7BbQLTslByDBHXTDMdVFH3ApHoechjEL8zdevpevM5X6NohhhGOmhfrJItQQACXL5xiTS5v7QISOIhWmzE3MJAmmfLw1PpB2/ZbUvqC0BrWScCxFQ3wTe0KMH2Mo8MPn7xc79cfCSYZu+j+Fvfy+AF7D8lTpGjhpDG2V+GpBtCuIn8/fW/gPGRs8AAKqfXMbk2yOgNxkuaky6rj7155h8h6VDm23r+wpDfe9mBXNzMw1yEvBkyGS++6YcwwzJMscu3ynUHLIp9+B56cLo5jw7QD9z29bXIOe3LHico0xERAW2vc7ci8tYxQhrZgSAwyxpa5wz10VDPriHIYJ6A1EU45WvreGVr6/hla9dxytfv278uqY7DrmuDgZ9fWlok/ls+bAhw/36+trWKwOQDXISTCSEmB0fpSmKWFsD8v8CGMYAQqBcASoyl8zXvzo2CknFqVLB4LvepxuUfPb/AwYGsPRzDpT6GJbCVzD3Y4egHvpdrFoWcOUypgBM3//dQP8G5v7XDyTNVT6H+Qfv1MGoVAKwirlH9Tw5TH0G86cGdTgql9Nhjfk17mSIausYaO98KaQZjBnOZC28/BIEGxvps5XnKPMSzUqf7+svWXaiXE67jyo9RNWTPzPSVZSIiAiAVdjN0jSCk+cAXJrH5asArl7GfLc5c90aoNBtg2GOtsLKXBetIZX1Ot5w9G78zI9X9Yd9308/qJuVI1nkuq8vDQBSkXOcbDAB0gWt8+uVAWmwAdIQY3ZylM6K+U6Msr3XGMYZhkAzAGDpqhjWgBB6GKVtAxWj8gUA0l4/jvV1l0rA0THM//6fQb3nLVA/BQAPYvbLeljkyCd+A/PDH8CQ+gAAoPprX8bk9/UAf/N76V9E594FdU5/W51bwfz9xl9S0z8ANZ289vRfYv69dxVXMGVRcPM5yrpxZvXN83RAMzuFmvMXzX8dNdeYkyAXBPpn09ub/mw8T1+DbafDK2WpAulwads4LEFRKrNERETYXmVu5MwKZl8cwsS9ChPj05juNmfuZjmm5+ZN1IagnpnFys1eJoFuCMMcbUXFccyBYQXeMfpOfPh//hBO//A/TDsp2nZ2CGSplAauogAgjUmAbDt7IF382gwhsl5ZvuuiLIgtVT0JiOY8LiANMYcPp0MQk6UV4Dhp5UqqRvkFzOWaPU9fqzQiyYfUINDnzz8DaelvdtSURjKOkw038hylqUtfX1rBzAffINDVRjMkA3qbLLjeLYhFkd7XfAaAPr+EZHMJg40N/V5zXqJcq++ngVAWbDcqqP/pP/wePjLzr/CFz/4Bu1kSEREA/Znid+cvYmiIMYl2pvb+/wGT//Jn8Z3f8Zb9vhS6RXGYZQe2baOxtpYuISAVGdfVH+DzQW5jQ3+oz1fkioZBmq32hVSIzCBXtCC2zLEzh2ACSfWt2d4sZH09G2KCIA1r+Y6LQaCvW661p0cfV9r6S2MSN1lLzXGy7f9l/p6EoDjOhlkRpY1VEATtAdG8LlkqIN/YRIadms9Wnpf5cwD0NttuX4uu0ch2yZQgWCql9yDXWi6na9dJkJM5fca8yCMyhJVBjoiIDPveAIUOJFbmaCsMcx0cOjSAHtvKhiOpaJkf4GUNs1IpDVxRpENXfuFrOYbrZkNIs6mPa86dA9I2+RL6JDCZQzOFBBZzaOK1a/pXCTHy/ijKroUHpJUyudbe3rRDpDl3TQKqsbZaq5FKFLUvjC6VM5OcR4Kc7Au0N3KRippZQdzYSIdMmqGpaF+pnplhsl5P1+mT520uFC7PS+7LcdJGKLadBnpzKGiyvt3hu+4CERFRXvGi4UTdMczRVhjmOjjU149Dd96Vrb65brZCJOuSSTdJIR/2zSobkDbV6O9PQ4BU2vJB7vr15EJy1buk0UbG+nr7GnXSZt8MUmaVzAyYEuQkhPX2pvdmNm3xPP0c8uvZScMSc/6e56WLpZt/gTWbaWOVnh4dlMz5f2bAlKqi+QxcN113zqxArq211gTMPIP8EgYy9DW/qHj+XuW+ZI6krPNXtKafEYQPH70HREREedvuZklkYJijrbABSie2hZW//Vt87vPPwXU9eNevww18eFBwPQ+e58Hf3ITvuvCg4IcBfN+H57rwmy78MIQfhogimZIYAUGow4ElQSrWocaysyEmCoEoTrpMJv/zjyK93XHSbbJvHGeXFYhCvb+5bxzptedsC0g6atmOBduyYSPWv5ZKcMol2LYNOwxhOyXYlYr+vW3BDkLYpRLsngpsx9H/ypgsKo5yOQ1yMryyVMoGrjC5LqnsWZbe5vt633wFE8hWGsMwrYya+3qePmayr1IKNqDvoacnvQdLwXY9va23B7Ztw7Js2J6rXx8YSO7VhiXHRKw7gFo2EAZpGO3pSZ6j0bSmp4LNprvVnywiInodUlt2syRqZ9sO4ojtLagzhrkOXn31Gp79g8/ghRf+xAhMRriKIx0uHBtpgTPW25QyAluyPYhyQQ56X0tlglwchQg9DwGAwG0iDEIEgY/A9xFGEYIwRBCECMMAQRAk34f8V5tdsiwLtmXBsu30e8uCZSkd9Gwblm3p75Xe33KcZD8blgJsKFilkt7PDJlEREQJVuaIaC8wzHXwxnuP4f0Tp/ED//2oHhp55Ei28nTtWrZjIqArNL6fXUJAOinmh/DJItXmMEjP08P98nPBrl/PzskDdIWoXtf7mg1Trl9vP5csNp5fKPvVV9PjSqBcW9O/mtclHR6PHMk2Gyk6V9F9ydy7clk/MzmGDFE1h4dKYxKzw6Q8w/y6c5ub6fOWY8q5zG6UnZ6BueSDWRm9di3tvik/R+k+ag7ZlIYp5uLw0F3LiIiITGyAQrsVg5U56oxhroOm62JjYzMd5pevuDhOexOSvj4dPPL/+pYPYkB2bld+e74Torl8gZBmHOY8O5kjZ1nt+zoFP+pDh9q39/S0n79UAu68M7tNliUouq98lVAas+T3zYdLQJ/bsrLPOwiK1+nr70+qm8b9ynDL/L7mQuPmdeWXjJDrKqqwDQxk95VmK+xcSUREW2ADFNqtMAz3+xLoFsYw14HbdLGxsaF/Y87bAnSQKQoiQHswyFeeutlpKMiHk6Lzd9oPKA54O7mGTvdVdA35INeJZbVfg9k9NK8oZBfdV9Ez6PRcioJcp3vN/9kgIiIqwGGWtBu6PUGw35dBtzDOxu2g6TbTMEdERER0A9gAhXZDWRYrc9QV/8/SQbOZDLMkIiIiukGszNFuWEoxzFFXDHMduK6LjU1W5oiIiOjGsQEK7YbFyhxtgWGugOf5CIKAlTkiIiK6KdgAhXZDWQoBwxx1wTBXwHWbAMAwR0RERDcFh1nSbljKQhgwzFFnDHMFXNcFADQa9X2+EiIiIrodMMzRbnCYJW2FYa5As+ni+PHvQb3R2O9LoQMqyq+1R0REr2vsZkm7YVlsgELd8f8sBVzXxdDgN6NRP6hhbhVzp2awZG65MAZ1ag6rWMXcKYWxC6v7dnWvB1LdJSIiAvSHcqKdUspCGHKdOeqMYa5A03XR09NzYCtzS+eHMHEpswVP1hZQfe9JDGIQJ99bxULtyUzYo5uLYY6IiEwcZkm7YVkWG6BQVwxzBdymi96eHtTrRXPmdGVLnZrBzCkFpcYwdxXAlRkopZKvgqpY8trMeb3fzBXzWHPQdbIlzCgFdX6p8L3pfsa+yZdU2lYvjGH0LABMYTS5ttULj2MKVYzdPwgAGLx/DFVM4XFW5/YMwxwREZkY5mg3LEuxAQp1xTBXoOk20XRdRFHU+UP5pecx/IkYcTyPGuYwNjKF6twK4ngFs+NTGJXgdXUOj9QWktdinMTU9i/kygyGaguYXooRx4uYvjSBoSToLZ0fxRSmsRjHWJmrYqH2COauAoOn57F4DgCmsRjPo3YMWH5pARgfw8ljyXGPncTYOLDw0vLuHxJ11XS9/b4EIiK6hTDM0W7oYZYMc9QZw1wB13Xhez76+vpQ7zRvzghHq8/NY6FV+dLDGHFpGcttrwEjD0xv+zqWnp0CMI2TJwBgBCfPAXhx2ajOTWFUzWD59LwOlceKjrKK5Rc7nCBzLLqZWJkjIiITwxztBhug0FYY5go0my6ckoOB/n40tjFvbvmlBQALmLhXD3kcqi0AeB7LV+U1w7FhVLd1FRLCpjCaDKUcPYtWSBx5aDY5jrw+02EO3DKWLxW+0DoW3XwMc0REZLo1w1wy3UOmglwxXrkwlk4lEeaUEmME0liHaSY3aun8zT/mQcM5c7QVhrkCruuiVCqhf6Af9W2sNTd8XxVAFbMvx4hj+dKVMv2a4eoyFgqPkjeI4bcCSIZSpsedxAgAHKthPo6TYZ0AMIXR80X/uxvG8HiHU4wPY3hb10I7FQTsPEVERKk4jvf7Ejobn8VKHGPyhP7t0nn5h2nTEmZaU0qMqR/J5xE9xYNuNqUs+L6/35dBtzCGuQKu66LkJJW5bSxPoBuKLGD+uVXkm5q0vfYJc85cEtikQnblcmZGnR6SOYXLV4BscxTzHIOofUJX6ar3FUWz3DlMbx3G4PYeCe1QuVze70sgIqJbSHGYS/8+nztfXN1aOq8KGqwVvW8Mc1eMKlnmH3izTdPMClze0vlkJFBe8hnl+PAgWlM/zl7eVtWssMqXObbZRK59v8vni1/LNIkzX0uqhWPnZ/TzyDSQO1gsS8HzOA+fOmOYK9BsNuGUSiiVy/D9bVRYjtUwvzSNhdoQlBrCxKVpLF6s6aB0rIYn5qqt15bfmp0zp4dLJkMlnwUyr56YxMpcFVMjCkqNYmp8FitnRgAMonYx+VcxpaDuncDC+CyeOG3Oy9PHnLki1UE97BMAcPUy5i91Cn90MzDMERHRtl2aBx6KEb88m+02fWUGoy/qqpm8lhmFk3nfAiZGlvFY0hgNZ0eNztnJZ4jktamRLsEqGWmUr7StLj8PoIrhZH5+22eL3bqqm8jpZm8rmB1fwMSjc5n+AHggaQSHBUw8tdR63yO148nopeS1R7OhbeHFYTwRx4jlM9kBZFkWPDZVoy6c/b6AW5Hv+3Bsu8Org6hdjFHLbz4xiTieLH7H6XnEp5PfXJnBlPkvXsdqmI+No52ZxGSn92aMYDKOUXjG/LWceAzTtVH9P9xjSIZ6TmPx9EH9X9utr8IwR0REhu7DLI8nIWkYxwFMvbQMYFD/fX4xGfZYVC1rNWPT71s4d1JPxRg+DsikDvkH3LmTOtDcP4YqJtLPBDkjZ+YxAtzUeWqdP8tIo7hpPHYCyH/G0iOKqq1nMzyOpHnbCAaP1TAfJ9W5tiGhml5f92BTyoLnM8xRZ6zMvS6M4OG5KqY+MYfVZKhnde5h/T982hPlcmm/L4GIiA6KDnPYZRjhKBaT6tMuJHP19QihZDQPgOeXb42Bh22N4tocb1UDM5KhmUPPjGGl1T/g9sNhlrQVVuZea10qeHvJ/Fexwsoi3VQcZklERKadN0BZxeVnFnRzkjM3UCuTLtpzK5hvG5Gz/UA3OHwcwFSroqdD2HRx0NoBc7jmyA6OJcs36Wktt0Yw3QuWZcFlmKMuWJkj2gMMc0REZNp5mMs2MFu98HimSdq2HTuJsXFg4ZnLWMU2mpF0cuIkpiEVvWT5JBnWuYVu58w2itv+cgSZOXtXnsREp2WYDjilLFbmqCtW5oj2AMMcERHdqJGHZlE9O4FRNQWgiuo4sPDiMlZ3tLCQbpq2rEYxpCYAANNLMWo7rqiNYPLlWYzdOwRVg1ExvEHHaphfWoYaSY6LKmZfntxy3t7gad0PYOJehQl5NknwPejz5EwcZklbUfEtvfDJ/vi1IYX5qgAAIABJREFUJ58CAPw/L/wxfvInHsLx42/b5yuig+Qdo+/EFxY/v9+XQUREt4h3jL4Tz332D27Bf+hbxdypIUxgFis32PFRL2kwjUVZD5duiv/zF/4NvvilL+NXfvmX9vtS6BbFYZZEREREe+yW/pfzZKmjbuvPdZSs6Va4Nh3dMEuxMkfdcZglERER0V67JQdCdVhuaSfySyzRTaUszpmj7liZIyIiItpjnNVCu2ExzNEWGOaIiIiIiG5BHGZJW2GYIyIiItpjrMzRbnCYJW2FYa6LOIpgWWq/L4OIiIgOOGY52g0Os6StMMx10XRdVCqV/b4MIiIiOvCY5mjnOMyStsIw14XLMEdEREQ3AYdZ0m75fsA/P9QRw1wXDHNERER0o5RSrMvRrkRJiAvDcJ+vhG5VDHNduK6LSg/DHBEREe2eUoqT5mhX4igCAAQBwxwVY5jrwm2yMkdEREQ3RinFLEe7klbmgn2+ErpVMcx10XRd9DDMERER0Q3QfbGZ5mjnoqQyx2GW1AnDXBdBEKBUKu33ZRAREdFBphQbWNCuxJH+c8NhltQJw1wXlUp5vy+BiIiIDjg2QKHdimKpzHGYJRVjmOuC8+WIiIjoRrEBCu1WqwEKh1lSBwxzBSqVCuqNBsMcERER3TBmOdqtVgMUDrOkDhjmClQqFTTqexPmls6PYe7qTT/stq1eGINSr+01LJ1XUGoGSzvebwkzSmHmCoArM9s6BhER0a1HIeZAS9qFiJU52gLDXIFKpYIojm56mFu9MIbRszf1kAfCyJkYcTyJkR2+b/XC45jCNE6eAHDiJKYxhccvrO7FJRIREe0ZDrOk3ZIGKJwzR50wzBWoVMoY6B/oHOauzmFMKSiloM7PYEYpqPNpzUhXv5LXT81hFQCuzGCotgBgARP3JtWmrlYxd0qlxzGOnzm/UhiTgJNsHzs/o19Pzq0rXgpKjeHJl7b/HDL3kauKFd4j0uraTHLOmSvtFbf0erpV7JbwZG0BOHcyCYEjOHkOWKg9yeocEREdKFxnjnar1QCFwyypA4a5ApVKBX/2xS+hUi7qZrmKuUcnsIBpLMYx4geAKfPlJLRNL8WI40VMX5rA0Pkl4MQkVuaqAKqYfTnG5Inu17B0fggTmMVKHCNemgbOjiYBUJ//+FKMOI6xeA5YqD2SGTa58OIwnohjxBdrGLwyg9GzQHVuBXH8BIZfXNjeQ7g6h0dqC8n7FjGNKYxKoOx0jy1TwAP6+tru88oMRl9M7uvlWVTN42bOv4znAUw/kNbzRh6YBvA8lvdxmCoREdFOKQVwnTnajdbSBBxmSR0wzBWoVCp4/oUXiitzVy9j/hLSitGJk5g2Xl56dgqQoYFJNQkvLmNngwOXcPksUH3vSQwCwIlJIxgNonYxxuQxXYUrGrbZep9xPY+dHgQwiJPvre7oShZqQxi7MIzJOEZ8ZmSb9yivFTgxifhiDcvnFdS9E+gYLa8ud3htgWGOiIgOFAVW5mh3uDQBbYVhroCEuHKXdeaq9w0XbF3F8osAMIXRZBjh6FkAl5axvJMLSKpSxXRTEHXvPMZejpNq3x44VsNj5/S3C7UhYzjnjd2jDM8cxWJS8euw33LnJ/D8MufNERHRAaJuQgOUKzOt6QvtkqkZxrSHvZedDpK5LpkOYo68Sa4/Mz0jM23k5jY5227ztVtdxEXDaQsMcwUkzFXKnRugLLxUFF0GMfxWADIEs/W1w+Yfx4ZxvNM5rlzGFIDppXnUjm33gLsbmqgblyTDPCHDOW/kHldx+ZkFYHwWK2e67z04fLzja8eHBzu+RkREdKu5rRugjOupE+a0iqWn8iNvljAzMpVO3ZDpGcdqmE+mjFCxOKnMyXBLojyGuQKtMFdUmTt2EmPjAM5exhKk42JKz+uawuUrQKuKVjQnrKtk6GJyjlZjkwurwLFhVCHVqaRJSLcjPTANYAHzz+mq2uVntjlnzvwXwBOTyf9oj2P42I3cYxIEkype/tllZO7TVMXwtkMsERHR/uvaAKVTUzNkm43NPJt/Y/L3r1JQp57Mjo7p0BCtU/OyzLFy15C/vi0buCVz9bPb9D9E63+MzX3G2cKWSyqZFb+C/S6fL34t2+TNeE0+/5yfaW9Atw8ihjjaAsNcAQlx5cLK3CBqn0gadyiFoZeOZ4cKJo1OpkYUlBrFlFGFGrx/DNWkm+XYFi32R86sYHY8Gcp47wQWzi1i/vRga/ijHvo4iufHq+g6jyy5Hr3/I1h+6zaHZWbuQw+lnF5Kqm9d7nErIw8Zz64GVMdRPKewoDqp5+odZ5gjIqIDRSl0GGbZpalZ0ogM5xYRxzFO5v75c+n8KKaSpmrxJ4bx/KX2o+cbonVqXqaPpUfc6M8M0lgtafqWVN8WzwFTI92GLkoFbjbz2UhPnUj/MXb4vipuSkOzq3MYG5lK7mkFs+MLmHjUDKnSkG0R01jAxFNLrfc9UjuejDBKXns0O0R1Cif1yKNtfr7ZK3GyzhxRJ85+X8CtqKdbZc78H9vFGgavzmHsbHYO3eDpecSnC956rIb5uLbNq9CNTor2HjkTIz5T9J7i4+evZ7LwvQVX0Ok+urxWdG2ZbV2ewWDmvSN4eK6KqWeWsYoRDCZz9apzD+94vToiIqL9pKA6NLPUf9fr6ld2aOLqc/NYQBWzDyUL9DwwDZyVQKcbpeHcY8mUCz1qKD/2pqghWnvzMvlbdQqjCliMC/5+vzSBoVPAysVOnz+Sa07Wh108PYzL2/24s4Vun0X0M5rGY0aDODmt/qdgCZDDGG794/EIBo/VMB8n1bkOI5zMbtr7Kbpdh+fSTcPKXIF0zlxRmBtE7dFp/T82qZqNz+KJ0zubx5Vday37tfUadDdDbh27zFeX4QyvocHTj2H60gSevALgypOYuCRdOYmIiA6Qjg1QXqOmZls0L9OjZszXpfqWfOYB0s89nZqsJJXE1iie18DyS1tNHekwmicZSjn0zBhW4hXMju/F1d0cEStztAWGuQJpN8sODVCSpQJaXxdr2GnEaDUXKfjaag26m0P/C1bxNeykucpeGsGkPI8TkztvJENERHQL6NgAZcumZlssx7PtpY+2aF6WNCKJW8HGWAO29Zkn6UB9aQKPFEwV0VUypFMwAODsKNT5paSpWXovOoTd+LSJ3Q7XlCrl4i4+v73WpAEKUScMcwUqlQqUUh0qc0RERETb17GZZZemZnqePTD1bDKv7dlMuzU9TPLSPC5fRboGbhedm5eZyxpIXwCZPmLuN4LJpLt1UVfpwdPzRkhMgt+5RT3nLFmTV99nUiWU9Xq30K0BivQi0E3etr8cQSYEXnkSE1s8u/3EBii0Fc6ZK6CUQqVS6brOHBEREdF2KHQYZnmshsfOTWC0NgRVA6rjVeBSUsE6UcP80jLUyCjUWWD6nA5jYuTMCmZfHMLEvQoT49OYLpgzl3FiEitzz2NoROmjGM3LahcXsaxGMaQm9L7js1g5PQhgEJMvz+L5e/U1AADOLe5iBNEIJl+exdi9+j63s0TRthyTZ5QcF1XMvqyrjd0C3eDpxzBdG9XPDlVUx4GFZMjprVapY2WOtqLimDMri/zgP/hh/LOf+R/xIz/8D/f7UuiAecfoO/GFxc/v92UQEdEt4h/8owfx67/6f2Fo6FaLCjdiFXOnhjCBpCHcDRxp6bzC6NlpLHI6RZt//rOT+Nznn8Mv/9Iv4vjxt+335dAtiMMsO+ipVFDmMEsiIiK6QapjA5TbQNIYZVfN25I17NrWpaOWiJU52gKHWXZQqVQ6LE1AREREtH1KocOkuYOs8xJK27ajJZten2LOmaMtsDLXQYWVOSIiIroJlFK3X5aj1wSXJqCtMMx1UKmUW0sUEBEREe1WxwYoRFtgawvaCodZdvDN3/zNeORDH97x+2zbhm3bcGwbtuPo7x0btu0k22w4tpP8qvdxbBuWZe/BXey/KAoRRhGiMEQURa3v9a8Rwkhvb30fJvvkvg/DSO/Hf6EiIqKDRikwy9Fu8HMPbYVhroOfm/4YPG8Snu/D9zx4ng/P17/6ntf63vM8+MZrXttrnt6Wec38vY8wCOB5HoIwRBAECIMQQRjkvk9eS77fz3+p+euX/wqu6+Jb7/u2PT2PbVmtQFwulWHnQrEOzfr1VjhOAnLJcVAqleAkv5ZKya9OCY7xfankwJHX5fdOun/r/U52P2eL/YmIiIReZ45pjnYu4p8b2gLDXBflclnPm+vv3+9LaROGIYIwRBgkQS8MMt8HQfKa8X0Y3vi/7rzyyiuo1X4U6+vr+LmZabz97d/bdX/Ltozw5RiBq3MQk++VUjd8vURERPvttu5mSXsqZmWOtsAwd0DJcE68xk1afvEXfx6WZeEjH/kI5uZm8ZM/+cHX9PxEREQHjQKHWdLuROxmSVtgAxTatr/8y7/E008/jXe/+9348Ic/jBdeeAGf/OQn9/uyiIiIbmmszNFuxVxnjrbAMEfbJsHtx3/8x3HHHXfgox/9KD72sY/t81URERHd4hRYmaNdYWWOtsIwR9ty7do1/MIv/ALe9a534cUXX8SHPvQhPPjgg/j/2Xvz6Lqq++77e865gyZLsskgJca2gDQDSTFOmnAVwEZkaJOXgK+wWyQIJkC7GvoGSGmeN5E8S8mz+qQpJO3TNpRgEiQajIQhadNmEM6ARDO4pmlCBkAGHCQM2JKudKcz7PePfX737LPvubKRB0n491lLS9K5Z9hn2nd/9286cuQI9u7dO9/NYxiGYZgFi6wzx4Ny5pXDljnmaHDMHHNM3H777ZiYmMD3v/99HDhwAABw7733YunSpbj99tuxbt26eW4hwzAMwyxMuM4cM1fYMsccDbbMMcfE7bffjrVr1+KRRx7Bpk2bsGrVKjz44INYuXIlHnrooZLAYxiGYRgmjMF15pg5wpY55miwZY45Jvbv349Vq1YBQEm4rVu3Dnv37g19xjAMwzCMhgG2zDFzgi1zzNFgyxxzTKhiTRduq1evPtXNYRiGYZhFg4yZm+9WMIsRjy1zzFFgMccwDMMwDHMSkW6WrOaYV45gyxxzFFjMMQzDMAzDnEQ4AQozV8gyF09wZBQTDYs5hmEYhmGYk4jBdeaYOUKWuXg8Ps8tYRYqLOYYhmEYhmFOJlxnjpkjJcscizmmAizmmDnx+OOPz3cTGIZhGGZRYBgGG+aYOcGWOeZosJhj5sTExMR8N4FhGIZhFgUGTnUClHH0bzRgbOzHOABgBL2GAcPoxUhpHX/ZzpFKOzm+Yxvyp/cxAAf70W4EywyjHf0HqU30/ys8jL/P9vvGj339E36uJx+yzCVYzDEVYDHHMAzDMAxzEpGWuYVgm+vG549V/BwvG/owJgS6LgBwcBSDSKPvOQEhBIQYQMfyFLqEwFh/em77X96BASEwcFXTMaw8gt4zOzE4tyPNK2yZY44GizmGYRiGYZiTyOyVCcKWLNVSNn5fu2bN8j94rFdavXb2Ktsolq6Nd2G0wtEGO26KtoLpli46xmMI9r2zX2lrL0b8dYyjWMjGR/cBWIOW5bNcpChCbZi9vSM7ZZv6S9eMrtc4+je2ohsAtrQq1srFAcfMMUeDxRzDMAzDMMzJZBY1N7KzGZ2QViwx0gNsaS25Jt7UsQbDQkCIYfRgEJ2fDAuRbrRJS9fmFEZ2tqKbrF9faMG+3REH25BGGoPovHuO7oZbRtFyv99OdKP1Cy0YEwLDO2YRiQBGnxyU6x+D8Ds+ujHaMhBcr7tHADSh4/5h9ADAjmGI+ztwLLa8hQJb5pijwWKOYRiGYRjmJFI5AcoIhrYA6fVtUmBc0AVBronLOzAgutByXzsMw7csafS8PxXaD3bcho7lAJa3oX1DxAbvuA237QCw5fOvPEYNAHa0IQUAy1uQRtDulnNmc5Wktg1D+G6Vgx3N0dY2HfV6HBNp3/rXgpYNAH4+uqiscFGwZY45GizmGIZhGIZhTiIVE6AcHMW+Shv5LobND7ZjTIyhL0qczYHUZrLyfb7ysU8oMjZObJbCs+midqQB7Bs9GTJrDq6cCxzPE7AsC7EYFw1nomExxzAMwzAMcxIxDEQnQFnegjUABp8sj3Ab+U43gB4MvxK3wGOyRKVwfX8a2D24KBOCnG4I4aGurm6+m8EsYFjMMXNm//79890EhmEYhln4GEaFkLkU2nYA2DIkSwYoST2k6+I+jB4E8Nhd6IyKgdP3s3sAQwcBHBzCwCzrN111m4whU9GEpRSTJ4JwCYTxHw5gEGm0X3QMEnW2BCinCZ4nUFdXO9/NYBYwLOaYOcO15hiGYRjm6BizJEBJbR5D3wY/OciZnRjcMYyBq5p8wTWIzjMNGKl9SG8AsHu0YpZKuR9//U+OYs2sbpkpdI3ocs632G1phWEYGCqXe3PEP5a/3+aOQfSMDMjYvlMGieZWrdbewkcID0vYMsfMgiHEKa1iybwK2Lt3Ly655BI88sgjWLdu3Xw3h2EYhmEWNNdd/2f4y0/ejLef+7b5bsopYBz9G/0MncfgIjp+XzuaO4C+5061wFscfPBDH8E5Z5+Fv//S7fPdFGaBwpY5hmEYhmGYk4g0zJ1mc+e7O9E8q4ukdL9s7uDIvdkQHsfMMbPDqXEYhmEYhmFOIrO5Wb76aELH/QIdR11PZrnsOgUtWsx4gmPmmNlhyxzDMAzDMMzJpGKdOYaZHbbMMUeDxRzDMAzDMMxJ5PSyzDEnEk8IToDCzAqLOYZhGIZhmJOIAbBljpkTwvNQX18/381gFjAs5hiGYRiGYU4ihmGcfglQmBOCJwSLOWZWWMwxDMMwDMOcRNjNkpkrnuehgcUcMwss5pg5c+DAgfluAsMwDMMsfDgBCjNHhBCob1gy381gFjAs5pg5w2KOYRiGYY6OgdOwzhxzQvA4Zo45ClxnjmEYhmEY5iRiGAb27fsv/Nf+x2EYBkzDgGEaMAyz9LdpmDD0vw0Dpr+eXF7+t/w8/LdpqtubyjG1v+EnZhGiwm/A/6skRo/+W26o/z62fUVvW/G32kbl97HvQzm2to/yfc7S7orbznZt9W0rrCsEu1kys8JijmEYhmEY5iTy/vddiu98d2hO23qeC9u2UbRt2PpPMVi+WC1/hUIe+VwODY1LX/G2ruPgv372Y/zeW89FfX3DSWjdK8c0TZimCcuy5G/ThGlZ/m8TpmnBsvx1TAumpf6Wnwd/m2i7ZB1b5phZYTHHMAzDMAxzEkmvvxzp9ZfPdzNOGJ7nVfgR0ctF5fU//OEPwTAM3HXnP4Y+O5Ygw29842E88YvHIZwC/uHvvviKzsEsCSr5uyS0Qv8rAstfVvpcE130YxjGHK8qw8wNFnMMwzAMwzDMMUPC5XjZtm0bXjx0CI2NjXjyt7/BFVdc8Yq2T6evQF9fH9avX4///u/92LRp03G3iWEWG5wAhWEYhmEYhjmlHDhwANu3b8ctt9yCbdu24Y477nhF2+/atQurVq3CFVdcgWuvvRY333wzJiYmTlJrGWbhwmKOYRiGYRiGOaXcfvvtaGhowC233IJNmzbhqaeewt69e49p24mJCdx6660lS9yKFSswNTWFO++882Q2mWEWJCzmGIZhGIZhmFPGxMQE7rnnHtxyyy1obGzEI488gmXLluHjH//4MW1/++2347zzzsOqVavwxje+Ed/85jeRSqXQ399/klvOMAsPFnMMwzAMwzDMKWPPnj0QQmD16tU4//zzkU6nsXLlSjz//PNHtc5NTEzgjjvuwOOPP44rrrgCzz//PH75y19ibGwM+/fvx/79+0/RWTDMwoDFHMMwDMMwDHPK2LNnDyYnJ7Fp0yYkEgmsXbsWjz/+OCYnJ7F9+/ZZt921axeEELj55ptx4MABAMADDzyAm2++GStXrsSuXbtOxSkwzIKBxRzDMAzDMAxzyti/fz+2bt2KAwcO4JxzzsH555+PAwcO4O6778aRI0dmTWRyyy23YGJiAtu2bUNjYyMAoK6uDrfccgsOHDiAbdu2narTYJgFAZcmYBiGYRiGYU4ZZFEDgMOHD5f+3rRp03GXFyCBxzCnC2yZYxiGYRiGYeaFycnJ+W4CwyxqWMwxDMMwDMMw88LU1NR8N4FhFjUs5hiGYRiGYZh54URY5jiDJXM6w2KOYRiGYRiGmRdOhGVutoQpDPNqh8UcwzAMwzAMMy+wmyXDHB8s5hiGYRiGYZh5oa6ubr6bwDCLGhZzDMMwDMMwzLzAYo5hjg8WcwzDMAzDMMy8wGKOYY4PFnMMwzAMwzDMvLBkyZL5bgLDLGpYzDEMwzAMwzDzAlvmGOb4YDHHvGK4ngvDMAzDMCeCpUuXzncTGGZRw2KOecVwPReGYRiGYU4Er33ta+e7CQyzqGExxzAMwzAMw8wLJ0LMrVu37gS0hGEWJyzmGIZhGIZhmHkhmUxy4XCGOQ5YzDFzprGxcb6bwDAMwzDMIuell16a7yYwzKKFxRwzZ1avXj3fTWAYhmEYZpHDYo5h5g6LOYZhGIZhGGbecBznuLbnyWXmdIbFHMMwDMMwDDNvHG/hcA77YE5nWMwxDMMwDMMw88ZcxdzevXtPcEsYZvERm+8GMAzDMAzDMCcPIQRs24bjOHAcJ/LvSsssy0I8HkcsFkM8Hi/7iVpumq/MVlBfX3+Szlyyf/9+TE5OVvz8WEThxMQE9u/ffyKbNSdmK8Ogf9bQ0MAuqKcBLOaYOcNuDQzDMMzpwJNPPonPfOYzePHFF0/4vguFAorFIorFYuTf9HsxQQIwkUiEfkctSyQSuOiii+Z0HBqHXHLJJThw4AAOHDhwIk9jQXI81shVq1Zh1apV2Lp1K9fmexXBYo6ZMzzbwzAMw5wOHDx4EE899RQ++9nPIpPJIJPJYGpqqvSbfiYnJzE9PQ3btmHbNorFYulv/X/6+3iTf8yVWCyGZDIZ+qmqqipbVmk5LZvNCldVVYXa2tqyH525CovVq1fjkUceKVu2mCab9+/fj4mJiVN2vF27dmHv3r0s5l5FsJhjGIZhGIY5CplMBh/84AfnuxmMxmIXJad6Ynzv3r2nVDwyJx9OgMIwDMMwDHMUpqam5rsJDHNCWAixf8yJg8UcMydWrlw5301gGIZhmFNGJpOZ7yYwzHHT2Ng4azIYZvHBbpbHgBACrutW+PHC/3uVP/NcT/ncg+eF15P/e6X9eOr2ngfPdeF53gk9N8uyEIvFlB/9f+3HsnBkYhIrVq7Cr3/zW7m+FYOl/Y7FrNK+LUv+zTAMwzCLlUKhMN9NYJjjZvXq1bj11lvnuxnMCWRRiznP85DNZpHN5pDNyd+5bBYz2Zy/PIuZbBa5bFZmhCpliCqWZ4vy/y8W6O9C6W/Xdef7VBckH910/TGvaxhGSdRF/cRm+Sz4MUN/m2bEZ6YFU1/XlH+blY4Xi2pDzBejEe30Ra3+OxaLWib380rTNDMMwzALi6jEHQzDMPPNohFzn/lMN8ZeOCSFmy/SstkshBAnZP+maZb/WBZqa2vl34YB0xcQ8nMjtK6lbgfAjMVCnxtGhcG86wDWMd4GxwFi2rrCA8r27QECEcsjEP66xyI2PA8wTRw4MArHcXDOOW+C3BgADG1dBzCt8PLItlY6lutvH0BWTMAOdik8eI4DYRjwPA+eEBBRvz0BT3gQUb9pPSHXk9vROvJzUeH38RItcn0hapiwFMumFLDKMhKppoV/+Ps7jrstryaGvv0d7H7oYYQ9yQXoeXQ9F3axiGLRlhM3tiP/t2lZ8YT1La9mTNMse35j+nNMExyhCRT5DBvUP3ievDWGfr+Asr4lilfUt3hH7e8+ddutaGlZdWz7Y04bWMwxDLMQWRRibmZmBt/b+wP8w9990RdUJkzXhVkswqqrg5mISyuNacLMZWFaMVhL6qTwskxYtgOzUIC5bJn8n8TZzAysZBJmXZ16MCmaGhqCZfk8kM0CS5YA8XiwfGpKDgr07W0bqK8PDxgmJoBkEqiuDpZNT8uBhVoss1CQy884I3wRyFd/yZJwu3I5uYxEnuvKdRMJoKZm9vMqFOTyujq5/mzHchx5vnV1mMhmMTExgVUrV8plsRigfslls0CxCKipgYtFeV41NUBVVfhY8Xh4mW3L5er1FkIeq7o63Fa63g0NgGEE12ByEli2rPwaChG+3rmc/GlsDO4XXcN4PHxeuZy8ZuqxAHlv1estRHAN1WMVi8F5+efg2DbyL76EgmMjb8WQL+SRzxdQmJ6Wx6utDUSt58prm0gAiWRpt3/+F5/AoWeexetWrgAj+cHIY1izejXOW30e7KKNYiEPe2oKdiwG23VRpFTh2RzsXA5Fy5L/+0LOnpmBDaDoF821bRuebUtdYSrdpufKdzgWQyA6PMBx5fOkTkh4LuCJ8ISM8ODZNly5FTzf/dpzHOlaDemB4LnSzdp1XXjwJyDU5UJZ5v8Iz/MnpZSJJsMo9YvB5JM/MRWzwuvBn5TyLcuWacIUQm4fj/nWZkM5LyviGlhKPyjkuwWEJ7CEJ/cRcsUW/vYGYFowTUO6eRsGYqYJq6oqcAs3LVieh1gygVhVVeDm7bpynZoaaSGPWYgJIOY6sGprEUtWBW7ixQJi8ThidXXY0fs5HDlyhMUcUwaLOYZhFiKLRswBwGtecwZWrDgzEBa6MIgSLJ4nB9vLlkoxpa4bj4eFWC5XLkIKBbm8ri4s5LJZOWg/FiGXyciBiirkstnythaLgbgKXwA5CNLFEQlMGhySiIjHw0KOxJUu5LJZuZ4ujlw3vC4ghVhVFZBIoDGRkDVcMhl5nlGCRxUxti2PVV0dvl/ZrDyWer5CyGNVV4evNx1Lbat6XqqQy2TCx1GPpYurXE6uS/fLcQIxrJ4XrbtkSVjI0b2l6+158hrqotF15XL1enseYtks6uqXoE69Bo4TXG86DyGkQNUFZj4PAHhhchKvA0Mc/N3zeOPy5Xj3H7xLPn/tJPBoAAAgAElEQVR0PdV3sNKkAT1r6j2ZmpL3XZ9M0Sd5Kk2m5HJy/fr6QLR4ntyvuq76/KjP2syMfAbV7elZ1c+LJk7q68PCcXKy8sSL+g5FTDpUvAbZbDDBoU6GTE2F2zXbe0F9OfXPnhe8V+o9mG3ySn8vpqfL+zG637W14e8CZZLn5ZcPY3z8BXltjxwBli4FwxAs5hiGWYgsikCe6ZksACnmQgMYdcBOQkwXQpmM/OJWv7zzebkfdQBUKMjl6gCKhJwueAoF+UPHIgFi23J7VcjlcuWChQZ26rFowKkOauhY+nmp6+qCRx+s5fNBW9XB1syMPI56DfP54FizCRZAbu954XapwpcGnCQ6E4nw9c7n5XnU1pYfS193elr+VgeRJBr185qeltdAbWuhEBxLXZcEJq1LIkoXcrS8tjZ8vfV7S9eVrot6XlNTYcssDVh10UCCPhYLC7mpKXlN9XblcqiurobtcFynyguHXpR/eJ68d7pVnJbr71AuJ3+r60ZZqkncq5M8dE/1yRR6L2prw9an6Wl5/1Uhl83K3/ReCBFMEi1ZUi7kZjsvVchFTbxQn6c+q9S36Nb6qalAYBLUt6h9Holh9R1WhVzUxE0sFhZydF30vmVmRrZfFXK0vXpeU1PlEzf0DldXh/tXbUJpbHw8ODd9Qog57WExx7yaOHDgwHw3gTlBLAoxNzMzg2XLlqGmulp+IevCIp8PBiXqYMm36JUNYGxbDjZoEEauduoAiAY6+pe/bQfrWlYwIHGc8uPbttyHKljUARStS4MS3XLlOOUDGBoY6WKWBpy6MKDjqwNOGtyq11BdVx0ERlnPyEqgDgJJhKjHon3q4orEdDIZHkiTaNMtfY5TPpAuFML3kAbChhF9Xuqx6BrEYsGA03Hk9npbaYBe6Tmge+u6gRCgZ4Mgka0O2mnAqp6X58nzEiI8QKfnWL0H9Bwkk1i2jK0HOocOHZJ/RFnJaLnu3kuTGdXVwf3LZOS1Vu+TamnW3ZN1YUGTGbW14XWnp8PiSAh5fM8L9y1kwVffS1XI6edFFjHdAk4CUT0H8gJQ91tJ8OjXQJ24Ufsm3e2a3kvXDU+m0DVQ3wESgkJUbitdQ5o4Aco9HuhYhhKPFyXoczm5b2VCaPLIEfmZ7knBMAAS6jvMMIsUKhi+ahW7kr9aWBRuloV8HmcsWxq4CfmD2i/euRuFoj3rtuesegPWf3id/Me25YAFCAYrti0HJvF4sIwsb4lEeFBDA35aToMtz5Nf/KoIUgUaiQja3ndXLK0XNcNOAxt1wEjCQhccUa6RNOBUjwUEAyh9sJTLyTao65JoUkWbauVSxSgJTLpetK1plltAKW5GPRaJNj1+MJeTy1TLAZ0XDVhpwCiEvC40YCQxrQ7aydJhGME1oPsCyO3pWFFWBjqeatUhIWcY8n9VoJKlju4NiTAgfA+EiBaD2Wzguqu2i4RrdTXO0GMDT3NKQq5YLIkY27Zx+5d3H3XbWz+2HjG6f+pEBl17mmBJJMKCKSp+lp5fXRypzzpZ30jI0aSD5wXrqdZD1XqsC7nJycoTXbobJD2/at8SJXjI+qa6jlN/obtC69Y31dKoT3SRVZveC3qmgbDbs9qP0jVU3zdVeKuWQt29VL9e5PFQVRVyU58hMcdWOYZhXqVwwfBXH4tCzOXyeVTF4+HBkp9p7k+uuATJRDxyu6efGcPYocPyH8cJxEUyKX+TMFDjLWgApg/WaHBF4kSdNdddtchap4oINZaLBkuqm1HUwEwXEVGuShTzog72Kw04oxKuqBYp/XxnZsIDNnIt0wUmnSudAwlkQK5LA7NCQa4PhAdstF91wBhllVQHsqo4y+flb3Vgpg74oqwUNEAnd0ugsuVAd61R763nyeObptyf7s6rxiqSkCQrh+6O63l+cpNEsD1ZDtSBcD4fsj4UbRu2M/ukxulEycVSc7Vrfv0Z+MDad1bc7ltDPw5b60nE6BZ03Y1yNjdM3fpHMWbq/acJDsuSzw/1Na4rt1Xj8WZmyt1tgWCCQE9apLt3VnqHpqbKz4vOQd8+ykWb3it10iKXK38v6Xz1SRo6X7UvpXbp7sn5fPnEidpW9VhRCZpIyOmTdfk8ZnyX/pCLNMMwDMMsYBaFm2U+n8cLL70UdschKwaAZCIe+VOCBgCWJb+kE4lgdlmdySarUzwu11G/0GmwTevS4EOfnQbkYEm1/FSy8ETFTAHR8VFTU6XB0shOA4bh/9TWov1fp48+4FTdFfW4MZrhNh5Dr2HA2Dkij/fiHrRXVwfHSiZhLF0K45oBjNN56YKHhByJKDV2znXl8lgsLLr27oBxxhno/amWyEWfjadYMt1yIERwz9TlQFhMqrGSlhV2zVRn+OkekuusCgnq2tpA0JtmMGglyL2Ojq8KOTXODwgsQKp1uFiUP7FYeeIdclH1r2FmcgrFo1ioTyd+97vn5R/xuJYhsXJfEeovstny2E+a3IiKHY1KrEMWYXVdejeOPIz2eDx4r6qrYSxZgt79VcE76XlhSzcdP6q/IHFSm0H/RgPGxn6Mq0lIaB/0vEb1LUp/VepfkkkYy5bJ37RP6lv0d1CNAR7uQftXD8jjqZMT6nkkEkEfQH2p7nZNQkx1T6Z+nybl6LrqyYWAyiKbJvXU99Xv+2e4KDTDMAyzyFg0Yu7Qiy8F4sq3eAgAtu34daHKfxzHhaABQCwWDJBosFUSMYb8MicXTH0mmSwhNOAnYaS7MALhGBdqLyUQ0bOt6QkFKi0vCccp9P+xidYtPRguFiFefhni6XuAa1ZIAVZpwEluo+oMuzowUl0TAaDgD/hq5GAp/dVnISYmIGZmIJ7rQ3p3J266bzxwbaRrSNZPIBzPZtvyh+KA9Kx1Cc1ArGf/VF2w1LaSa1qURYzulxoDWSyGXUlJ8FUSTHoJAjWZjGEEFjmyoKgZNWlwSQNGEnJ6Egxqq2rBIfdQ/ZmxbbmuOhDN5zGVyaCYy4KRHDx4EADgKc+0V7QhPFGxryj6n3vUN+iTNKobr2pNIqs4QYKNLPiqtZzcBX3hmP7asxCZDMTUFMbuXY/uVhO9P/CfSVUEqW7EesIgsr5VVwOx5ei4X0D0b0RTVJbLqNjLTEbuT3XRFgDQjeHpaQghIMQwenZ3ovnKXRjX3abJsk8TFM/1of29m+VnZGlUIasgtYGef1Wcqe3SYwrp3FWPB8pUqm5PXgh6rGOxGEw0qa7b+TyQSKBIngOeF3gRMAzDMMwCZlGIuVxODnAOHToUWM98V8d//9a/IZ1eH/kzPT0Nj+KzyJpBX+hAIM6KRfk5WVfUwbbqkpNIBK5venwZEM4GqSZQ0MUZlVBQB4FAICKiZpLr6oB9X0XnbqDn0f8PKYp5afkoBoSA6L7Atxr9J3rr62GYppxd3/r9Uvr9kf+dgGH0oneHAcOy0PufHnD4ocBKsHNIHlNoWSrtfGARW96CNQAGn/iVHzuXQX+Hv308jvbdLwRWsoP9aDcMGIkEjLo6tN/3u9KAa7y/HYZlwVi6FL0/1JOgvID+GxpKlov2ew6UBtIjn43Jc9gqLRq9P/bFoTowKxTCs/x0DVXBpCZh0ZMi6Fkyab+qtYZcRmmCQM8yqLqx0X3V4ypJZKvtcpzwRAPhuoH4VEVfLofM9DRsHniWeM4XczmaAHBduNksXM/FNddcE9lX3HjjDXA9Dy659uqWJ3JrpftMroKqpZueHSBsESbBobsm2kGym6Y/+RL61gPdX/o6xi0LSB6RVjZDvqvtX39ePns//hwMw0DvY5DP3m93oX3pUrQ/OAFgXG6zwRddNTVhK/41/4LxUvzfiLTC19fDaGiQ+yOKAKAkEhIXoGtoC7DnBtz1P/K9GL+vvfTOG2d8DP2HEoAYRu+KqzEIYPC6s2F8XsZllNY1DBgNV6N/wu9bqN/VkxZlMvKa6ZkzgSA+2TCCySD9HSbXczVbsP7+6PG+/jtYRfuhpFgMwzCvMjhm7tXHooiZy1MtrbFxvI5cFZNJCAEUbQdXXrkxcjvbduB6InCt9LxAyJH1jaxGZDFSB9t6Ag0afOuzwEAgGNQZ/ahacjSbX8nqow4OSUD4cTMj3+kGsBNtb8sAcS0eznf3GrnjA9jXPwZxVRPG+9JovnodetdNo+sSWrcbWJuFmLSBqkn0X/1RDKIHw6ILqe9vkyV/E/5gyfYtlaYVDKAOjmIfgPTKN8jB4ueWonP3TgxP34rUj/8aRts56H2rQNcF4+i/tRNrvjeFgQuTGNmZROt1t6H/fYPoQD9u6hwEur4DsfNSjPRQ7JDMLjfypd9D526/TT/YDmPtWeg9u4Cui+LBOaybhvgrTXyrLlx0f0gcqdYsEny6ZVVNN68ns1GT0ZAQJIugWueP3C7JokYCXy9rQFlN1WdJzYipigGySgDB+fquZQV/nSI91wwOHXoJ//B3X8S/f/vbpQyLrmHA8zz80R99qOJ2wvPgWbHwu019gJrplmJt1fgsspqq2SiB6MypriK8yUKUb0TLuQB6nsNodTVGd9bId2DmVqSGPwfj/W9G77kCXRe0oQfAvtFx4NxajI98A4NYj76LmgCMAw4ASIvW+H3t0oqf/SRST9+L9rffiJu+/v9g4CqgP92K7su/jLHB64Gvb0Bzqh0tzw2goyHjW+YUN/NsFnj9mUgD2PfMIWDFEG7qWIPhybuRMn6C3vr3ofOT/Wj7ahpdT9yFfW+9Huj7HQY63gAc7Jfr5vqQyv0Avcs+KNft24AmJUFNyNqpJocBwkKOYm3JFVuPN1atpfT+VIqzi4hZrqY+QnWTZxiGeRUxMTGBlStXznczmBPIohBzjm9dm3rxReCsltJgS0Dg3e96D6qq4jBgQI5Cgt+/e+EwPM+TAyvHCWK26Aud3AJJ7KmDbYpdIbciVVjpQo4+U0UEDdbVQYVayy7k1lgIXJXUZB/kHhrKrFYsd78jS19dHVJbBQYwgl6jGd30ebU6KNmGttVFoKoaOPRNDOwG0v3XI5XPA+9IoQdAt2n54lKKucHrzoZxXbCH9D//GgNXrwQSP8PQFgCb34uUEECqDT3YIQea734dOnZNA4cG0J68FoOAf2+A8e9+HYO4DH1/2gYYBlLv7wG2dAPFPLDkFxjaCmBHG1LFIrD6vXLwevAwgCbAA4AtaHs3pKBVRZdetkJNbqLO5pOVRB+0ZzLl9bU8TyajIZc11w3ccU0zOpsfWVzpfusJcqKyHKpuZAntvCiRBD2jSlbVvC+4OWYuzJo1qzG4Z4+8d8kk3KINz/Vw0UVrofcTAgIGDPzk50/BjcpIq7o8kruk+vxQP0Iux6q4p/hZcs/0PKDg36uYn4iJxIoJyC55RL5XWy5CyraBtR9AD3rke3VBCm07gO4H/h3jH2rF0LceBjb0oW05gOkZeUrxKsB4AUMPDgJbPiHf7TdfhwFxozzOU/dg4EEg/bU/RJNpAhe1I41OjI4WgHe4QAKgd7WUTbVGeVeWd2Bgegbj910F48ZvyGWeE7wXAGCYwbq2g/G718P402/618ULW5/VuFqa+NBjbYHwxAldVz17aLFYXmOP4mpjsXJXTi3BUbXlt5vLEpR4+sknsff7P0SiqgqJRALxRByJeAKJRBxx/3cikYBpmPI5MPVhBb1vJw/HdeA4DlzbhuN5cBwHjuPCdeVvx3HguA7c0t8u3GIRrhBwPQ+e68H1XLiuq/ztwXNd+bdtY/zQiyjYHm771Kfhev56rlwvhOfKCdBjuQavZN1Ijn9dGcYe838sWFbwdywW8/+3ELNisPxlMcvCjTd87BiPyyxEuCzBq4tFIebq6uSX7cxMNux6I4B8IQ8h3AgpBxRtW4o50wwGGuQCSG43hiE/Vwfwaur32tqwxUdPWa1mg9RrlqmDiqhlgByAUEFqtVyBmpiDKPonrcfTUamA2Evo39gsXTG/NwUh/g+M9+0M1nUBICLWz/OPV5UI/i8U/CsJpPvH5Gz+hmZ0PgCsOXu5HBT5VjrsbIOhHAa/fRrIP4HeujZ04yPoe7qAv3/sKjR3AMhlAVcAiCluaP6XYbIaGH9W7nNLK4wtyj6fHAW81/mWB8hreCx1u4DyumF6YgpyjaytLRfqap0yVXDpA0O9hACJ8SjrH7ny6enqacCpJ3KhZziZDNzCfNFX8GvzsWVOw/OQmwpqsbm5I3A9D7lcrqyfoN+eJwd2Jcj9jgb7qkueOmFAWVP1BB5q9lk9cyUAWDFFyJlBb0zv1Y61MHYo5/TkKIAmpNZuA7Y8iKFbDAw8AKT729CUzQKO6+/DADCK0d0APl0otyo+/Vs5uXLNChjXKPv/zTPAu1cGzvdk5aqtBaaVAecPt8O4eBtw5dcwJr6MoSub0elRvLGWDGq4B8Z7NwPpuzEm7sTQxmZ0Onb5BFpUKRWaJKOYVlqXav/pZUzIiyKq5Ik6KUYiGyirnVdN/QRnsyzxne9K9/tcoYBCoYhCsYDC9AwKto28bSOfl67Fjl1EMZ9H0XVlLLtd9ONRC7Bte8FNOP3nvz4ENxaDk0zCdRwpzKam4Ng23OoauK4rRV+hAHdyEm4ygf94ZC/WrVsH13XxhiVLUF1bgyefHwt2qlry6Vmi5Ff0PaRncPUnJCzLQkx4iBdtxBobEUsmA5FVLCBmGIgvW1Za9vGbPoF9+x+f8/lbloVkIoFEMolkMoFkIolEMoGkFUMiEUeypgbJZAKJRBLJWAwJ00Cyvh4xy8K+/9qPHz06ggvfm5rz8RmGOXEsDjFXKzu7GVeZ+RUCAgLjhyYqDs4EAAEjsL7RF706KLescoFGGeoo5iLKnQcIBndqUgBapsbHqDEz6gBerc+m1kyLcrXLZpFa2w309GDosZ1IXYBwYpN4HDg4JC1tX/ktuta4wC+VgZXj+GIwViZYBn/xC2D9hUANuSH61yapWipfi44dd2LggRvRfckX0Ca6kXrtchk/t/kRiB3rgnVzOeAnf41uAD0/2I2OlgTGHwMA189aZwF4EKMHATS7QM4XIomqICbv0/8B8elUuFwAWdlglgsh2w67rqqZK2kQGJUAQi0ZoT8H+uw/xcmpWSfpWOQiq2bJ1MW/bQf1vfTtSbBFZNgrJWxQs2/61ou8H6NV5PieEjU18r3JFgqld1bOuLs4cPDFWcScnGkHEM5aCoQnePTsimrfQijW8lCcnW0H71UxD3j+59WTGP05gA0taGle6b9XQxA7LgmfXKEAnH8herANA1+KYRBp9L2r3q8lVxtMvNvL0XI5gF+PYTyZRJO8CPL5O+tNSANA/xgGrmoKlysoPZdu4AYcjwMHRzEIoGfFazDyb9sAbMPw7qvR5P5OThIZ8C1niugTAiP/uhnAFgwPbEITxv0JJRGeQKPJK72USz4fZL6lddW4YnrXKWmNni1YLfmgljagZER64ppcDlWqSzwDACi6LqamptD16f8lF1Bm5cbGYCUqGK/X86P3wL+uxWIRdi6H4uHDKMbiKBqAXbSlCJyYQBGAbZi+ECyiOJOFnZ1B0YqhaNso2jZc24aXy0NYJjzLkomLPA+ikIcHQMRi8n8hZOIjx4ZnxSAMOWEjPA9esYBtf3sHPNOS63kehG1DeK7cpxDKukUIw4BnGBBC4Ne/eRLCnxw243GYfny6CcDwPJjxOAzLCpa7LgzThJlIwDQNGIYJ0/NgCAGzKgnTMGGYBkwBGK4j14vF5TLThOF6MD0XZlWV3K9hwBAC7zr3bXjve96NRG1NIMSEQNKykFi6NBBipoGk7SBxxjIka2rkskQ8umyHdr9K93ZyUr5D/vv55zd9AlOHXjjxDxtzyli9evV8N4E5gSwOMUeWOT8RCgAgn8fy1zZKI49aTNmvPwfDAAygvjpZbkkht5soIUeDBRqEUVY1PX7CdQORSBkW1fTh+uBBzzBJNZSqq8trKOm1mWiGfN2foW9DDzpTvWgrfgqpbFamOV+6CYM7hiE2SyHU/dungboq9N++JdhvJgNYQOiWv2Ed2q8ABj83jJHPfgCp4e8Grpk1NcCUFgv2xo24bduNGNy2GZ+/91oMXHYe2jYD2PkoRnasQ+qxXhipbvR8P4euN6yUMTYHDwMYxV0dgwAuA6qq0LRuA9LYg+5vP4quc38fI3t7lAubQls3gJ4fYmTnpUj9+HNynz/Io2u1q7ii+UQloqDMpGqSGrqG6gCE0rdHFWDWU85T+nU9iQUNJNX4KSrXoO5TLX6sCzaKvwtZYZXkEImE3B9l6FPc0Aq+ZUdwApQSdSS+Ffcl17bRWFcTWOIBP1uhKK23rDEOz/WCSRJ1coDKR9BzRu91JSstJUJSLWKlGo0Us+UFQuOxv5UW9eGr0DQ9Jd+BncMY2XFJ8F79sIiu1TZgvAdt24HurYNA+y60neG7blv+pIhwgUwt2tZfDmx6GEMHr0XHGx5Fb+xCdHd9F6Lng2jfAHQ+OITxP/4T4J40mm8w0PfcQ+ioge/KXFSe1XH0f6EbuPJruP7caeC3HwHw3xh9TiD15JfRuQdAu5YRFgBmZtBy1mUA/gejB4HU6D+hcxBA2gwLYv19qWQBjyoKTpYQvWSJGgutulirdR71upzJJGrV/mFyMjyoPU0pFos4eNAv91EpeddsWZSVa5iIx5HIZlH7+teHrduZDLDizPBEm+rFoE6UTE6WixAqr6F7reTzcp9qnKSeKZXaT54VauIi1TODUGu7qn2J6o4/W7uo1qRaw5LONer7gRJ6qbHVVHZEn7zIZsPvh+PIdXVPkAgX49J56c+8ntDLP9/MVAbM4qVR7euYRc/iEHO+ZY4SoVBGyY0fXleeBdA0g1lf25bL1RTZNHiOEnL6YIEGcGowPhBYSKhmmGWFk1dQfAyJID1FNnX8ehY2siapMTpqrJ6ferxlu4HWRHew3Y5hiM0poFjE9Xdehu4bPwjjcwA2pJHGIPY98SRw3hv9WBgfIYCpGnTc+z2M1l2KVmM70LVZxszFtdIMxTzg1QC1tUhtHUbPtlZ0X3MT+n/Vj47tz6PvV29AqyHbk777aXT9gQDMq3DbjuvQ2tEMowNIX3EZsOcbGB2PAxd0YGD4aRitF8LYCvRs3Q5ga+kapG77NfqeeDNaY1Lkpb/2LLrOK0i3NPWJpfpSanKRqMyVJLhKmfwQuEEmEuVCXf1So8LitE/dIqgnUiH3LXVQQgMI/X5XSpXuOMFyehZUgarcm/yRCQBA/bJlYCRLlmh12DwPzXU1uOpDFwf3hQZ66oAKkNd4cjKwstK6VG6ElqliQx98kZBTXQhJyCeTpcRCgx87B4YSdtIzItD19mnAM5DaOYa+XzcH79XXnkPX6iAuL/WBHmBrN9IffA+aQoNVSMt6dTWart2D4WcNtJ5poBMA1t+FsZ5LAQAd9w9j1GhF8+5OeexHHXQsh58kCgB60VrdGzRuw70Y+8pH0CQE8NFPoee6C9G5wkQnLkO6HRgceA6jAJqWt0mh2NEMY/1dGNv9v9Bzw4XoPNNAJz6C9HpgcPCgXJfcz4BwEhTKHqoOYKOKgtM7rE+E0HcBUF5TkqyteqZRv3ZePfXTVI+PgV20MT2dKfVLXjIJQf0iELgL1tYGy/zrbemlWDIZIPYy+jedg87dALADwxOfQMqygLqfo9dolROKV34VY3dehibdTT1KhETVE6Tvcv+7YWSnIZMBZW6W8d26uKL+XhVnWnIcud9n0N+xCp0PAaDEYUIAU99D77IPyLZv6MPY/R2yPIjeLhJyav9C32O6kFNrjarlfKJqPZKXj/p+kDuxHudPE5WqaKPJSlWgVrre+TySsRgy9sJym9X52U9+iqLrSgtv6cdGoVhAseD/b9vSMmwXS67Atu3/7//teWKOLTi2eEYhPOnm63lwS3GYbimGM/jxtP+DH0C6zVqWCdO0tL9NWKYF0wr+ztsefjTyY3x00w3+eqa/jXUMbfZwzInwhQfDsmCZ8himacq/fcs1Hds0LVieBzOZCP43TZimIdttWjAtZXvf6h2CvDBmwTRNxONxxGMxxBMJxOMxxOJxxGNxxOMx+Vk8jjOXL0dzc9OxneMCYXGIuTqlI6GZKnWmSI1/o9gVcslTRRtlMaRl6sNAFh7qDCkGQ+3ggbBA01OVO07YVz4qpXkldxQScmp7qeNWrXdCIHXzEYjb4uEO1u/Mm66+H+IGZft/mizF/aQ2Cwi/BFTJdbS2DV1CoIs6+K2b0UUDw+UdGMiul9eF4m7EBeianEQXANTVAEYdOu4X6FDFtJ8+PLVZQHwqImsjAJz3SYjMLSWB1LVtiz9gKwDVq9DxgECHer18a2fpHChhieqyGJW5kmbdVXdLis/RZ3eBQKCplj6ywKg1xijphSoaadCvz2zqxY/pflGCHT1VuioUKL6T4i3Vazg5CdePlauv1+oVnsbU1dVh3z4/9bJa2J6EnF5mglAHPzSApAEVuRsC0bUBad3pafns0LrkwkhuvK4LnHEFBsgVWz1+NgsUyepRL98rIDxRRGL+nZ+COPzxIMMqAHivQ8edR9ChDPRSmwXEzVPhxDzyE3RNTaGLrI3UjulppD6dgejVBDFZZGprAfO96CoU0EWTIaFkIU3ouCeLji9TXcs4uhwHXTQwVp/1XC7oR9XakVT6RR/AqudKIowseuognK4VeTeoQk5NUKMO2P1+YIk68NaLs5+mFO0iMtPTwYRUVRW+eOdu1FQlZ91uU/pSWLqIAAD1+xxbMPTTm5G6pDaIFQUAp1AuWKan5X1XLQrkrRAVP6k+LwAAu9xFV7WS6UJOFzHFIjCTVUZN3Rh6rAupt2WA8eeCtqvtispkrSc6U/uHUlOVEkpqkiy9LyMoVECvtThbtlfVTVlPwAYEok+93v5kVV2DNsG9wCgUCvj4zZ/Eu//gXTKpi5+0JWZaiCUSiMViiNMy4aE2kUCsoaGU3CVmQG6TSCpJYSxYxaLcvrZWxjjGYgFHenIAACAASURBVIhRTK6lXDtBeRa0ElbZGaAqGU4SZJN3T014+cw0UKvd52IRKBaAOtU44ABZf3tDGatS7dlq5f7bcrL7P4aHcfZZZ+Occ84BXH9SLB4HkurEpD8mVdtA+RUSCYhEQoYveB7cqSm4QsBLJkvC07OLcGdm4Mbj8AxDilHHgZfNwrUsuAZKSYQEJbpSy0yRh0YiEf6eLBYB04TnefLYngfPceDl8/AsCy5Q+szL5+HFYn5SI3+ZXZTrmxY838Xac114xSJcy4LneZiZmcE9X7lz1mdsobEoxFwtdf40qNFjzNRistXVQTIJXRiRKwiltyZocE+dPw2e9VlFILDWqUkF1Pis2QaBajrtWk2g6hZEIEjWoX6hRRUgV+st6UIwFovu+CkxA50TCVHVVYqsXKrliwZgqthR74F6DmQR02MFKUZMXZeuuT4TS26rqpCKqtulJo2hdaPWI1cUPQkKtSuXk190dG/VOoH68dXkGGQ50K24NLOpW+pUiwIdSx20q7OxdG/1gZEQqDnjDAAILAoMzmpZhT//i09gzfnnl7tU0b2rqSmvE6m/m1FZaum91oUcWd/UbKj0vqvvMFmM9C8omqTSZ8bVuDwS91EDwEp9C/VXqlUaCCdfUJMD6Rki1XWpz1OyqZZlfaTzoL5EfdZV8UriUO1HaSJFz/I6NRW2atM+yZ1dTTRBk3iUjIYGBFR6Ru3fIgbG9aZ/jfS+4TSmWLQxPaUkjvJduv/kiksqbjP8019AqNc65Oae9XNrfQTpKx7GvvEMYNZj/IcDGMR6pNc/iEERWFvH72tHc4fMh4wr78XY7k40YRz96WZ0ijvRd/6N6NwKAGn0/eByDFzsZ08mjxUAsAHAxdAdS9G6TS7q+X4OXe+QNUXH798YHOOKf8bYPRvQVFsL/OdnpYvzth3o3rYF2DKIPlMeK71hEPueeAp422sxvu9fMegvG3R9F/n6X6DXuDAIXfjMtyG2rlUshTvQd+dP0HnjN2TbnxuQ1nHbxnjflWi+7mF/wzT6nn0AHUtlnz9yewNa/fPt2QF0b3HQ96s+dLy5BrJ+ZGvpmD3DHrooRwl5I6jjGrLo6f0hldRRRbLS9y2pX9jux1m/H/jSHV+QC2iMpPfvFCusT4xTCIzax0dNHNAEnjpmoL5YHaeRENcn1Sq5wephHtSuycnwd0wl916a+FAnE2gCvLYWay6+SC6j8ZB+rpU8VyYn5f/qd0SltuquwOS2HNcMEVHHomuoj53UyXZ13YmJ8vt4rC7OlADPT5a2b99+fOrTXUFYxCJhURQNJzfLkjjShRwJg9raINZIjVsDggGFPoiiF1rdr16rjIgSPdTB6bXNaLCjz5TpgyU1tkONk5uYKF9Xz9hITE2F4xVIyAHlA7Mpf5aeXnKaAVSzxdE55HJhERFVFJ2ureeFBQgNhHV3VhKuelwhiaOI2nmhmXvqlNUXl9y1qMaXGtOkXheyppE1TB3czsyUxxtQYhV15p8G0lFfCqqLi9p+/R7QAFu3EpCQU905qUPSYzZsG6irQ7XvUrhEj2E5jXnLm98MAKih2DR6X9RnR3expveC7hVNDuhZaqPis9R4SPV9n5qS97JO6b8cJ/ye035pQKVPHlG/RdlM1dII+pd3pVT9qhumulx9Ximphd63lJK2KOJIvy7qunoGVxKC6rNeLMp9qtZyskhH9Zn65BX1+XqfRf2QGitLVlTVdR2Qg5KIGCvL89jKrWHn88jMzLxiS2XJDUotvUOxiy4AnIc15wGDD30f4xiXpTS6L0O7ABDz44Qf60VzxyB6/uNliOIP0PPA1WjeOQLk8tLba8+/AR8TEM/1IY1BdF78W9yWzWKsPw1saUXvY/DLWwBAD/BBASHG0NcOdK/twUhtLfCzv5bHGPYgpr6Lnj03oPlvfx6aVOkuXgAxMwOxnZTRGqx5CzD48CMYr5vG0J5BYEc72l0AruybR3ovlDVfczmM3fUR4LMfQO8+mugBgC0YPbsfQgyjB4PovHtEvt9Pfw03XXc+hnO54LNb7sG44wD/80W0bpUZpoX4e7TsH5Q7q6kFMI7+ja3oTt+NscOHMda3Ht2tV6L/IKJrq5JLeVQcOLls6mVDACCZRJ3uyr7AyGa1hGDkXUP9iNqPqn0LjSV093nyulH7C+r39e99mlBSY4DVWF2Cxj26RVXtn1V0rxHyWtK/C9QkUXpb1e+oXC7wutLHaFGeK1HiSh0TqudF37OqkKPvQ13I6eKMzkFNQDZbuyYny/cbla2Y3Kl1F2d6DpQxViaTQX5iQn6+SFgUljlys3xt0+ujg4PJ/YwsG2r2MlovyvKkxUsAKM9iR9BDp8fCkHlatRBR+nK1DVEZ1GhwKER4IEdt0IO5owLPaQZITclPnYkahwIA09MyO9eSJRCOA+E48KamIBIJma0rm4XwhPxscgJePCH/z+XgOQ7EVAaiKglRKMATIvisWISIxyDiCZkFzHEgpqchLAteVRWE8GTGsVwOwnUgDBMiHpeZxzxPfkkCsOrqAr/uog3Tc2EtWQJzclL6TJsGrGwWZjwOa0k9TNuW/tO5HCwAZn09LCFgeh5M6gzUwbnqOqPXodItkGpiFdWyqsb4EGTp062PUcXhSYipx6J7RrXkaD8k3tXZNQrU911ianwXCh6ABqxYcSZe85oz5DVR3xf1vVChd5PcidTi7+oXclS5EDVJwmziilz9VKFB+436QlfbS8eslJChUt9CM666tZ0El+42qvctZFlX20aWatVSru+X+sLZ3iv1OpD1rdJ5qc8/CUFdkJPoVAc7tEwXiFEJMOi7o6YG9Ut4YkSl6LnhBbYtywL5JQmi8kg7jixPkLSscFyzEEBpuxja/rAH2D6AoYMtGN0NpL+yAngCgCG/C0f+vRtAF9rW1gLxi9C2A8D+32C8cIYcvWy4UtZYtM/0M8C2IVVdDbSsATAIOL7XjQkAPWi7AIDzGnT8aRc6B3oxtK8H+E43gJ1oe8cM4L4LbdsA/OIZjOO9oKiZnvel/Gdzyl/ioO2iLmDnv2Ho+XNl2y9bDvwMsn5kLIbUZoGBmSH0Vl8KJcLdv6gA8BG0vKkOQAtaNgD476cwnn8HmlZchYEZgfEHO2GQtdCTk5ojQ1sApNF+UROQz6Ptjy4DBmPyeaZs1l++QMbRXnylrB/5jAPUzYT7KFW0RCXqUpPOqC6fvldTMpGAnc0G3ggLjKya3VnP0KlmsNYnpKJEBPVtqncOEJ2hnNzEaeKCrjON3aK8dvQySRRSESWk1HWjwjfUvA80GVHJQ4RKaKjtJyGvTwBGuQ1HJZ8jgarX+9Un4KkNleqCqteQroseEwoEIl23FDpO+Ps8VMJLSZ4V5aXlZ82fdF1U6Um9FjCLQsxZ/kOdc0UQC0P+vMkkEKNBSVbWLKuuDjLZeQ6Q9QcP8USpuKhTLMKemoIDwLEs2LYDJ5eDk8vBjsXguH5xUceBUyjIH8OA6wm5D9uGk8/D8QRcIYL1CwUIISBMMxA8rgPPdSFM00+46cm0x64jxQ/8MgqekKmRXQ/CT4Ms9+FBuK5MrexvX0rH7Jdo8Dwh/6aUzML/XyjrUabP0wDDMGCVgmx9IegHBpulgGATlmHANExYsRjMmBWIRgBWPO6LS38/QsjfyUQpyNj0PFimCSuZDPZrGLBcB2ayyt+HH7TrCVjCg1lVFezbNGA6rmxHMgkrIQOALceBKURI4JqO4wcJJ2FVV8M0TTh+aYL62KJ4lU8Zb3nzm1Fw3aC/yGfh2Q686mp4/rsjfepz8AoFeMmqwNfen7zwEonAp76Qh1e0w8toXc+DF48r6xbksRJxOXniCXjFgvTL99Ome7S8UIAnPDnxoS63bbk+BDwYpdTpnufJFOkUpO55cqAXiyEIXBey5pxphAsSC0/2jyaC2AzhBYHjarxFaV2ZUMo0/dTrQsh07P47ZRim3J3nwYjHYcZicl0RpGk34zG5nmHAdGyYVgwGBbobJgzHln9XVcm066YJ03XlPv3n3DRNGABM24YZi8FIJuUy04DpCZi2LZdR+nchYBZtGIk4TFrXMGAWi/KzurogJbxpwvAniczqalmblClhq/XhSpNvAl/4whfwT//0j2XrNzQ04o7/uwuObcsYHVXgk/XUAAALWN6CNLoxeufvy5qkF58DfMvfkRjD6OMA0IvWKiUZD57EaP8lgV+RbcuYIQCI60nN/IlVmj+hgWWS+stxWRIEm9G6ZLOy4ahM0jPjC89qtZwNANjAm96MNHoxevc70Y316FvzeuAh+O/WOPqvbEbnANAzNA1RfTuMlC/ppqd9y9wfoGU5nSukRS8WA0Y+B6Nth0ykkvsChq5ahU5LzRa7Bi2vt4FMFkgoCSueeUq6l/7pW2H8qXIqTzwFrF4eHrDSZJM6gUODfvV+qd4sllVqg1soIDeTXbDuyORmqWYpFYYBmwRIPC7PR63PSgnz4nEk1BwH5DWhixs9yzlZxMgLgSYAyTtHTyyjX386lj75RN4N6rqU0VXP/qpn1qZjqa6R6iSbOrFI1kp9OQkhdfKLDBmqECPRpGYLruRaSWJSj2slA40efpLJlHu+0HlExaXStSI3e71MFV0rXQw7Dui/iWwOr8fiYVGMAClbz798/X40NDbALhRgF4uwHRe248iMRLYN2y7Ccdyj7I05Xkwa3Bmmn2HIKg24TMMIZSsq/QBy3VgsyEgEyAGeX6tHrmfIwWlocCnkC20gHCDsub57p4XSN3tpcKssE15Qx61swOrKAa+pHIvcQJWBsOc48CgOkwYOnivVdUzLAOU4FQbSEYNmqp1omco50HkpA3Q6r7K2yue9/vWLqds5+fzud7/DxOQUXn75MITrwXNsXwShNEHi+bXnhGGUJl4815UTKvCXCU9Orniub0kW8GgyxhdfpckUzysJutNt8uRUYvoCjMSg/D/IdmaScDRNmDEr3AcZBsxYPFjXNGEKEeqHXnr5Zez/759jzZrz5/tUFxb+YF/4g6y2Sy/FpZe+DwICBozQ76mcA3tmBmhsCAZLNNCzLL9MDoDlbWhvBzp3bAOwFS1nJzFKx8vUouXtAPb4WSNpJj2RAJKTcj2hJJJSoQyEVqzc/SqRUGqoNqHlLQDQjeHiFqT0AbuO6/piLgaser/M3LqlG0A3WloSGKVmjH4bAwNA+u6n0HVREvipvzybkdlsk0DoO8OD/F6wbYz8YAeAHgx/rR1NhWf9yRfVQvAzjP5mGqmzqoG4Yn1Z2hyuH0lWNt1NOcqSD5Rbesj1mYSNEm6Rn55GznXLr/sCIUdulmp8lOfh7+5+ECuXz/5d+ZplDVjbuiYQt7oXAIk23WPAdYNQExI2elwwEB17BwRWJj3jNWXipmtNCeH0cJ2onAN6RlUSQPp65LKpCybV+qYm7aEEXlGik9xzIxJMlfZJIVNR9YJVMRvlskltINdt1RWY2mpZYSGneoJQLggK9dFyIdQ2yvuaX2S1exeFmLN9v9Ubb7gOH760LchOqLoMTEyUm4wrFcCM8t2NCv5XAkbLYmEqBVaq2S+pXXpwKfnu6in1Mxm5z6PV1CE/XzWIk4Jj9bZG1cSJCtqlawCUu3fqNbco6FY/ryh3Agou1U3smUx5IpVCIXDb0LI2lgXdRgWyVroGExPlfuWVjjUxUf5sRF1DejbUYORK17BQCFwX1HWnfJcdtaOmYGC18/S84BzUdk3IsgTv+dBHwIR55zvXoLGhATd+bFP0s0rPj+pOEpWNEpDXWc82R/epsTH8XlA/VFUVWMYnJ6UQrKkpWd5EIQ8vMw2vrlZa8X2RKDIZadWrqpLWOuFBZHMyK1dtrRSjvmgUk5Pw4jHfHdoXktksBLmT0GDRdRQXT7VvmJGTDlXa7HrGD1yPK8/q9DQQj4WzndG6NTUw/EkaQwiY+by0slVXBeIql5NWt/r6QIzZjly3oQFm3N/eNGFmMnL7mppAcOXz0lqnXm+Kw9DiHUquoHqGw5kZ2Y/p7ktaP/TnN92Mt731LVGP1WlJnN4FPzZbJJOAAM4447UVtzl8YBw21WsFAlde05TZ/Aj7DF9MAdj+fqQAKdIcOWGW+nAP0NONoUf/F1Jv34vexg+g26+pCgHA8Uu41OoWOYrvUp/tbnx+8I8xcF2drJuIHrT9fhapafn30M92InWBn0Ck+3sQf7kGqNEGvJkZX4jGATSh5R0AdgPovgSpmmrZds8BXrtc1nx9ZgyI1fjHg3wXa2vD2d/V+rnV1Wj5vTSAn2J0tIDUC32yNuMG+XHq0p3Als0Y+Mnn0XHuC3791jSQmQRWXBKuH/nVNJo/BvQ9uwcd9NVZyf1fj4eifAQ0KKf3y898mXNd5AoFLFSy0/73sJqh0x+cv++iNRW3G/nZL4N/oqxvZDlSXS6LRcA+iP5rz0bngwCwE8PZv0TKcYDqx9GbWBuUrLj7cjTZdvn1VxNSqeNHinOjd7A0vphB/8Z6dKIPY/0b0UTugup31ORkuB8kEaWLsNlKJ2WzGLnjDLTuKL9W6f4xDFylhCdRvDK5U1Nb/+cOtI9eLycYfrgdxsXb0LM3i661fg3TjXehpe9T8npRbDgQ7bKpXhdVkKqlOdTEV/r5kkUOKM+C7FsQKalcrR6OscBZVGLu5cNHgpuiPoyGUR6zBITr3qjog3WgPNsb7VcXiLSuPiMVjwfFndXt9WxAQBCcqi5PJMoH+7QPva3xePl+KTOk3taamvDsA22vmrGJqIyItJ5eZ0/vOIAgqYi6LmWR090xKAudui6J6ahz0H2XqcCrfg2i6q3pyXCAIAWuPjsVVa6AMn2p95biMvX7FXUNabZTXzcqaQkldVDvjWlK0aA/c1FxVgwAIJOZRiNNrOhCDAjcRtTrnEiUCzkgXOqCiHovaB/+uoZhSNe+pUvLG1hbUz7pAACveY18Z9T9Oo5cpreLrM36eUW1i5I06esea0wAfVHqRLUhq7lf0RelHjMCBAWRCbJe63E48bjvnqf1F1FZaaPeQRqo6n1xVNIZAI7jlO/jNCXuWyzpGnrFIgREeZIJBcdxYBvK5CFdz6oqwKC4M5n0KXXJZqB3J9JvOtvfGNKTob4euKALY/f+DM0Xxv36c/dibHMKEGO+hUyEB2WAP7D0LXOlCUwA6Maag2/yH6E0+n5zq7T2rd2Csf5fojllyGOk78bYX66JjnGKKVZFAKkLtwDYgfTb3lY6JXgOgHfj+q9dge5rLoSxDUD6cqTxEPaNTwMJpT8gQST8tsZiaLr8L9CDNnS+tQGdSCO9ARjcPYpRIdB07v+L4e7NaL3ubBjXpdGzIw1s8QfBdWdH1I900XGmVoJAnUAFoi1FJOTIPc0wQomackUbuQVsucgWikgmlaRHlDcBgBAChh/Gov8OdpAtvyZk/VItbZTADlDSCW7G0MjNSKXiwKGDQckK147OWEwxYroFj+KI6bsnk1FKRfhupMKLjuUmN1Maq6qZxfXvsqhagmTVraryVUIPht1PI0X5HPQJaCHCCfDIyjj5DbSnuoH+6+W5r/4kxMxfAdWyDSM7m9G5ezuGv1IIYrFpv+o90GMV1aRwajZ3NVkfJb5SS5NR/V5yswXKMkHX+strq7XrtMBZmDZyjaL/shw5fFguiBrAVgrC1b+o9YeWiKqZomc0Uvehow/AKx0fiBZ4QPR5VcpSGLV9pZmEKJH6SlKu6gO+qHIH1KYokRvlV19pIBx1DaIGnPoM+2xUuob64Daqfg+h39sogVgJPaPnbMRi0c9R1DOnZ+RkSmQyGZS+mqPuU0ND9HWOetYqPT9Rou+VJAOoJMT1exqLRberUj8U9Uzozzqte6xU6lui2qC/76ZZPhNN6NcgSsgBQdkTfb/Her1psk2nQh/CYi4gHo+jqipZEslCCEAAv3p6rOJPLu+HPFAWRarxZ5oAmtDxdQ9i+pNIGQZw8WYIIeTMfa4BHXcdhhj4mEw+IgSaLv8qxOQkhG1D7O6Uy7P16Ng1CXH/tWiKxQCk0CUExF+dL4+5biuEEOi6AFIwfvIwhLcDXZv9WPLsveh4XZBRtemqAX95FuKfL5cJREwTuKBL7udc8tw5Gx33CwjRhVQ2C6y+BcLzZNud16BjVwbia3+MpkQCTVc/KPfpOBB3fgUDMzMYuOZMAH79x8JfIeW6gHgdOv6lAPHANWhyHMB5J7qmpmScvBjAAB1vehr46d+gtQfoGREQYgBtxUEAv4+Wt1CM0AVy28lJCNdFV6v/fqolWdT3nrxpVEsTlf2gzLtknVPKH+VyOeTyikVxgZHNZpEgLwT/GRTxuHxuf/Xr0s8Tv/qV/1v+7zgOXEpMpyfg0LNBkqsfxROaAHA50uuBfc+9DFRX++U20ki3A3B9T5DYS+jfaJQm+9rvO+j3T4fl8o396O82YDQ2wqj7KPof60e779VgfOmJ8Im6v8Vd1zbAaGiAYW2QmUt918LxhzfBiMflcf74qxj3J+BHdhowjF707pTH7/2xkKLLCNrU+8i05tqo1Vemfj//DPo7a2Bc+wD6/0+Nv/02jDgOUPdz9K64GoMABjuaYez8EfDTz8OorUXvfxoYv68drVsAYCtal3Ti/+66FkZsozyHbBZ49l/QvnQp2r9+KDhfPSkWWeBU653qBUDtJ3dVoHxyVxOzVf5nta4bTEItAhaVZe7wkYl5bgnDMIuBDGUCZZg5wGIuIB6Po1qZEKlKJvGXH72svE4hubKS+z6V9wDCxeKBoLxEIhGIi2w2qDdVGizmy8v2UCySnqmVBtdqAgiK+VFn98n9SvesyOfl9nr4QZSVhgqT0ySFmknbNMtrTVZVlWcttO1gkkKtbwtUsDZ6wLo/Q9+GnegkKyKAnke3I6WvF2V9060ylFlZD3UgkskgkQdZLvxzyOfzyFFm5wVINpeTljkq+WOaMms3gD179uAf//EfyrZZsmQJvviPX4VH2cHV8A29jq9a89hxpDsuldt4+0Po/tdHMX5tlSy3se2raP+vQQxaMm5LWqN6MFz8FFI/6oHR9ib0vtlFV6vfkN1fB345AfFn30T7iqvRmXoHhg8fxt9/63o0d7ai9/3+JIUL4MH9aHm6APHgz9BrtKLz5nvQtiuNpv1/i+aP7kHPow663jaE3qUfQPPfnBvUXUQ3cHEW4nAeaJhB/590YnBDH8bu78Bot4HW9/8N2sSO4LmCE9QaVd938nwbfBi4Q0BcfQ/az96Ez3/zBgxc/V50PdeHfWd2Anf9BgPtrwN+MVLaY9PG+zH8yxhae7ZiuPAZpA49gO/d3ImBoWfR8ZH6Uu3Gvov8nLIU8qMWsadnmN5NiodTM3eSOCdPLLXPUENd1HAJALVLl0ZP+C5QFoVljrJpHTlyZJ5bwjDMYiBkmWOYVwiLuYBEPF6arQYQtuao9ZooLjgWC2KuqFi8OoCipARqaAQNuFT3f1pPrRFI9c70BA4kOFTLCYkj1X2NYp707fP5oEiwXruQYmuj0qRbVhCvQ59Hzfrr6f/p2lCMkFqeRq3vBkghRnGw1hulZTCfh3j5ZYhiMbC+TU8H90UVclSHNioOXE8g4bqyDaYZjn0yzZD7sl0oIk/7WICYpoFkIhm4AFZV+d8HAldf/VH86NER/OhHI6Hf3/rWt+E4MtFVqP4l5VhQ3fqovAqVQ7Ed0BdO2x/uBHYPYujgqCxZsbwJfnpsACMY2gJg21qkCgXgXRejB8C+Z3zrkwvg8g+j7ffqgDPPwhoA+HQrUvX1aDrrncEJ5gvyeOk02loSAFK4/p4rgMFBDI2ZGPn+NgA70fb2GcB8D9q2A/j5KMZLO9iGtndoZQV2d6I5/RW03HYEwt0WCDkHALajtbERRiLhW9/Wo/8Zx09oBADvREuTAzQ2yRIho8/556NkBq6rkzHa6jUUAOBPfvjJkAYf/DbGazIYengPsKFdlh5Rk5uoEw+OE1gKaTKHQmCoNAS5oeq1RimmT53oEQJF32hkRbnrL2AWh5jzLXO2zV+wDMMcnUxmGqzmmLnCYi4gHo+jmgQKCQvVekYuaGpcsFrYXR1AUZ1A1fWcXPjUpGZUI1CNw6F06FHu+HodLTULHh1nZiaI0dRra1GadVV00fKo4skUr0yildybVSFH2TD19P9kbVTXJ4uaLuTIZUy1NkbVAlMLResWOSDsjhxVc4sshUBgKaTt1XqtdHzPQ64QEYe7QKhfsgTJRDxUx4zcg7PZXPAzkwv979gOXPreUOsQq4lhSMhRlkTPUyyaMWDFWUhjEKNf+R66cRnaLzwriLM8OCpj6LZdBGPJEhj170M3gMEnR4GiLcVczM8nQEl8/n/23j86juO68/32j5nBb5CWFQMxGAGJpDzvi54oylE4SGRSyCq2pKxEAwtGHPhFpCkncZiYlKzdnBwMKZAENtmYR4KSVXYjiyGUBKBMGKDijV/iaENRUgJAWRuCo/esmKQNyoQEyHYogPg1P7q73h/VNV3d0zMYgBgOBryfc+bMoKe6urqnq1HfurfuDZa674mk3TcU2AIRqd8EABCadtJtVHMXzMYnAfSP2wF6AED+/WsQebyT73t6L2o3boTy8Itc+CUStpjrwJBIdxWPg83+JSI/yfjaNwVAawMa5ueBoDQRwhgXuX7nELdFtgakLo7xYZ438aV3Mf7D13nOxE83cddjkTLBm1pA5EsVaR3E+nbZCg+kP4cyRXRdWEBscQHFSFGIObFmjiAINxT+3p/Z2VmQmiNWCok5h0DQtswJlyY5+IGIOCe7oAkB4g1KJrs7ibIiYbwsxMQ6OznwkLB+iVl3GeHuJwbcIlGzvD5eWJ28gbuElc0bkt1vAAmkW2nEeh3TTCXUBsAFnxBXMmJwKQKWAU4uMm9+MDnnlmiD3F4xOJUjIMsDZtmNUj6+cDGVrU+Li25LobiupuleTyfcVjV1Ta+Zq6ysRFC4ttrnb4j2sAAAIABJREFUaWs5LC7GsLgYw4LPu2EYPM+kEHLeGAtCuItATaqaipLJNYnKLUytQPTJgwA2o+FWaYLgJ2/i1rboP4AtLqYiHrPf/3lgfoEvfFI1e42XLeY0j6tf0t4u51lMJmHnbgK0j9oRYtsxlEw6x2Dt3NoWBwDdfb9//Pe4pTf2KjoBoL8N+/5qwrZ02eXFsUQQEeGGCwBJ2/pVIfXNxUVHzIlzEOMVZrtYi1OzXVlrPtGMZnTgzIlxDKIZLb/4E85EjWxxFzni5D4EpLtYe1MdiLKJRHrftN23Y7nGYlhjFIWYS5KYIwhfEmvUzaXQJBIJknLEiqF8pQ6BQABlJSVOSHY5SbBX3MgWNVk0yevBUoFQ4AyYhRAzDEdYiBl24SrldVcEnCTB8sBsbs5ZzzfSxd3CQiEo1dXo+rY02PRbCyVv9wo8r5XKbudwVymUyqcxLK8lEtEJ5aA/Yo2RCECmqs7A0hvJUKzJ84Zf9+bcEsmXvUJO3u5dKyjXKQeQkEW2KCtb+mTLpqJiMbZ2o1lWVlYi5BnEs1m+Pmrsu5cw9q+X8O3vXsLYd+13++/LV+Z5XmPhNlte7g4MI/KXMcavYWpyIiSlm6hBw8/aHw9/kgf5AeyQ+reh6SCAztcwHAql7s+uV2Z5HSp47sT5eSDoEXGW5LJYVsqP19+G4/8YB7Rv4vievwZaW9H0EwmE724H0IUz39QBDKNLUaAcHbZz1AE8tYa4MEPoCgSgPD0GhD6B9mFupdtSY/d1UVQkkAecqNsAtyYy5u6Dhi0wSzyW25iw/spikjn5H2/+JBfCh6LAf2xGU7Ut5ETdYqJGjmYppxmS3b5jsfQcgXK/kC3Ywp26tBQxIUBFFOkioShW94k1cwRBuCExl4UiehATawuyzDkEAFSVlaWn8pDCeQNwLEne6L0igbJ3PZg3JL5wWQSc1DWAY7nyDsCE4PEKllS+rjfQFY6i+fnvYuDXNPR99ma0hbvQxNoRlt0wvWk05ryR/OC4l4ooeiJCJ4DwoQTYUY/lrLzc7dYlBpdC5CqKk/fLa/0T1i859Yxol5xWSaQa8O4vQujLOdaEOPNaKcT10nW3QPS6l8pus/Zva67hCY+qykr3hMzsLGAxPBp5ANw+Z08SLC4494uYOBCWNlfUxpiTdklE+ZTD33vWWYa3RYHOTifdBgBYPBVM+Pe+h963fwaN6mEAQPPz30V7Y5C7LDIAhh3Ao8zThwxbzAVLAG2el/30IeDZSihNAHAUQy8+jJqZGeCX2jHZ97aTbqO1F5OP/1+8vd4gyrM/h/Z/PY7R/+OXodjeloj+A9rvkgQTomgMRN37HRkC+7062zXUE1nbsEV/w6/w3IeRWihfPYHJzwtXUH6vhe/tBA5F0bjhIDqHLLSHy9H06WagfxDN992FGq+Lr7yuVFGcgCdydHPRL7xCzq9fiPJi7WMwiJh4Bgl36uVEfi8krAgYeeOf2V3hu9lv/fYXCt0UglhT/PjHP2Z3he8udDPWHHeF72Z/+j+eK3QziCLkt377C+wv/6qv0M1YM3z5+T9n//W/fsm98coVxmZmnL8Ng/995QpjpukuOzfH2PQ0Y4mEs21+nrF/+zd32fl5XodcbnGRsQ8+cG9jjLFkkrHLlxmLxZxt8TgvG4/zvy/+JWsGGHY8zyYNwylnWXZb/xfr5ENiBoB1Dtnb3z7OmgHWfKST79/yx+zZh8DQ0sMmGWMskWBDB8GAJ9nQwgIbOgIGdLIh0abzJ/h+ot5/Mvj5z86yyd5Pp7bjoefYpNx+xvj5zMwwtrDg094r6ecvl7Pbxi5f5tfNW6e8TVzb2Vl+3cXvEI/z/efm/MtZFmOM95FP3f8gW6tMvPsua2ndxf8Q95/d9hRzc/x+EfeGZfHzlLcxxq/J/Dx/n5vj5WIx/nt4r6m4ft77dWGB1zE359Rtmqn7InX8mRn+8rZ1YYFvF/c2Y+42JZN828yMU5/M7Cxvl7dvzs66+7Go13td5ub4+cr3hWHwcvI96LeNMX6dLl92t1+0d2bG1a7JvmYGPMh63/Zch4UFXrc4V9PkzxBvHxJ1yhhGer9gjNc1M+P8royxb785xsdU8rkWAevAzXIqlZtjKkupFBN9rnwaitKF4aX3yompky1QlBaeJ8Nm+Kht3rZN3V0jq3QwggCQIKt1ZnIyzC3z+ZGplpMtds6gKc829/OgWBg+mqndq3O9Ukz0oeVoliew/byWr+u1gCxzbqqqpXDgwqImuz7JiYu97kveNAKxWHryZBG5Uo58KYIceHOjifVssuVKBEcRLoSWBSzYM+wvPYpa/Q+d//Pz8wDeR9/ef49oay8mGcNkXzOijTvQ9y4Dynmdg2814FnDAHuuDc3NO4CBCYybJhB/HWeOAjh0D8LyrP38PKB9C1237AH6JsEYw9BhIPqLhzGsKMC/dKO27TQ6/8kAu/wNdP71b6D2j0ad/YWlTraSiesNOBY5xpx1inI5EQRCdnGVQ7XLVgoRFVTk4lJVZ11iMOi2tiaT6YElYKGqotzt+reGqKqsxMyVK243XNlyND/vrP+ULcCGke6uJ9yGk3ZeQrH20+tKLCw/3oioIuCNZaXn7ZPX5Amrk597bjLJf285wJBI6i5yHMsJvWXEby1bGuXzld0jRZ+Tr4GwqstWYXEPyveqvFbVm8B8cTHdWi27Latq6llfGxlE8/NfQuTWCvdazXjcvSZODkQkH0t+Nol2eYMhAY7rt3hu2SlGDLEGt1gscjZFIeay/2Ot4aF6T0VQs1RFI11QNrWlHrSMMQwdiaIxXwOuiT4cOwR03hsGEEbTESD61CoNgggC5GaZDVaAVXODkeOrNjlUKJxkrvlmGF2b2jCYrUhdBAMiofQ1hMScm4QIunDlCh8AyuG8xQBKTisAOOJEXqMlIkR6ozN6XQBFmHF5AAs4gkMeRIpBmTy4jsWAj+7Es3+5w94xikZFQUvPOK/7gzecaHkAau78VTTjaxj/wBlANu+4BzX2gLGmqRXNiOLMazHgW68hCqDzvm3yFeL7fecNRNGMFjs3VvjxWbDpLyJcXo7hfzgI4Cia/t0sEPxFNB2BEy7eK64EcpRLObiKlPMNgDsXnBjICtdOr9urWJcojiXcC8WAVwzYhRASQk6OXmqYqJLF+BqjsrISV4SYkwP2AO5APt7chfJ9KQJtaJoj5MT+3msqAqb4rdEyTad/iDV3syIJvX2/xWLpEUYBR1zJfSORcNbticijQux4hZwcyEfuR2KNmCxy5bLe9CBe4SqvKZSvq3ftnBzERz6+EJLyPVQXwcDCAtjlyxjY/TPuFAQLC07kSoC3U143J+r0ul2Lst7UHJbltFdMZoiopGKCYo3e25koitYKy5yqKj7femeK7cWe9suZ0Z1C31NRoLUXz0oDg/BBBsYGEKmzN3gsd6n9xQzx0S7+vX284aOibAuOX3C3bPhEGwbRiaat9rHu7eQLVsk6R6wSqUEWsQykZ8TO4zxcs4wImuCy3KdbpHjf91r2o2jMZGnK9GxJLVDv48cQx5Xa4bJM+bYvnaUsg86zSzqvkS7URgYBDKJtk/AkyHa90q9L2nE9583rnELfzka+nuNQI9/f7xnrssw5x+o76n/+8vO462jxWkbXGnOzc87aNTnnmhiEegN4CEuZnAZACDR5YCeEhTxYlC1MfpYnOWCKWEsmB0cRA+hQCDWfOQ12qRfNdhWDe/ajb7oCmHwHgwAGI7X8fvnZz2IQwOg7P3KOF5MGjHVNaGkGomfewPD/OgzgaOr/OpIAwK/L1LhkaZudlaw/P3LCxW/cCKWigk+Y9I9jXFwr2UIAuAWGvM4QSB+0i8Gt2O5ndfC7XmL77Kx7wCunkJCtrYaRsihVycmb1xpivbTXqitEjFewxOPusiIwjK7zaymugRx8w3tN5UBAgCPQhWDwCjkhOkQf8E6GiP4iC0Q5hQTgpEYQayflIDhywnpvKo5YzF1eTg8iW7vj8XQhJ9+X3uA6fvkYS0vTBa5XSAL8GopccnLCdjGpI+oQx5f7gGk6+SO9EV29ljpRhxxBljHX2rmyIrPKAUUj5vgsaUDulBkYPtqIKDoxZLtODEb28X/mE2dcM3H+TKHv8TZsGRZWOzj72wy+1YBnmW0JHOlC4yGguW8SjD2LhrcGXXWNvwXgSJOTfHFrE08QOU62OWJ1IDfLLGQIgMKfEc3ovcTAnmrAaL/05UQfWsJRu09Porc1isadfZhCjb0w287VI5K/yv0bzWhuBXDomI+AWPrZgkPjaDjFwIY7AUTR+FQDJr1lM7ZvmdjPrs5hxge7/W3Yd3IK2NqOyb5mwL4+7VuXuF5Lws970HZnGzoCRMNdGEYNIqeGeBjsI0MuzwrXM9avyv4BYI/dbkRxTAjdrM9j4mqYnZlxZr1li5rIz+Z1g5yfdw/A/CwXQpx50w2Iwa48ky5cuAC3kBMRMsXgWgzI5LDldREMxOOY/PJ/APA/MT6lA3UNaAbQ/MI7YJcvgyUSYH4WYBHwJPEhNP3qg0DnMzj2rwCO/LId5j1ui7kAoKqoadgCYBDj35dErqbBiXB40MnXxRhY8vcQFlayYNBtjRApBMT19nOLA7K7vXpd62Q3ODmiqOyeJ1v05HLJpBP9U9W4ZW6t4pfAXQTM8eYr80sWL1wjhdujqjpJ2TNdU/l+FddQiGZZjItrrSiOEJTvV8DdX+TciSIQi3xuQkh6cy/OzKQLzGQyPSekbJWVrd3z8+n7i+A8shumEFxy0CLZFdjr3iuCkHijrwpXUNkyeuUKr0O0QQhMv9/AG8xI/N7eiQ8/y6xwRy4pATQdN9xwA4qNoohmaRh8wJqLmONE0agAQ2wAbJe9KafZWe6yyWeS/d1/ZDE4/HIUQCeesP8B8MGeKDmO8X4At6XXMXhhHFjaKZQgloTcLDOTQcrZIuwJ2xrPcwKJvj71+gAG0Yzeu6U+HeECLnx3C5rRhjMj7QjjDHe1ujfsqr3l8V6gvw1tJ4YxebP8zdLPlpQwtAeaEM+am5tTRbK1z/tEqdklPf8yEA0rwDDDAItkKJH9eonzkvf2PW5/G2p3ApOnGNjB7G3KPuEGAFvQUAcADdgCIGo/T/nz2HFxcz+PiRXDGGavXHEPfsRgT3ahFNvFgF8ehIoBqzzY8rNyeKPVyWVN0+3eKdwAq6qcXG8ifHxJCaZOtqA2MojOfzLQ/rF5IKACaOb3Tl0TWv4j0Db4DUzt/L+Brz6M2gjQe2kAkTl7rV2JZOWKx1ETfgjN2IvBrwKdXwxLlhMgNZSyJ2yjf/cq2sNNmBL1nvtLRO5uB3AUZ0aOILx1GF1KI6LtL4P957vcA37v+j/AGZjK5y+uVya3V697oSz6vPnwqqsdcSHcCL1rt+TtAKrXsJj7/vhFKIqCX2j8RKGbQhQhuWuNtUNRiLnlWObCe3rRfKgNg4iiUeFia0gkS1wS+wFrz0I/+3oLajONcZZiYhyjmb57axxTCJOcI64aZjHoelF042vPCpbMjV/gMqVtk4I2efsEELaTwba9PIwmLuUcVytBXQTP9g1gMNKIfa3N0her82zJ3r5lVLR1L3pbo2jr54IuCm6la/eez1VTg8jjnWjrj3JBp7TxMNm5rHHORGsDGjJ+KYQesWooCoLyTL4szrxukN5w/yIXnaa5Z8jlhNSyNcqbyw5wBIe8vkYEhZDLetwKa3YNYOi8gsZf1CGCqncOMz4pYd6IyHPfwPiHPona0t9wvrthEZgxU+ftClX/M/fyiYz+TjT9vAnM2pYH+fEbuwPtb/0ZRm/7FJQ/sI/5WgyRG+aBhg53uPhPH8fkf/p5t5CTg7vIrnUi3YF8XUTOLG8gGW9gD3G9RWoFb1lvLjmvwAb4b6goThoJAFVVHgvhNeR73/seent78YUvfAEbfNw9f7qhHsFgED1//mX8dN1H+T1UVua2Es3MuFNrAM76rLIyd1qImZn0MPUiR2BVFUzGYBgGkokEjA8+gKEoMPQADNPk22dmYCSTMEIhGKYJy7LAYjFuES4tBVMUx1o7Pw+mKECohP8NBhaLgyUTYIEAmK7z7YYBNr/A91dVZ//FBf4eKuH7MgaWNIDYIpgeAAvottGR8cTlYGDBkLN/PA5mmmAl0jbTbq+qggUCgNgei/H3YBCKokBVVaiWCdViUMvK+N+qClVRoCbiUHUdamkpVFWFoqpQDYO/ysqgBoJO2XiMl5XriMX4e3l5aptiGlDjcahVVVD1AFTVbsP8PNRgEGqZU1ZdXIRqWVCrq6DqOj++okCdnYVaUpKq95+GhvHiV76apzs3fxTFKDBpW+aCwRzUcl3EnmWeQt/OWrT1R9F4tAnsoD0QO30GU7syDCRG7Nn2Yb6GLjfXpVH/gVQdnzX2nYG/rYGEHLFqBEjM+ZI1AEqGCZUG2wrWe0laR5vCdrWMHMOxVnhcLKVSu55AZ2QQ0f5BQKzWWdGzJZ3s7VsOjkVNWDCidg4uX6F0NRNQW9vBWDtSgra/DftONmFgCavhysjwPCauigqvEAP8I8Z5B8fCZVIeBMsJqWVrlJ9gEetjvGXFgFuOkCkChUgiJvz4LNgByyVCHLeyX0Q7Y2iX27WwCNy6GwPsc+56NQ0IbHKs0DMzKRe68EHb2iza1dCGAcYFIgyDCyH7vFJW6/l5/4AbmXLc+a178ubMEmuvvOsX5Rx5ssuk2F9cQ7GOyJvPT1j0hMspv4ioCgb4d143tmvApUuX8OSTT+LJJ5/E7t278fTTT6eJug99aCPee+89/PRPbUpft+UXwANwrrE3QqL3NwEcV0VVhQZA0zSEYjHghhvS652dTe8v09Pu6y/wu6aXL/P9vWWFi6hA3ENeC65YE+Z1xfS2C+C/tQiuIkgmHTdIGdN0lwN4OcBtsb/CE7bDa82dmUkPjuInsgF+veTfWIhsb3AXv/NKJIBgwLHiCxhLuw8WF2MIeZOdFwFFMQo0crbM2QIOfOY38lQvBvrbgJsbkJohDouBBB+WDB9V0Hio2R4ccfem0fEpYOs4jkekwZgPIuHhwOtTiOwCzpyWyzegoRW+g6DmmzPPKxPEctGL0CWgcPCosjg0gDMTEUTA19KilX9bY7tSij4tP09qpO8H+4HOxzPZ+8PY29eMaESaylnmsyUTS7VPhos0f+Hn+m7Xs+g9PYg2+Fm8sl8v7zO3Ju24toA7MgR2MIz24U5Ew1FsaagB0kPPXBXu5/HKrzGRTmWlPbicneUDuOpqxONxLCws8NcPf4T5WAxWSA50YIuDsjJAEQE0kinBwTQNhmHASBowrlyBCcDQNRgGt2YYsRjMxUUYug7DsmCYJkw5+bYcrEKE3/cOQEWCZ2+odyB9jZJICyDqNU1eh6deNZmEqqrQysqgaRpUTYUGBVoyATVUAq2kBJqmQlU1aPEYtGAQamkZNE3l5RMJaJYFrbICWjAEXdegqxq0WAx6MAitqhL6lVlougZ9cRG6rkMLBKHH49A0HTpYeoRCeY2SNym4CEwhBJqwrMqDaBG50RtEQ7I+ua6haaKqvKIgQg4Atm/fjm3btmHDhg145ZVXsGnTJjzxxBN48sknU2U2btiAd999L31NJpAuFGS8gifbOXonUl2CV8IrmBQF2LjRv6zf8T70If+y3vPStPTfShzPe15+7QL8ozgGAulCUhzPi1dYAekiTuB3vTJdQ68FVlX5Nu+5AunnFQzy38p7bj6CfnFxAWWlZSg2ikLMiWiWS4s5vqh+XGnk7jwAd+kRi5q3toNdakDLplooKRenZmmwE8ETR9rQGOHfN7fyTPTjEwD8Znq3tmOybxS1kVookWZ0HpHXaNSg4TYAh6T1LGJ2voHscsTqUYz+3VfL3/7t3+K+++7LXihDAJTwwUn0vlXLXRVbO9EprwGri2BgeBxKWDwjOjHEJKFku1oO9vu4WErUCIEkngd1y3y2ZGKp9uVIza4BDF1Q0Jhy12xG7yW7Hlswtm1SMNA3iYFs12tJwmi/1IvRTY1QRLqDI0O2O6cQio1QDnVi6NJVTnJtbeepZuTn8QpSLGhaUcQFu2aMvPHP+MGlCXx77NuYn5/HwmIM8wsLS+R/zY3P7d2DEICSkhBKqqsR0nVUV1WhPBREuaKg4sYPo3zDBpSXl+Nfv3sOw2dfRaC0FMHycgQCAQSCAQQNA4FgCHFFweLiIhYXFzE0NIzRsW9f/clfhyiKgmAwiEAggKCuIRAIIhgKOddb1fCdc+fwsx/7GH4FwKuvvpra9+zZs6vShg0bNmDz5s1p22+//faUBe7AgQPYs2cPnnnmGXR3d+O5557DSy+9hKeffhrbt29HSUkpLn/wwaq0p6jwEzfrleWca46pBhYWFosymqXCWIYRzxri+eMn8OXjJ7Dr13biwP7fKXRzcmeiDy2bBtBii8Wpky2oPd1ydetFCEJidHQMHUc78bXTxefjfTXccMMNsCwLBw4cwP79+9NcbH6h8RP4TNsu/O6+zxeohcQ1Z6QLSjiaWvvHvS6Ws2aa89gX/zP+z3/3MTy6d0/emlpMPH/8BCbefRf33HUXYpaFmGEgFothcXERsStXEE8kkGBAPBFHPJ5AIh5HfGEecdNCMplEIplEMpFAIhZHwkgiaRhIJJJIJhPLisaraRp0XUdA16EHdOi6Dl3ToWsqAsEgdD3AtwV4GVgWoEqWA8uU3MdkFzSLr69VVduipkJjjK+zCQa5NU18ZzGoAR2arnPLm8bX/Wi6DjUU4uVU21qXTEItK4OmqlA1DZqqQovHoYZC0EpKeBlRRyIJrbwsVaemaVAXFqBVVvK6NQ2aqtlrFTWgpNR9XguLbouOZfBtQU+evkSCW0fL5MiLdiS/Co81I2Hn3JKPleDrGve1H8L5734H//bjH7l2qa+vxyOPPJLzb3rx4kW88847advHxsYwPT295P66rmPz5s147LHHEIlE0NPTgz179uChhx5C7Udvwi23/AweP/CFnNtDEM8fP4GZK1fwxcf2F7opy6IoLHOCorNAiNn4E8OIHASORwbROTxAQo5YVYquX6wCv/u7v4vDhw/jxIkTePrpp3H48GHs3+95+K75aSpiVRFBXUSACQCdw8sTcsD12Z+Wou6jH8W2T/1K7juItSgyluU/O+5X1m8tzmrgd6xiQiRw9uJ3bb3rqVaxDTd++MNouue3ENBUTE9PY2xsDAAwPT2Nw4cPL6u6bdu2+W7zs8xt37499Xlubg67du3Cl7/8ZWzevBlnz57F4cOHcfvtt6OjowN/9uUTWBTBawgiR2KxeFFa5opLzOUSAGWNET7ohGFoX/tGUKLIsCzzmgw+ZVeafHPTTTehvr4+a5kDBw6gu7sbf/zHf4wvfelL+IM/+AN0d3ejo6MjNTOcNQAKsQ5JT5OwEkjMpTMrklXnip9gyuTm5Fc2H0Iu07GKiUzBrvyubb4GpLqOD3/4BtTVbcLnf/Nz+TlGDnR0dODOO+/E2NgYHnvsMbz55ps4cOAAOjo6UmVIzBHLJRaP4cMf/nChm7FsikvM0T9ZgnCRNAxMXJrAPffck1P51VrT4MU7u5pP8SdmZysrK7F37148/PDDeP3119HT04P9+/ejo6MD1R+6MW/HJ9Y39H/Gjaqq+OCDpV3eiOuHiooKTBfwnpiensYzzzyD6elpXLx4ER0dHTh9+nSau/0CiTlimZBl7hoQCBRVcwki7xiGgbq6j+K3fmNvTuVFtC/ZXaUY8FtD8eijj+KBBx7An/zJn+Cll17CCy+8gJmZGXR0dODkqcGMAVAIIhtBEnMuysrK8EEO65eI64dC3xMXL17EQw89hN27d2f9X7a4ELuGrSLWA/F4DKVlJObyCs2YEoQbwzBQXV1ddOJsuXjXT/T09ODHP/4xPvaxj6GhoQGMMRw4cCA1O3vy1CA5WRIrgv7PuCkrK0ulByIIgN8Tk5MrzZZ59WzevBk9PT1LlguFii9fGFFYitUyV1QxmOmfLEG4MQzjuswz193djZmZGZw+fRonTpzAxYsXceDAAbebDak5YgUU49rsfFJWVnw5l4j8UlYklouQX2611WSkC4qioGskl8JT6NvZheElyw2jS1GgpL1a0Ddx1S1eVvumTrZA2dmHKUyhb6eClpOFE/DXilgsVpR55kjMEUQRYxgGD8N9nbFhwwacOHECZ8+ezWiVpAAoxEqg/zNuimXgTlw7ikXg513MLYPho7VO3tFcODIExpj0EvmQ80N6+4ZxPDKI5k83oQY1aPp0MwYjx3MQo8WNYZhFOaFXXGJOL74LTBD5hFvmrj8xd/bsWezevbvQzSDWISTm3KylATGxNigpKSl0E3LC181yog8timRl8ljXho8qUJQudB11rGKy5W3qZIuz/WVv5R6r2tHh1D6NhwAgisaUhc1dNjfrXnp7M50Pf0mWtlS5Pue4Wdo3dfIYomhGy908mVbN3S1oRhTHrgPrXCKRKHQTlk1xiTn6J0sQLpKGQZMcPui6DkYBUIgVwCyr0E1YU1h0PQgPwWBxrEVb+UREFLiXgbFJ9LYC0bAtiib6sC8ymLKaNaUyWnKGjzZitG8SjDFM9jUDhxrRNQLU7BrA0BEA6MQQG0Ckbgp9OxsRbe3FpF02Gs7RjXJrEzoBjI5zUTX1+gAGheia6ENLOIrmvkm77VE07uyDLL8GTwN7U+07hr4Jv/YB4xcGgdYWNAlrYF0TWlqBwQvjK7ymxQOJuTxDYo4g3BhJA/p16Ga5FLqepzxVxLrHMM1CN2FNYV2T68HX5CiegWdGRrpyW79jWyPS1x/lsnbpKpjoQ8tR+QjcCtM1Attykufj55lgkbihhYIrFXOdaNoKADWIPN4JIIozI45w6t0TBgCE7+107RU+yDCwaxxdioLayGDm6ifOYKAftgujsHoNYlwWc4ca3fdsqm+E0XQEGDx9BlOYwpn/PvrOAAAgAElEQVTTjuhyCTvbNRL943DJr9sa+DEbtgDeY6aYwvhbGdr+1nhufbSIicdJzOUVSk1AEG4Mw6B+4YOu6RQAhVgRhkGRG2XMtWaZs60Py6HZtpY4r3aE89Q8YBhdm9ogD+W5y5otELY2obPI3dWCgbVvmUskE9c4mqU9IaE0AsMMbLgzc9GJcQwCGIzUcqFm3y/C2gYgfc3cqQhq7K/C93YC/QM4M+IWheMXBgEMom0TF4BcUI66BFvzzQ05nMs4xjOt7/OKw3UIWebyDFnmCMKNYRjQyc0yDU3XKQAKsSJMgyxzMtncLMX6Invljdu6JtboHO1yrGMuy5u0Zmjn8bQBorw2SZHXGdkD38FIbWrNT8Z1QllJtwa6z8fTBp9yfanvRfts9zmAW1Z29mHKDiSBI022gLQtK0UcTKIY3CwTiQTKy8vzUHMGa5awtvVNon3rElXUNaAZ6ZMMA7tqltjRZmsTOjGIgadkSxzQcHMzgGb0XrrawCkNaGjN8FVrA3KRg8UMibk8odluZJTMlSDcXK/RLJeCXE+JlWKYZJmTudo1c4NvNeBZZlsq+tuwz7ZIDR9tRFQMPJ9qwKhsCZjow77IFgwxBsaG0IlBtD3ehymE0X6p1xkIHwzntE7IH68b2jDOHIIjuka6UBsZROew3Yb+NtS6XCejGG8YcNp3YhhADSKnhtAJcMvKqQhqJsYxCqDzXscWyN3zRjO4uK19isHNMplIoKKyIv2LugZsgbP2a/hlPyuvsJxOoe+pKITbJXeHBKIvD6fv66pX7JcBsf7s9BlMQUwaLCf1gD0h0O9e1ybcNQdet9u+HNdlFzVouA3+VjjbTXM9Eycxlx90ja9/IcscQbixLOu6jGa5FLquUQAUYkWQm6Ub07w6MSdcwLB1L3pTA1ghnJ7gVgN7cJuiLoIB1o6Gky1QlEZkc6rMZZ1Qyp3NE8VPROg7MwJg5AyicEQXH6iLtVN88OxeL9SMhjogZcXItJbIdqlLJ9N6pbVPcVjmkqis8BFzCGOvHZxEURScgZ87ZCdasA+KUou2/mb0XrLdcusiGBjuzLCvXG8t2tCMZjiuk1zAR9GoKOgasUV/fxtqbXfIzmGPBc27Zs4T8VKs10v1L6l9/H6vRVt/J4Yk98xsuNsnrHzShIOwPObkplncFKNlrihGgcIyR2KOINIhy1w6ZJkjVopBbpYuLKsA12OkC0o4CrT2YpI9izM7a9GWoShfJwS0bVJcZcYnkFoX19w36e/CZovItpeH7ciEQryJABBRNCqylJRF4hZbzGVnanw043ej41PA1uKzcxSHmEtkEHM8eiPb5fzdfrA9rUyDp0yKre1gzCkv7+utN9t+QBjtjCH9yJm2L1XfEtvrIhhgkczl0v5+Ap2RRi7m6mBPSnRiKFdX0CImHosVugnLhixzBFHk6NQv0tA1EnPEyjDJzdJFXlMTZLBmCatYLlaFq1snZFvyDh3DsbcgrWuz3czQabt6rjxwCo8a6M+WhuIcGBdLAJSKyspCN6OI4ZbG6FN9mLLdRpv79uYxcNDaYX5hodBNWDbFIebIMkcQGRGTHYQDWeaIlUKWOTfZolm6XLFsNywvqUAfI8fRloq8Z7st9g/gjM++rnrt/TJxteuExP6D/X7r2mwXTBGs5egKQpbYwS5ckQoBOG6aRD7I7GaZnfDBfEc7LR5qdg3YUTRrEDm1jAAtRYyma1ggMZcfNF1Y5miARhDE0lCeOWKl0Jo5N1aWNXM1u57gwT82KVAeH8cWnwh4zX0NOKMo3G3yyFBqQBg+OIneVv99XfWGR9HcCmcdnAgeEanloi2HdUJpa+bkYBOp9XrCxdJma7udzJmHm4+29mLyYC5DfFuoHmrkkTE9ATcAYXnMzU2TWBmJTAFQCCILlRUVmJ8vPjFXFOpIuEyRZY4giFwgyxyxUiiapZvsbpbe9T3tPmt9mjKsAeKz/c4qHnnfbOuGvPsh93VCudYnvsmwBip8kIEdzLy/+3ugoa8Z0dPjmEIYNfZ6vOvFZa1QmKa5IssccX1TWVGB93/4w0I3Y9kUhWVO12nNHEEQuaORmCNWCOWZc1OQACjrjJpdT6Czvw3HR2C7jXbiievAZa3QaLQEgVgmFZUVSCSShW7GsimKEY9GljmCIJYBBUAhVgq5WbrJtmYuKzlZxa4XuKWR045iz5oyOzdb6CYQRF6oKFJr7nVvmRs+6k3UaC909vOtv1pGuly5QniiSAUtJ52F0ctPHpkbw0cV7r+/WhVO9KHFbufUyZYVJqbMVK+SNb/KyriaBJoO/Dp6Xsupc6TL9XsThWZ17gvRl92v5fS3KfTtXMX+mQtZ7sV8PYeWRYH6immSJUom25o54vpkdpbEHLE+qSgvL3QTVkSRiDk+y77aSYCnTrag8ZC0YaIPLUojokeGUqGIJ/t4/pqrFxOZSUX7KiKGT7RhsLUFTXV2NDDhQrJKNPdNSr8BX4R+db8BX9fAckygmR05XLWd+DMXMTDRh5ZwtvS3RHEjh0efRG9rFI05Crrho7VZI/atOmv9Xlzr7buOsCwLwSB5xRAOs7NzhW4CQeSFigoSc3lD+D1nnDGVrTlHuzwhhO2Zd/v71EzvSBdqI4OAHTGra8QWKOjEkBSxqmbXABhjaN/qcyyXVU3M8Heha6dj0ZNn7LteznSGUTT6hjz2Wg3c4ZFTs+cnu6T2DEvnmz6QPHM0g7VrpMvfomCfb8vRLn7eO/swNdGHY4dEiGmkooHxfCQ+Z+GZ5V/urH/NrmfR66o/w28q2pr6TeTrlW6BcVnZXGIsQ/2+hNE+3AlIYtZtpRHnOYyuTW0YhB1ZzfUb5sEKTGRBsr7vPC4lAbbx7QuZ7p9MYq0Gkad60YwojnnuT+995UwqRdEo3y+5WKY91n4v7vtLtNX/XnT6QwuOX/CrJ0MfztrvljgXzzXpEmHgfdrnrUful+K36Dq6WpZ8QmBZFkpKSgrdDGINMTs7i5KSUKGbQRCrTnl5cbpZFsXCEmGZM00L6Z6WU+h73BZhrB3hkS4okrWNz3hL34Vr0dXA0L61HZN9o6iNAL2XBhCpG0ZXGFLSUD/4sbYMMwxs5QOIxsg+9N0tJSjtH0XDJQZ2CnygEhkEjgyBHQxj+KjiU2czmlsHMXjoGPr2DKBp2VdnEAN4FoztRd/OWrRFGrFlmIE91YeWTW1oPNoElhKnUeBeBnZwipcNd6GJtSNsz4I3901iYBfQt7MWjTsbMClZsQbfasAkYxgAgJEuDKIZvXeLb+3EqxEeOnr1l3XbCVwP8frHM/6mXFS2XbBbMXIGUYjcQW5BxgfQdh0T/FrtO9mEgV01We6ZDM2T8wjVncG+yBYMsQGEMYwupRFtj/eh6VQE7Zd6MbqpDeib5OG5J/oylqWl8flj+Ggjomjm/R59aNkEQIRFz9IX3Pf4MM4cQup54Sv37ZDkUTskecZnx64BDF1QnPsRU+jbaYdCPxUBTragNtyChku5JkJ2zmVfZNA+l3F0KY2p50HavTjShcZDcJ030Jzbceqy97vM58JFG/omwXbV8GtiP5PS2mf3j6j9LIVvvxTPt2VcI2JJTMtEKEQDd8LhyuwcqqurC92MJfnmt0aRTCaRTBr2exLJZAKJBP+cSCaRTCRW3etrLaEoCjRNS71UTcXM9AwqKipQUVFhb1ed71X335qmQVOvn0AyxWqZKw4xZ1vmfKNqiWSjQoRtbQJP9QnAM+AS342OTwFbVzJc5q56fDaZzxynYbseAsDU6wNc9OzhYip8bydwKN11qOXxXqC/DW0nhjF583Lb1IwWW1Q13AagX+TKsXPbuMqK72oQebwTbf1RnBlpR8P4gEuc+QmzlBUOwNT4aIa28CSvYc+A0xveOVO459zI/pvytp/B8MEw8HIUabmD+BngzOlB4MgTvA7XQv2rvGfqIhhgtuUi4nuHrKwssUqI3/cJWxjZOavsb1N91qcvhO9uQTPacGakHWHIgiUXcnh2COxnWnOf3efs445PAPCKuUwh2SUGI7VowSQGMoZ6F3mvnAh7TZ9uBiS3z+x9OEu/y3YuE2e4qL5b5B3LIsRGPNd76170tkbR9lQf9p4SfdevrxNXi2VaCIWChW4GsYaYnZ3Fxo0bCt2MrPz7X27Cf/+zLyMejzuvWBwx+/N6FnBEOqFQCCUlIYRCJSgJhRAqCaEkFEIgkP5su3PL5gK08OooCjG3pJslgOabG9I3ToxjFODJO+W1cRdWaj+yZ4fttTHPvt6C2tUI1lUXwbN9AxiMNGJfa46z4avI+AU+tGzbpKBN3j4BXyslL+/XzkH/AedqssRvWpMacDcBsihzMY7xfgC3Lb/+JRnp4slxW3sxyZ7FmZ21rmu64rJZMChgw6qRtS8IC9TLw2hCpomCTCzj2TExzsVepBaKXGa5k1B1ETxxpA2Dh2x3xYiwvOXBdp6p32U5lylkmhRKh08gNVOS5QJgWRZCQbLMEQ5zc3Oor7+p0M3IStfRjozfMcZsgZdAPBF3PtuCzzQNGKYJ0/MyDJ9tpgnTNGB6v7OstLKmybdZpgnTcm/zllstFFWBpqpQNRWayi1zQ/80hBtvvBG33fZzKUuc8+6Uc95VqJqWeudleFlV7Cv9zT9rnr/dxxAvza4v9berXqceTXXvp2qq/3ZR3nOc9U5xiDnJzTITg36DbdvNaVC45mQljKYjAA7x2WXf0mJ2eJi7O+UWZy03gVOz6wl0RgYR7c8klPJHw838eL1+blw+a7hE+XTyNdjiSVbR2oCGpX5TMeB+6hiakcly0oCGVgBviSSu8v7LuWds7AFrZ0NNysIxdCqCmiXukOWUzUYikVjxvtctfr89lugLKQvUMRxrxRIu2UhNDDTf3ACMHM/92WG77WIVhFfK2mVPHAwK107f0v6W9ZzI1O+yncvIFgDR3J6PDbmXJVYX0yLLHOFmdm4OGzasfTfLTCiKgpKSkut2Lej27duxsboCnUcyC16iuCgOMZfNMmcPIgZtEdZw8hgcR0aPQLMHNJ3D/uufwnt60XzIvc5s6mQLaiODfB95bdTWcRyPZBdefLZ6ENGXh9G+NWwP3jMRxt6+ZkRd7nbutWI1tphcOVEcO7mXr4l5yrEs1NTxWfWB16cQsdfLtKHXtWbOdV4ZB1ZbfMUcv4bOANn795KMHEdbP9A5zNuT/TcVA+5BDKITT/haTkSZAZyZiPC1O9J6nOXcM8AUv5atvdi7FcB4M1KD4gne7tR6LA9cOORWNhsk5paD+H3t3x62m7Z93YWFKVNfEN8P9gOdj2cX+6mASrtqgIllPDuEMDp9BlO77HVmmfpLtvvT9V07ho5E0XjI7qOeSRrhAi7O+8xpd/uW7sMZ+l22cxEu8fbz0VWn95p4ynqfCWlBbIhVw7IsBEMhjLzxz4jFYojFYlhcjGExFkNscRHWSvPQXWsUBaqiQFVVKKrq+1lVFSiKmuNnex9FheL7WYGiqlDgt1a+uJmbncOGIlgzR2Tm4sWLhW4CsYoUhZgTa+ZMvzVzdtS4gf42NCpR4EgnOjGYEj3hg5PofauWfwfuZiQGPWJg1rZJwUDfJAZ2RTDAGtCluF3snIESd1tqFC5Lrc1AfxbLW10EA8PjUMK8vs4jzmo+P2p2PYve04OuEOUpgZk6t2w1LEUntlyohaIAPIx6u7NmbHgcSli4QnViiGUJwuEStTVIrUFrbYGPs+uKGPS4ZcmD1Wy/KeCI6MEslpMaEXRCuNO19mLSFvBL1c+jDkq/QqskfHc9gc5Io+2m14zmVmCw3xbjYmAbqYVyuheTp7KUXca1SsRJzC0H8fu2bVLQ1tqJTmnN3JJ9QUwe9fu5WA563DNFQBOkXB4zPTuEmGpUbPF1agjjSiNqFV5b5zBbXvATABBBnsJK6pnROSza470XRUCoWiiRZnQeca+ZywX/fleDSMZzEYFYnOet8523fRG0syFAcZfNGJSIWDXqb/opfHXgJYyN/Uuhm1JwksmE7xqb643q6mrcdNNPFboZBEHYKKwIVoGOj1/Ew22/jr8ePIWaGu8wd8o9e25HJlwNFyUiM8NHFTRCuCJyyxZocHXNef74CVyaeBeHn6ScXDKf37cfN9/80/jiY/sL3RSiyPj8vi/gzi134NG9ewrdFGINcfbsWdx///147733sGHD2g7+QRDZ2L59O2ZmZvDmm28WuinEKlEUqwIdN0s/dw4emRH9bahVFCib2jDY2otnScjlFW4xPGbn0juGqHAzJK455GZJEASRXw4cOIBgMIju7u5CN4UgrpqxsbFCN4FYRYrCzVLTl4hmmUN4bmKVkcP5X1WqAeJqITFHEASRP7q7uzE9PY2xsTFs3rwZBw4cIOscQRBrhuKyzPmumSOI65eqqirEScwRBEHkhenpaRw+fBgdHR2or6/Hjh07cODAgUI3iyAIIkVRiDk9q5slQVy/VFVVIR6PF7oZBEEQ65Lu7m5UV1dj9+7dAICbbroJL7zwAkUDJAhizVAUYk7TuDeoRcmRCcJFdVUVYrFYoZux5tC0oni0EWuUYJAiFhI8fPszzzyDAwcO4Pd///dRV1eHb3zjG9i5cyc6OihHF0EQa4PiWDOXLc8cQVzHVFVXkpjzobS0tNBNIIqY6zWZMOHm7NmzKTfLhoYGmKaJH/zgB3j//fdx8eJFdHd309o5giAKTlFMX6cCoBRLclKCuEZUkWXOFxJzxNVQWkpijuBibtu2bThx4gR6enrwkY98BO+99x6efPJJ3HTTTXjppZcK3USCIIjisMzpZJkjCF+4myWtmfNSVkZijlg5ZJkjAKCnpyf1+cKFC5ifnwcA7N69O7WGjiAIotAUhZgjN0uC8Icsc/6UlZYhaSQL3YycMU0LpmnANE0YhgnTNGCYJkzD5NtMA6Zh8m3yZ8OEaZmwLAumKd4tWJbpebd4OdN5d+9jv1sWwFihL8eqEQgGURIKoaSkBKGSUOpzSSiEUEkJSkpCKAnx95D9DpBll0intLQUCwsLhW4GQRBEGkUj5n66oR6f3/eFQjdl3aEoClRVhaqq0DQVqqq5PmuqClWzv1e11GcFCvSAbm9XoWp2WZXvtx5hYDANeZDtfPYOtg0xCDf4AJ3lcYDc0FCft7qLlbKyUhw/cQpf+59fRyAQQDAQQCAYQCAQcP4OBBAIrH6gC34v8HvAMA1+Dxj8XjDse4Nv4/ePYRh5vT+I5fPoZ8nqQrghMUcQxFpFYUUyimCMwbKs1EvMOovZZDHTbFmm62/T3ub+24Jlms5nu7yY4Xbql44h129K7fDWbTp1MMZgMQYmXhYDY5Z7m73dYpbPNvG3851lyftaPtvsY6Rts4+Rtn35v8XFi+OYmZnB7bdvXv0f2oOqKlAUJSU6nc8KFMX+W1WgKv7fOfur7s/2fopi7+v72a5HFZ8VKCrfV9U0aBoXuJrGX6rrb5Vv8/2bf9bsz966vPWoUtm0OjQtdV0IN4ZhIJFI2K8kEkn+nkwkEE8kYCQNAEDSSMIwDCSTBgwjab8bfLv4nORlDI9IS1nRDEmkSYLNMAxY1rV5xE5NTWJiYgIf//jPZy33ox/9EN///vfxC7+wdUXH0cTkjn3vyZ99J4R8JoPEZzERpOsadE2HZr/ruvxZg2a/67oOTePv3lfAuy3g3qaqRbFEnFijLC4uorq6GgnK60kUOdu3b8err75Kk4jriKKwzAHcgiQGr0ThuHjxIhoaGlBdXY2+v3oB9fVkFSLWJmIQX1ZWVuim5B3RLwGg/yt9WftlOBzGhXNv49c/s4uSHxNEjpSWliKZTCIWi9GaSoIg1hQ0VUksi46ODmzbtg07duygPDsEsUbo6OjATTfdhEceeQTd3d0Zy/X09GBychJf+9rX0NHRgenp6WvYSoIofsjVkiCItUbRuFkShUfM/r/yyiuor69HQ0MDxsfHyTpHEAVkenoaGzduxIkTJ1BfX48dO3bg4sWLafmvpqencccdd+DJJ5/E7t27sX37dmzcuBGnT58uUMsJorhQFAWXLl1CXV1doZtCECuG3CzXH2SZI3Kmo6MDDz30ELZv3476+nrcddddiEajhW4WQVzX9PT04KabbkoJtI985CP40z/907Ry3d3dqK6uToVUv/POO/HSSy9hZGTkWjeZIIoWsswRBLHWIMsckRNi9n98fBx/8Rd/gZdffhnJZBJvvPEGWecIooDU19ejo6MDGzZswNNPP435+Xl897vfxaVLl1zWufr6evT09GBubg7Hjh1DeXk53n77bTz44INZXTMJguAoioI333wTmzfnP/gXQeQLssytP4omAApRWLq7u7Fhwwbcc889YIzBMAy8++67ALjFTk6uShDEtaGnpwfvvPMODh8+jLm5uVQqjLm5OXR0dKRE2ksvvYSZmRkcPnwYb7/9Nubm5sAYw6233ooXXniBxBxB5IhIHE4QBLFWIDdLIie6u7tx++2348SJE9i9ezceffRRvPLKK9i2bRteeOEFXLx4sdBNJIjrDhH4ZP/+/di3bx8++clP4mtf+xpuv/12PPPMM6l+2dPTg+rqajzyyCN48cUX8fGPfxxf//rXUV1djenpaZqMIYgcsSyr0E0gCIJwQZY5IifGxsZSrpRnz54FwE31Z8+edX1HEMS146WXXkq5fB0+fBg33HADtm/fjrGxMVe/7O7uzth//YKlEAThj67TsIkgiLUFWeaInJDFmjecOa0fIIjC4O17N9xwg+93cv8dGxtz7VNfX09ijiByJBAIFLoJBEEQLkjMEcvGOxgkCKLwTE9PQ9O0nMoRBLEySMwR64Hq6upCN4FYRUjMEQRBrAMuX76MUCiUU1myphPEyiA3S2I9QP8D1hck5giCINYBH3zwQc5ijtwqCWJlkGWOIIi1Bok5giCIdcDs7GzOYo4giJVBYo4giLUGiTmCIIh1QklJyZJlaM0rQawcEnMEQaw1SMwRy+bVV18tdBMIgvAhF8scBUAhiJVDa+YIglhrkJgjCIJYJ5CbJUHkF7LMEQSx1iAxRxAEsU7Ixc2SIIiVQ2KOIIi1Bok5giCIdUKuljk5iThBELlDYo4giLUGiTmCIIh1Qq4DTRJzBLEyaM0cQRBrDRJzBEEQ1xEUwIggVg5Z5oj1wPbt2wvdBGIVITFHEARBEASRhbm5ObLKEQSxJiExRxAEsU5gjBW6CQSxLpmbmyOrHEEQaxIScwRBEOuERCJR6CYQxLqExBxBEGsVEnMEQRDrBBJzBJEfZmdnEQwGC90MgiCINEjMEctienq60E0gCCIDJOYIIj+QZY4giLUKiTliWYyNjRW6CQRBZIDEHEHkB9M0ScwRBLEmITFHEASxDigtLSUxRxB5hMQcQRBrERJzBEEQ64CKigoScwSRR0jMEQSxFiExRxAEsQ4oLy8nMUcQeYQCoBAEsRYhMUcQBLEOKCsrIzFHEHmELHMEQaxF9EI3gCCuNYwxWJblevltW+721Si7nDasVvlCo6qq70vTtIzfZft+ufvJf+f63XLLKYqS9+uYi2VORKPdsGFD3ttDEOsNEnMEQaxFSMwRy2Lz5s05l/37v/97vP766zAMI+2VTCaX/MwYS9XFGINhGDBNE6Zppj5nes/2nVwvQVwLNE1DIBDI6ysXMSdE3HL6cSb6+/vxne9856rrIYhigcQcQRBrERJzxLJYzoz+H/7hH0JV1YyDz1AohIqKCt/vgsFg1s/yNuL6QQh1+SUL+Fy2y9+tNUTbsr0WFxcxOzvr+93DDz98zdr69NNPQ9M0xGKxjC/DMK5Ze4jVQ1iU8/l+LazVq81dd91V6CYQBEGkQWKOyBtVVVX4zd/8Tdx3332FbgpBEKvMD3/4Qzz//PPYvn17xjKmaSIejyORSLjevdvWgrvvWkZRlJzdflfjM0EQBFE8kJgj8kZVVRU++OCDQjeDIIg88P777y9ZRtM0lJWVoays7Bq0iCAIgsiF+vr6QjeBWEVoCo7IG1VVVbh8+XKhm0EQRB4gCw5BEERxQmJufUH/jYm8QWKOINYvmzZtKnQTCIIgCOK6h8QckTdIzBHE+mXjxo2FbgJBEARBXPeQmCPyBok5gli/zM7OFroJBEEQBHHdQ2KOyBsUAIUg1i8k5giCIAii8JCYI/IGWeYIYv1y5cqVQjeBIAiCIK57SMwReYPEHEGsTcbGxq66DrLMEQRBEEThITFH5I2SkhIScwSxBpmenr7qOuLx+Cq0hCAIgiCIq4HEHJE3SMwRBEEQBEEQRP4gMUcsm9tvvz2ncqFQCIZh5Lk1BEEQBEEQBHF9QmKOWDYbNmzIqVxJSUmeW0IQRCGJxWKFbgJBEARBXNeQmCPyBok5gljfLC4uFroJBEEQBHFdQ2KOyBsk5ghi7ZGrm3QukGWOIAiCIAoLiTkib4RCoUI3gSAID7m6SecCWeYIgiDWPhcvXlzRd0RxQGKOyBtkmSOI9Q1Z5giCINY2zz33HBoaGnDPPffg7Nmzqe1nz57FPffcg+3btxewdcRqoBe6AcT6RVVproAg1jNkmSMIgljb3H///WhtbcW5c+ewY8cOBAIBPPLII1AUBe+88w72799f6CYSVwmNtollU19fX+gmEASxBiDLHEEQxNqmrq4Of/RHf4SLFy/i7/7u71BTU4O9e/eip6cHALB79+4Ct5C4WsgyRywbEnMEQQCgPJIEQRBFQH19PXbs2IHPfOYzePDBB3Ho0CHU19fjoYcewubNmwvdPOIqIcscQRDEdcSGDRtc6yYIgiCI9U9HRwe+973v4Qtf+AJ6enrwzjvvoLu7u9DNIlYBsswReSMejxe6CQRBeKBZWIIgiOuP+vp6bNu2Dd3d3Th79iz2799PnlbrBBJzRN6YmZkpdBMIgiAIgiAIcOvcjh07Up+J9QGJOSJvXLlypdBNIAgiT5SXlxe6CQRBEIgRu2EAACAASURBVMQy2L59OzZv3owdO3asas5RorCQmCPyxszMDD0sCGKdUlVVVegmEARBXJecO38ec3PzmJubw7lz5+1tFzA7N5dxn9HRN1OfT54axMlTg6m/a2trUFtb67vfnXdw1/wtW+4AANxyy82orKi46nMgVg8Sc0TemJmZwY033ljoZhAE4eHixYtXXQeJOYIgiPwxOTmF8xcu4Ny58zh3/gImJ6dw7vz5jOW3eESXQIgxfDY9BcHs3BzOnb9gH28Sk5NTAID3JqcwNcU/p0Tg8ROufW+95RZUVFbgzjs249Zbb8EtN9+M2tqa5Z8ocdWQmCPyxpUrV0jMEcQaY/v27auyVoLEHEEQxOowOzeHN98cw7dG38S58xdcVjRBRUU5ttyxOSXWvBazTDBmQVEyB6/f9om75dIAlNRfk5NTmJycxLnzF/De5CTOn7+QEnpCWIq2VlSUQ4GCW269JSXw7rhjM1nxrgEk5oi8MTMzg5/4iZ8odDMIgsgDtGaOIAhi5Zw7fx6vvfaP+NabY77ibcsdm3HLLTfjzi134NZbbnGsXowBipJW3jQWoeklkMWYZSVgGXFogXKXoDOTC9ACZa79LTMOy0pCD5Sn6qipuRE3frjSVzCeO38e585dwLnz53H+/AWMvjmGyooKnD93HpOTk5j9yinMzc1j2yfuxpYtd2Db3b9Elrs8QWKOyBtkmSMIgiAIguCcO38eXzn1Vbz66utp69u23LHZFj6bcestt2SswzDmoakBKFrI3sJgGovcqOYScgYsIw5VL0kTcl4xaJkJWGYSWqA0VQdjFkxjEaoacJU1jRgYM3HrLbfY7bwPsCxAVTFqWxbPnT+Pb42OQYGCV197HaOjb+LLzx/HT9b+JLZs2YwH7v9U1nMklgeJuQw8/z+ew+j/+/9BVdXUSwGgapq0TYECBaqqQNV0/q6qUBUViqJA1dTU36qqQmGMb9N1e5sCRVWhKgpUTYOraxkGoGnuDpdhNgaJBBAIuL8zTb6/l3gcCIXSt3sxTV5vaWna9vPfG+fXSPhPZyj7z98chWEYTjlxXoriblum80om+XtAepCYJqCq6eXjcUDX3fUmk+59sxzLSiRgKQpMxmCaJizTgmkkYTHAtEyYpgXLfjfjMViqxstZluvdtCxUV1Xhv3QeTj8f4prxD9/4ewx87W94f9VUaKoGFeB9T+rTqqpCs0yooZB7OxSousb3U1XebwHeVwMBaJ46Un1d1fh3zIKqalADgdT3fDugBuQ2aNBMg5cTZVUVCnz6AwDEFvk9rUmPbtNw/w0AYMDCAu+TsntNMoHvf38clsUwOjrmlJ2fB8qd2VgAgJEEdE//sQxgIQZUVMCyGC5f/oDXI7WBgcGyLFiLi7BiMVjl5fxv6WVaFixT2haLwbJMWHrA2WYY/B3g5bO9EklYiuJ/HO8rmbDLMmebacJizt//6YuPoaGB8i8RBHH1zM7N4bXX/hEvfqXfteatpqYGd27ZnLJcye6IjBkwk4vQg5WuuszkAhRF8wi5GBgYdMnSxpgJy1yEqoVcYsw0FgAF0HRnvGZZSVhmHFqgFIqi2ftzIaeoOlTNGTNaZhyMGa5jAQyGuQCVBbBlyx2SFc/CufPfw+joGBd0b45hdm4WL36lHy9+pR+1tTX41fvvwwP330cWu6tEYYyxQjdirfGDH1zC7s9+Dl/6oz9APB5HLBZDbH4esZkriCsKYokEYvE4YouLiM3OIpZIIm4aiMXssouL/JVMIh6LIxaPIRaLw7KsQp/adYumaQgGAggEAggGAgiGQggEAwgGggjqGgKahmBpKYKhIAKBIIIBHUEAgZJSBMtK+b7BIIIAgqqKQHUV3zcYQEBRETRNBDdUI1BSgt/+nf14Y+i1Qp/ydc2f/vc/g6aq2HLnFhiGASORgHFlFoamwlAUGIYJI5mEMTcHg1kwVI2XM00YsRiMxUUYmgbDtPj2ZBJGbBGGZSEJ8G2GASOe4KJDVbk4YFwYsKQBSwEsBi4QmCNOGDyiQwgJW0ww+TtJYBTq+aGq9uSUPfGk2ILTsiwEAgEucBUFiqbxCS0xmaXwyS9RXlVUqGBQFHtCS0xmMfDtsphVFOiMQQsEoAWD0HUNmqZDA4OuKNBKS6FpfJuuKNAsE1pJCfRgEJquQ9M06EYSmh7gZXUNuqZDYxY0w4ReXg4tFOR1QIGeSEArKYFWXobjf96Dz+39LLZsoeTqBEGsnMnJKTz/5ydcVriamhps+8Qv4VcfuA+33nILmGVAUd2TcYyZtkUsCFULprabZgzMMm03SCAl5JgFTS9NWd+4EFtI399YBBhzuVcyZnD3TLUEihaQ9l+Eomi22yaHu2EmoOvlrklCbulTfcombdHHy87OXsErr5zB2L98B6++9jrm5uZT5bdsuQO7fq0Vn7j7l1Zyqa97yDLnwz9/85uYX1iAkTTQGN4KxGLOLLewPlkWIEzkciCAeJyXrazkliKAW5OuXIERCMDQdSSTBpJGEsb0NJKJJJIlJTCSSSQNA8lEHMYH00hqGpKKAsMwkEwmkZyd5Z81ne+bNJBcXIQRi8EKBGAx5sxCx2L8XdPtbSaseNzepnGrkygbj8MCuFXKMmEZZspKxcQATlWhMsYtE8GgY50EoFoW1GAAqu4MxFTT4FaIUIlk6WBQDYNbQAJBxyoCBh0Melk59EAAuq7zQZxpQq8ohx4KSdss6KUl0MvK+DZNg24Y0CwT+oaNzv5Gkm/fsCG1v2qawOys+zcEuEVxbo5bJYTFkjHgyhX++8nrguJxbsGornYsgPZvi5ISoLQUr73+j3z7/Dy3QlZXr/LdSeRCPJ6Aqqn4+Y/fyfvqzAwQDDq/p2Xx3y0QcP/G4n6oqODlAX4/TE/zsvJC7sVF/myoqnLuB1FvMAiUlbnLxuP8fhCWYdPk7Sor4/ePYGGBW5XleyeRcKxncruuXOHHFu1ijLefMfdzyXOfppif599VVjrt8rsGAO8/AC8rEM9GuU+IfuLdPxbj16G6mlvXRdm5Od5WYUXP1P+SSd6Gqirn2WoYTr8W15Ax57y813BhgZcTZZNJfvxQKPV7Hf/zHliJOPDBB8DGjSAIglguzx8/gRe/0p8ScQ/c/yls+8TdrmAjlpWEZcS4OEsJMROWGYeiaC4hZplJMCvJhRQvCdOI20JOcqNkTLKoyUKOiz6v9c40YlDVkEvIWUYMilecWUlYZgKq7vb2MI1FAPAtq+mOkAMYSktU/OoD9+HBB3nS8r/5+t/i1VdfxWv/OITR0TcxOvomamtr8Lm9n8UD939qBVf9+oXEnA//+39/EwCQNJL8n/38fLqQW1jggwZ5cJdI8MFKWZkz2LAsPtjQNOgVFdBhjyNmZ4EPfcg92GCMD+5uvtk9EJyb4/X4icaKCrcroRg0yvndZmfTB3cAHzApijM4E4Ml7+AyFuOv8nLnWPG4c67eAZ9luc/Lb8Al6kgm+bUS2/3KxmJOOXkgKgaHsnAW5+9t6/x8+nmJ7X5CTtPcA0nDcAaoXiEXCqXa9f77P3TqJiFXMGLxOFRVccSNLNoyCTnTdPq6VzB5hVw8zu8/+X4QfV3X3f1XLisEk6hXFhaA8wyR+2oyyfu6X19TFHe75ud5O2TBJdoVDLr7jxCNspAT4kYWjaJe03Q/VwyD11Fe7lwDIQQrK937Gwa/BqWljpATAlV+hjGWel6m/TZzc+5nq9gWDKYLOcNwX8NEgh8/FHILOb8JHsaQnJ11H58gCCIHRkffxNPP/DecO38eNTU1eHTvHtx//ydRVekefzFmwjJiUPWSNCEHpkDVg+6yZswlpCwzAcZMW8iJ5SUMhrnIhZjm/F8xzRgYM2xx5V4Pp6gBR/Qxxt0oAeiaR5wZ/PiqZEXkLpeypVCs0+PnpahSu5ILaS6b93/ql/Gpe38JP/rRLP7m776Bv/n632JycgpHOv8LXvxKPx7b/ztLRuokOCTmfPjBDy5hz+5fR1LMGpeVIanr6H3x/7FLyJ6pirONAZ95cDt0WRjMzfGBiTy4EuLMO9j3Gwj6WXjkwZ0s5PwGgpmONT/vFnhiEOcneOJx97GEkJMHvfKx5OMLC6Y8iBJtNQz+WVwvMTiTywohpyjutX5icFZe7gzuYrF0IScsB7JgE+1aWODb5N9rZsZt6ZDPoaTEOV+xLRBw/V7v23lZXANc4poTj8ehKEpK3CRLSpz+y5jdbT3r0hjDZx64G7oY2AthoarpQm5x0X2fCRHhFVfJpDPpIfdVYSmU+7plOZMOoqwQTIGA+/4Vok3uawsLvHxlpSOYZIHptTInEu77VLZey8cS/co78ST6hCgrniFei5w4r0DAPWnj3R9wvB3ktoq+Jos28ayQz4vZ6wRNk7dBFo3xOD9P7/F9hJyZTCKhKO5zIAiCWIKnn/kTvPiVflRUlOOx/b+Lh3+t1baIGWllTSMGRQuk1rMxZsEyEwBUKJomCTQLZlKsfeNjHctMgFkGNC0klbPrhGc9nBnnZfUyjxvmIhRFhyavvTMdl00xwccsITpDLiHHTNv6FnAEImyrnnudHoNhpAtMsU5P1UtR+9FKfG7vHnxu7268cuYf0P3fnsO58+fx+d/Zj4d/rRWP7t1D6Q2WgMScD+//8EeIx+NIisFCaSmQTCIY0LH5534m435vjP5r+my213rn5/4DOIMYrxtXIsEHbGLmXAxCvIM7eSAoxE0mV79YzKkXcAZGflaC/5+9dw+zojrz/b91233nZjQNgqEVMiYzMdrxBlFAkjhGMxNpRA1MosRx5kwyiZgx5iJybXKZyczPYyZnnhODGCOtiDRkEidnJomoKI0aQePknASIjdLQHS8I9O59q1pr/f5Y9Vatql3NxahNw/t5nn66u7puu/au6vVd7/t+XzJModdFUYb0IIwGkua50mA4LVD9MOKplN6HZcUDNnPdUkkvB/R6NDijAbJ5XjTgTIvOwYQcRSrMgSAN3NMz8hSpo/Oic00P8pXCH/bsjc+XGTLK5bL+XAdB9H66roPWD0wadJtnnvtd/B7T58GMXOsdx5//rMiVKa4oypy+Vw4cqBZXQHxfk7igaLBlVads+n5SsNDnv6kpFmd0n9h29fZkWET3Ct0T6TTMrOgbUH1fm+Io/dnP55OvwXzeZGUgmJFCIM6CMO8/ui5mtLVY1N/r6uJnYKUSGynV1upt6FyNiHrEwYMYKBbhZxkyMQzDDAKZevz1DfNx7TVz0NTYCCkrUNKH4ySfM1pIWZG4ISGnhZlKGpb4OuWRomdS+rrOzsklau1EUISChOvGz1TTodIUcplplBkpm1HtnlMD2zYihVJAyHIqKggEQRG24yXSO4OgWCUwzahkLBB19G7atA/jkpkfxQNr1uKulXfjgTVrsXXrNvyv793Jgu4QDN5F8ARlYGAAlgWU+/PwKQXJ4NTmdw36BSAehNAMsZlWlM8nRRRBQsj8oGYNzswZ6vSHmsQJibEd92B2YyNm/0fKgtb3gZ33YvaYMZj94KuDp2D5vj4H5zV0fOaf0QVkpyrRuZZKyYgAnVNa8ASB3o9l6YGk58Wz/KaQosE4Dc7SkQoz5ZKih+YA26wxMgeXdCwgKeQo0tHQkHwN6fOidYHq9yCfR9+rr4IZesrFIor0/hsRscPev0B8TwDVadTlcvI+A7SIoPuXPjtCxBE1c92s/QLxZ6qhAV3LLViWBcvzYI0ahdk/6Y/vYRJy5qQNReTNKLUQ8WRIfX18XpuWYfb9PcnJoMxJlz50XG3BumoV+mpq0PWPtbCsFfo5kJ54MqPvaXFEE1r19fFr6O+vimijUNCvw7yGtNycJDJT3Bsa4mVFXdgPz0tOPFH0v7ZWP0fNyTDz+ICetLFtDBSLqFR8MAzDHAk/WLkKd628Gz/64UrcGEaRtGgqw3ZqYDlmamKYHhkJPAUpK7BsB0oJWKaQEyUAsWGJkkG4rpsQfDrdUYb7pIiaDyn9qjRMSqNMRMlEBQoyFelToQlLsvZOKQEhSrBtL3mufiEUnfF4S9fTqZSQkxB+YfDoXbjutdfMwfp1a/Dxyz6C7Tt24nOfv6mqlQMTw2IuxR9eeRUnnXQSyiKAb9hyq0oFSqnYxS7jC1BQSsW1YGYaIg3C0rPOJERMEUGz/+YMMw240nU+QBxBoOWlElCu6J9NW3IadJ3xaaxTCus+1VydqgToAU+xCFgWuv75DMxbi1jIpQenZCpg1g7ROQHJQasQcaTAtuPBJA34aHDm+8mInDlALYTilAaNdF65XLw/GrClhZx5LBLUpllC+jVQTRENME3RZ9Y/0X6lxB9efx3M0FOuVODT4B6ACgLgMPevUuH9a6bqmaYgpZL+LJqfKTNd0ayTLeqi8ISQyqonBeJIWUM/Oq6xMXXRMmw+eBDq4EGo7nuBvxoPa3lX/FzJ5eLnSladH91ndE/RZ3rXjzB72mL9TDBFV9akCwAEAOxU7ZqZygkkn0tpcVQsxhNadG2yjE2oztU0kgHiCS3z/qN90uui6KNl6XXo2USTQZalj+d5SSGX9QwFgMZGDAwMoOJXwDAMczh++vB/4P4HHsS/fe9Oo28auUkmo1RKBqExSJzGGEXklNQCiWriZAVKBGHftzCaJX3YVcYoYfTNjKjJAEKUYTueEb1LGqaYx9eOml4y0ucXYFmurumjPVBUD1aGaEtG36KUTUNgkjlL8rqozOgdoFBf5+D2r38FV1x+Gbbv2IG7fnD3kb4tJxws5lLk83mcdNJJyNXW6sgcAPg+RMWHkBKLFi3C7YsWYZHxRb9LqSCyUhNNweMama1krmJGD8wUQnPQmGUKAFTXzkSphbXJ9cxB1+vrMduyMHvV78NB3AtYYYXRAMvC7B/tAiwLfT++DlMXA8BCTK2Zg44+B6g7oGfsad17u8OB5D69/OoOdCyyYI0YAWvkneiiwbCU6Lu3TS+vr4f1mU70heff9c0mWKPuxIoVDizLwopNJT0Qy+WSaWA0QK6t1edt1hOZ5jRZdT9APGimQToNDmnQb743ZmSUBuNmBNWMHhj7jQxQaL/MkCAVkDMiT6JYPLL7d8CIBJlpveVyPAFh1mJRyqVZO1cq6e8UDQK0iDBFEGHWfj5zD+atBdofuRlTAL39RD3xom5t1eu6LvBaJ2bT/eq6WLGVasH60HGVBWvOD9Hx7SZYI0fCyv2jjqb5m7Ci5TPoBND52Umw2rfo4//ubsweOVLfl5aFFeFiDBR0abBr3kNBfE889Q19fNuGNeqf0UXPpS0r9H4WL9X3+T8/Fz8HKd0yHe1M176ay81nJkVAKSopZRzlp+sNxEKO3qeamlj0munSRGqCZmCgAL8YPoMYhmEGoT+fx/IV38LNC75oCLnQ7KNKCIURLScXRb+kqIQT7gqw7EhM6Tq1cri9Hda4lQAgIaIoUue4cUQtFnK5RGqkDEzDFBKMPpQKqiJ9IihWtRpIRPWyRJvhkimiOr04vVPX5BXD1jSGOUtGnR8thwIctwaLFn4dV1x+GdY8+BB6e/sO97ackLCYSzFm9Gjs27cPuVxOizkhgHIZgRSQQqDiB/ArASp+/EW/U6PcqkL7tGMbQTUmNNihdU1xAujZbKB65twUJ0AsDuvrAS9VDplOFwQAKYD6enQtn4qFaMdmpdC76pPo/Ow/oOP1WjT/VSc2LwGA27G5fzXmTqpDV/s4zFvbjs1SQv18ITpvPBMrnjfOde0a4Jp9ULt+hDbcju/c36cHWo8vw9jP/jvaNw5AySfRvnYexi5+LHSpBIBFwEcEVH8/bjvfSgo5El2UcpnLxXUz6cHZ/v3VKaNAHEGhtFWzxiZtRGGaptBA0ozSmdEDiqya6bD03gTVRc/MO0eO7quBAYgggBDysPevSJuCULoxkBRnNOmSrl2lyJGZ7me6K5qTADQZEX6mu/5rIYBFmHmuiqNJQFz3ZdvAa+sxe8I8oKMXqr8fvSv/Egs/Oh8dPQjTkgGs/zEwvwS1ezXasBDfuW83UD4Ht/12JdoAtHX0Qt0+Bdi+CrPPvAFYvQdKKfR2tGHhlNno+H0J8IPwvqQ2CgAQXpveNZg9ZSHaVv0eav/vsHrOcky9ugPmv9iF4sNQhQLU0ml6QVYqOT3v0i6dZPBkpldTZgMto2eC6+rXTRM85bK+p0ns1dbGqZmUvWBG1KOoaJwZIYRAZWBAL2cYhhmEhx/+GQBg+vS43UAQNvV2UhGttHOklDpYYEFPRpkph0IUQzHmQouoohENIzdKLQ4duyZKd9TLyjo10k5G73RqZ1L0KelXtUBImKAY6FROlYrqadHmenXJY1UJOarpSwnBsM5PL4ufy1JW4ghiuPyaObMAAL179w7+hpzAsAFKitGjR2Hfvn2oyeXg++HssG1DhL3ZPv/5L+gZa7M+XinAsvDUczsgpIqFBEXD0lE2IHazMyNKAwPVZiHUMyrLxITq1EicULpVbSoqR2ljVHfik4ukkQKGhZhqBdi8/4dQc+uAnBfOfANA+Jrsp/DIIgDLZmLKwABw/nS0ox1bu/uAC6EHkvgAWk6vBerOQCuAhTu7gdJIdP1yKYDFmDm9DrCmYubtAH69A311F4afwnbM/GBRh1Rct7o/FQ3YaHCX5Rw4WBqqmSJnmqNQylo6bS5tA29G6dLRg3QrCiJVq8W88+RyuUgECNeDlOKQ9+/Tz++END8jQRiJAvRnz0z3pXvVnDQgIWGmEJOISRuIUMqfWX9H2t9MZa5U9FdYz9n3ZCc60YbV548C/CKar78V7TdchHl3P4m5/zA2fF3noOX0GgAt+h783Q7AugDIGZ/RYhF9j69HJ2Zh9bRxAIDmT92C9rlTMe/uTZh726T4GgVB+BzQ6Z19m9ahE5/E6vNGA00jMXNWGzC3G90AmgMdzWr/yIXxtaE0SjPF3KzVNe8/EnjmctNRN5dLCrkg0MdxHL2dbevrVyrFdXpmL710RD0d/Qvxab8MwzCD8OsX/hsXXnB+ZMwhAi26qmrEgkLCOVLJAFASlu3qFMmqlMU4jVEGulWB5eSq3Shtz+gPF5qKWE4iehcbpnjJyJ/QWQ3JlE0SZ8kxlBaDEo4ZVTT7zsFIDZV+psumUirR4y4pGk0hF0CJIBnBlAHOaBmPkSNHJCfjmAgWcykaGhpQLJZ0ZK5QjGZ5ha2bbRcKuqAzNRoEYOnInOsma2SyaknSNW5kykGOb2mzg7SQM63RaRBCBgbpAYhfTqYLCgEUwgFqWJQ7Zf5qtC2ah04swdRRSwC0Y7O6DVMoIoGcHiz1dGMrACyaCmuRcYyd3UAwQc/et01GS8INrwIEe9D9fwFgKabaS40N96A7GsgF+tzSwpdEl5m2ajoH0rUazCWUIivm+0ARuXT9H0XrzAE2iTuzUTEQG6yY9UtU5wewm+UxQM6xoxQ+kR84ovtXmJb+JORqapLpvoVCXJ9l9mejtOy6ulhEkCgwhX2WGCwWw44nVrIPGkWH6usBx0H3zk4Ay9AyugA0GuLEL8c/z5mMFgAIhRUsS9+/FK0PJ6m69/wEQDtaxofnRevbDlBPE1LU2gCgfxfdv+0EAMz7szGYZ1zF7pcEppTIOTJ8tpEYNZ9V1GPPaNQdXZe0OQlFQM0MhlJJvx6KgLpunG5JAp4idfl8dj1sVhsTQL+3AAS3FWEY5jC89tpr2N2zBwAgRBFKSrg5syk3tQCII3W69i2AbXtaDDk10f+RWPTo56cUZUgl4DjJnm3ptgJUywbLhu0mhZyUFV2jFkbvpAzCpuTJSJ8UlTBl02g1AIqSCViWm0oDTbpRanHnaxGWdtlUIrFfIUpV7RKi/coKbNs2WjYIyKCIl3r+gIMH+1EslsBUw2mWGYwePQpvvL4Pnm1H0TMhJYQUeOW1/XjltQPh9/2J36VUEHQTZLUaoOU0uCAKhWrXuayaLSC7WXdWLUq0fkr05fPVKZjjrsW6N96AGngRq+cAwEJMXfy4Hkh5QPQxGa9n+nHbz6FKpcgwQn39fCBf0Ks5qWhUUAFyE9ByNgC0Y7PvQ+3fD5XPQ6nFujZIAkBQnbJGtYbmLH2W6515rcxZGzJysQ3Dh5JRC2MOxs2aQrqO1GcwPXNP6XFZrQ2YYwSFHL3vuVwUWT/0/SshRCjIKxX9nmZFieleTTtHArGIoPXMSQhal1KeaeKmVAKCAFM+shjAUjyyBXGTbUBvHx6r5YxZAJ5B9+u1cbohoOsupAxvVSs0QQnFqCkQAaCsU4hb3tsGYCu6KUWzEB7PowbcAILQvZZuayHQMv4TAD6J1btV/AwQazF3VB6ww/uJjIxociTdhD2dgUCRStMcJasXHdUuSqnFWS6njxMEeh1y2yWBlzZgofcwq08mTRwB8LjHHMMwh2HcqeOwb98+PP/rFwBJkae455qIHBqTLQhs29NmJnYcbTPTEwESYoF2w7TjySWdxmml9lmCSqdhhmmUCcMUpXRqJaCjekbtnBRl2E5dIqKmo3oi0RoBMNsVeNGxtDD1kHDZlBUoFb6G6HVm1dOFr0OWw/LBXLRMHyuHzvU/xahRI1FXVxvVDzIxLOYyGD16NNyaHDzDDTEIAkipsPfVA+HXwfDrQPRlWRaEFEnnSpNw0BYN+ICkODGtxsvlajdLSgsyzT1M624TmmV3jdodigjWm1GjPnTMdmDNX4e++hbM/ZfVuq7mtOawRshY1T8XM28DsGITunK52Ozg0QHAsZPrkrW3q4XYlI+1A1iIRzb2A/avsKKxUTv0RamcKYc9EmJmGwRKezMH0oP1wTIH2BQpIWMEIGlkAUS25ImBJJnTZA3G0+mc5AjIHCNYyNXXR58dIQSUQur+PZD4HQjvX2pU77opERTWXZqfPzI8AWLRRaIgvT1F5CwrWeMVBHrZxTdi9Rxg4ZR2dJVKetmrnZhdU6PvFQDNrVegDT/Bul/pOtq+e76NhfgkVs87aDpF+wAAIABJREFUF6it0f/HlQzTw8NBBbnymunVuRyaL56NNnRi3eO9QKmEvoe+i4WYhdWfnarvywBaJEaiS2cQNM+YjTb8GOs29SFqYTB7FfosC6glR82MFiKDNWEnB1Eg2TeO2h3QNSRjmTAtFjU1cfSypkZfS2p3Yj4/0mKcInLpJuzU3gSAxynSDMMchlPHjUNNTQ0efvhn2gAkmkzWDbgtUC85XRdHgkdHn9xIpOloHRmZ2ClxZEa59P+aqB5PqUQtW+xmqfcHWLBtM1JX1vV5Tm0q8lWubgouA50OCqRaEJRg2bFAjAxXUnV6+jX4cIxjxc6bSdFI1wawwlRObQqjU0ld2E4NfvnIIzhpzJjItCVMZWFCOM0yg1NOORkPrFmLL//DzdGycSOb8LnZH0um65iGJTTgqVT0IGREKrc3XfcBxM27TSGXZawgZbJujJabESkTIYABfdN3fnYSrM8af1v6JJT5+0AT5t7zX+gedSnGWn+tl115F3o/NT4WYYsWYqq1EO2/PIjbvroTq383CVPtZQCAtrt34LbzEKdl0WsIjw83fK0XfB29K5/G2EvHYCEAzFmN3tun6MGdAoCUYCJzE3MgSIO7dH+sdFPmdANhx4kFsuMk2x0AscEMXUchYkfMdBpmurE5EEfkzPeBooqjRoEZGnLG5EDzu0/G5676WBzBphpTus9Mh8pyuboFAYmDdMokCTkyPCEhZ9rkA8n+aPQMoWNRlM5uxNw1Ei1/YmNq0+3xtss2a8OSgQFg7FVY93ItZp82FtZcAPgkVv/2Psw9oxZwwmwAER6fsn4tW5/TqAswuw2Yd917YP10NXofnIt1u4HZE8aFc7lXYvXuTsw9VQH9A1oYJtzMKnq/k6/Huq49sKbQOdyOzfuvQnNDQywgiwPJiDhQ3RaEOHhQvy/mMzN9n5X1ICSKytXV6feEnomVShypM+uP0/0AK5Xqhu8UwaNnA3SDeRw4UJ22zTAMYzBmzGj8+Cc/xSmnnIy/vmE+gDhdMtGCQFZg2w6UFGGPtjBlMeq7loNle/p3UdbGJAkTkzKUCsJ0RS12MoWcElq0AYkUTinKkDKse7OT9WxaNCZ7yUnpAxYS0UPhF0KXy7hdgu455yZdNqPludicJUz5NJ03o9cmdTmBZcepnNR3Lp+v4Is3fwHTp03DSy/t0jV9qVRQBrCUYv/0NHf8z3/F/WsexNe/eis++ZefSNqKmw28zXYBZI+9f3+1CCAhZw5OqObKdLk0Z+7JPt9siGsOToTQg6D6+mohk67VMwVmVrrRyJFxHydTmJhmBeQGZw5yTSc4M+Xs4EF9nmlHTimT15CikqbLH4k2GvSaDdeVSgqmLBFl9qKi9Eyz9sh0GQSSToP0Hh44UB15kzKO3pnn1d+fGKBOn3kpSqUSnnr4x9lmNMw7wt99/iZ8qPVs/c/V/FxTRIiElRn9pigvTSKYn8k33tCfJfMzQZE6ij5VKrHAMPtGmr0M6V4xXTLDejgAsQtqup6TovLUi43MVqjOlJ4hdJ9SeiE1yiYjpsF6wZkTJ/SZNp8BAwP6nM17lZ41VOvrusn714yWZ20PZNe00TISUnT/UsStri6O5tXWJhuDm8c3z5/S09MtS8gcKRLUNi6YOg1fW/BFXHnZpdXCk2EYJuSulauwdes2jB49Gr98ZCNuvGE+5l93bWTsYaZQ6vGF1HVtpnOlKZAUNc+2Ek6OUvqQQQmOVwfLCmvURBlSBaGbZSwMpdCpirabYVbi5JItCHz9/8I0bJHkcgndD5jWF4Eeh0YNzCmNFDYcrwaU6BcZvtieUdMXQAQlbYxiJ7MeqGG52buOXC739u7D7YuX4X1nnolbb/kiPvf5Bbj22qsxY/r0t+LtO67gvLAMTj1Vu7vlcl4sWGhgBMSDs7RhCbmzpYUcFeybja6jFgIpYwWl4n2avdVMITeYExwNZEy7ftP+O8vAwxQmFM0ymyVTGhk15TVrV+i6pBubp1sDUE2gOWAz+0ulB3ehc1+0nAaCpmij3lBZqaxkjED9pej89ZuaPK90I3cykjEH7eb7bQ7ySQga5zDxPe/RP6QH48w7zggaiKcnB0gImRFa349rT800aNo+/Zmg3nPUhoQEB4koU8iZNbFkpU9RKvO5Qumd6c8OuaZSawSqEaO2GqZ9Pwk5WpeOlW6/Qcejfmx0v5qi0xRy6TpVin4BSadPmngyXxfdv+n+jGYDclPMkugD4vuXBDDVuVJtnCnkaHtqSZBu+J6O4NN7aN7XoYmR5zrJZxjDMMwgfKN9KT4y8xLctXIVfnD3vZDKTdSjAcgQcmEED4ATpkIKUYYFlap9C81GnFpDyFXCCJ9hNqJUFOGyHS/ZgiBLyGU0+tY1deEz1bJiIZfqJUd1ehas0HAl/n8ngpI2fDHMWfQyN0PI6SbmUIgig3SsJ598Fjf+7edw7odacestX4wMXnbsfPGo3psTBU6zzIDEnAfowUFTUzK1ymwyaw7szebdQOzkRuk/NNBKW2/TcUjEOE4cYQKqU77IgjttwU/pShR9IHFl9r2j8yJjj3Qvq/SAi+pUaJALZBsb0PHTg97BonfpZum0Lg0kzX5e6VRSSk9Lz5pTTSIJXxKijhMLb/NYFOmg13vwYDzoN6HWDulBZ6WiowdGOu3E8ePw29/9LtuMhnlHGTFiRJxCS5FXsyVFupYKqJ5cMNt6EKaxDvUxMw1QzEkTEic0cUP3NZkrpetkzRoxOhZNxtTWJicnTHMWSkNUKhapNAmR9aygyRjz2UDnak66kEhN1wnS88qckCIxaqaiUk1gOrWZBKJp8ESmL+ZkEtXB0X5JjJPwIuFoXkOzzpV6b9bWJq8rRUZp8oxeb+hg6pltUBiGYQ5D+9LbUFvr4e57VuOpp7fh+uv+Chd/+ELdz9eyq4WcKIcuj3WAZYfCJtnUG1HPuRrYDrlRhq0GbCcR4ZNSm3aZqYpR37m0MUkoopItCPQ+LMuGgoyPJ3S7AdeNzd709ohq/OLXRA3AY3OWyHnTTU5ua9GoEwNtxwMsC1KU8dKuXVh5z/3Y3PUUvvLlL+HPP/YRiKAA262BxW0JBoUjcxlEkTmRGqwA2X2jqPbNHPCZs740MDAjV+bgikSIGeWigYYZDaPjp90wgWz3TIoomOdFM+qmmKRl6QGXaRhCM91C6HNIt1zIMjagwZU5MBqs9x71zTMFJg1GzcEhnaspDs33IB09JNLRUuolZ0YUsq5r1gDXPNfUwL/l1FPBHAsojHRd/ZmlyKtZj2p+HsyJmPRERtpR1oxImeKCbPHTkxMk5Ehc0OfMTME13VHThilk4W+agADJdc22CGQAAsTpkll9F30/Pmd6DSSEzEmXtJskvYYgSD4bzXvdFFIUQUtH6tNGRlSnaj4r6P4l0yhKGSXDGKqdM6+h6VBpTpyZxydBTNubgjoI4LouvLpUFJNhGGYQyA3y9q9/Dd/+ZjsAhS9/5ev41j/9M/peeTWsPUu5PEptDmJZTpQGme7PFviF0AAkNhuR0o9MQaL9CR9KybDOjoxNZGwgYtbeyQqkqMCtagruA7CglAjXtyBEORSDWnBqwaefy2bPOYDqBAXsKD00NIEx3DwJbdCiI4C27cKyHCjp43/fdTc+9em/QUNDI37643X480s/Yjhn5jB58qTwtYk38zYd13BkLoPxp56KmlwO3oim6rqVdPNomvlNzzDT7LvjVPeCMwdXWYMg0w0vbSCQns0G4hqTdN+1dKSQbMHTYjIrPZRm5M20M3Om3xRydCzTLIAiCum6sXQaKF3XdN8883qZ14AaLafNKUjI0QCbxDRF6cyUKxKDZmNmisCme1FRY3azropc8syBe5jKNXHyZDBDTy6X02YcFNGlNGbD5AJAciLGvKfIwMb8TJj9IGkyJ53Wa+43bXhkumGakxPkjmp+zmm5mR5pmiCZvQ0pUqdUvJxSO9PPCnreUESK0hfT5i70WtPnZUbazebqhUJygoYmfdImJHQss9aXnivmsYIgFqhmtJOEMwlic/v0sej9TqdMUyqo+T5QVNBxMGb0aHg5jsoxDHNk2LYHuIBlO5gxfRou+vAU3PPDe/Gj1Wvw+OObcdlll+IvP3EFWlomRi6PuuWAGzXwtt249g0wGpA7YZSLHC4NJ0kgjNQpah9Az2+jv51pTCLJubI2FGe0D52eqZQMm3XbUFIY6ZlGeqeSuq2Bca5SlqIoY2SWEpQAqGQaZ3gMKStRtHLniy/hF7/4BdZv+AlOP6MF3/vuHTj3Q61h/eBAaK6iX29TU5OONvoFOF5DIip4osNiLgPHcVBbV4v/euxx/Gb7Dr2QBhe5XHJwR/Uc5iDI92PDErNGjFKgCKXiuhtzcEdueBRZoOUkTkwR4fuxCQKtS+eatt83IwjmMqWqnfdoIEXpobRuehnVCaV7tqVfF50r1SqZ14AMCNLGBFT7crjtydyEzstcZr4Hg71fWecqhN5H+v3OWpfem1wO+/vzYI4N7nnwIfzmxW79C91/5mc36z0G4FgWclLCa2iAV1+HnOfB8zx4QQDP85BraoLr5QAZAMUS4KVSNisVoBKmTHokugLdxy2d3pnP67YeiUiQio1MaLkMgEIRyKWs9sthhMnz4hYEgQ+UykBdLeBQQ1cBUalAFAoQSkG4HiQUhO9D5AcgLEB6nu7HJ4ReT4hwmdBfFNHzvMPfE1nPCrr/qNG3eb3S7w3d6+b9K4T+ohRT8xlE9YNRE/WM5+Jg+6XnnWUBnodiqcitCRiGOSrMyJttScy/bi4u+vAUPPr4ZjzxxJPouH8NLrv0o7jykx/HB886C3boXClFqcq5kurGKA2SWhfoOrak/X+yfUDclBtAMiKmKGUzl4oShuNVxFEyQMYRsVBIaSGnm4ent5dCGNuaKaRJ10nqs1ep+Nj46BPY+NgTeHJzF2ZMvwjLl96GCy6YQmtqExXLDSN98fZKBrATqagMwGJuUCzLwgu//m/8fufvUS6VUC6VUfZ9lMtllMtlBILDvG8HjuPAtm04tg3HdeDYDmzH0b/bFmzXhePo5Y5jw7Ys/TfPC9dz4CB8fLg24kxipXvv2RZg2PJCBHpl27wVZLiukxTDIiwMdrLWtQHbgZT6c1Eul1Fjik7mHaVQGEBv7x9g244erEsRCgizqbwfvW8RKnSIHPS9d+J9iDDdL3N7c78KslLRIgq6550UAiII9M8KEFKEy6VeLnWTcylFJLCklJBSghkcy7LC54Otv4df5jPEcb3o2eI4NhxA/93z4DgOyqUy9vT2DvVLYRhmGKJTKAUsx8OZZ74fZ575fvyPv/lrbHnqKTz+2GP42m3LcPLJJ2P6tIvwodazcHrLezBy1Mnx9qkataRDpdFqgGrnYMFyvERETClVZd8fBIWq9EwlAy3QYAOWFUXbhF9MRMTi6F8yKpjshxemggpfp5CmmoLv3/8GnnrqKWx77tfY8vSvYFkWPjJzOv7Hjf+GlokTE6JNBKXQZdMUckK7bKbEJKNhMTcIp7ecjhtvmI/Ws/5MpyY2NiZmxMW+ffClQqUmB7/iw/crqBw4CL9YRMVz4Uupl5fKCA4ehJ/zECgF3w8QBAH8fF5/dxwEvo+AomlZs8lk4pGOclEtSTp6l4o0RLPkprgQArYQcOrq4ORyelDjOHAqFTiuC6e+Ho4TCidAL29qjAY8DgCnXIZdUwOnvj4aLNlBAEcK2CNGhELMhiMk7FIRzogRen3b1usXi1q4jRgRbV9lwQ7o13nwYHWjX0ovNVPJqB7OTI0EdLsBx0nWxJGbpZkeSi0I0u5/WamsALBvn073ClO+XnnlVfzFlbNRLBZZzL2N3HXXXbjsssswYcKEzL+PGzcOF5x/Pv76uk/r976pqdqsJ13jCQCvv55MwaV1gWqrfrOlBRB/TnO55H6zWmhQWxDzcw7oc7XtaufWIABGjoRSKhaD+/ZB5HIQnqd/FxLi4EHIwIeob4CQoTj0fb3ccSA8TwtFqodzbKDW+Jz7FaBc0X0jSYwqsydfyqG1MADUG2mMQZhG2VCfnCAZyDgWRTDr6wDb1c8KAE6pBKehHnZtXSjGbDilMhzLgjNiBBw3FGdSwikU9LK6umgiKGotYt6/pVL8XDCj8gcO6OeE8X5dM/fT+MD73w+GYU5spk6dipaWFtx4442YMWNG5jpbtz0X/aykH6ZQJqNfSkmc1/pnOK/1LNx444345cZH8fTTT+OBBx9CoVDExInvQcvEiZj4ngk44/QJ+JMz349TxzWFZiOVKrMRilABSqc8GhExUC86Y5wiqN2BkxRHUvrhtip2kwxbJZC4ItEIy0oKudBcxazJU0o3EKdectt37MCTT3Zh67bnsHXbc3AdB+ed14rPzJuLSy/9KGprYDhixueaNmdRRtqo2SOPiWExdzhcVw/2neQHyMnl4DQ2IjG0aW7WYsCc0SeBdSQ219Q3Kp3iQ26SJkLEqZzpfdip8DM5PKahlKkjIWu/lKJ2JJBTn0mW4yPV7ZjXm9JA09tTLYx5baiXX/r1puvxgOqUNyB2/ktfFzK3SL8PY8Ykfu0PjWgKxSJGccPwt41FixbhlltuwWc/+1ncdNNNmDhxYuLv+97Yjwnjx8f3b/q9zxJyAHDSSdXLyETFpKFB3xPpz15tbXULgPS2QDxhk3quZDappr5q0JEn13X1sZqbqz+Po0dV7xPIvn8Hu/+znhdHc6+nt6f6v6yebVn7pZrWNOnnIJnLpFuAZF1Dz0uaKwFxo/LUdenvz6OO2xIwzAnP1VdfjZtvvhkdHR2YMWMGFi9enBB1HzrnbPwg/FnJAEKUtKlJSshJUYKCBcetwejRdWj75BW48i8+hopv4fnn/xvbnn8eW556Gr/45SPRdiOamjBp0ukYP34c3jPhNEw47T04bcJ4TBh/KixLZwCZtWtS+FCiAserT0TEyCUzcqOMzqkCy3KhIKK6uiAY0HV61BQ8rO+zovROK9p+sBYEXU9txZNdz+DpZ57Bnj178e53n4KLpl6IT/7lx9F6zlkYNeok2LYTRhAlLKMNgyCXTTdZdkBGLpbNkmUw+MocCVmDo8Gs59MDJrOH0+Gw7ertgeoB22DnlHV8IFvIAUdnvZ213yMd3AHVQuxQpM/XdOgzGey6ZF2brGtwNNflCF9rPhRzxULxiNZn3hzf/OY3MX/+fGzcuBF33HEHLrjgAnzrW9+K/tG65mcg630+mtYRWWIMyL4n0kJuMCzryO+JrOPQPtIczXNhsPs/63odzb2eJZwHa76dtd8sIQdUv97BngtZDPZcyLgu/f39qKtnMccwJzoLFizAHXfcgQULFuDBBx/EJZdcguuvvx6LFy9OTiAqBSHLsCwv2UtNKS3klIrSDpX0IWUFjlOLes/FlCkXYMqF5+NvbpiLvr7XsO35/4vNXVuwuasLW7c9j63bnq86r7Fjm3HahPE4bcJpmDBhPMaPH4cxoxow5qRTMGZMLTwv7jEnhQ/HMzK4qAWB7er6s1BM6VROBccLhVwUuYMWUiQQlcJLu15Ez5492Nv7Knb37MHu3T3Y3bMbPT17AQB/8t7JuPyyP8cFF5yPP33fJCiqyQv731FrBN2GIWxsLiqhGG3IiCraUVSxnzJdmAQs5hjmLWQgtK1/9bVXUVtbg3w+j/7+fuTzeRSLRRQKhcT3YrGIstlC4TjFcRzkcjltJGJ8DbastrYWTU1NaGxsRENDAxobG1FvCKXrr78eS5YswfXXX4+XXnoJa9aswSWXXIIZM2Zg/fr1aGhga3nmzVGpVPDUli0AAN/3q74qlUrm8iAIEt+zlqW//7E1kEGg0/aFEInvR/Mz12G+fVANpx3WcNq2nfj5cN+PdN13uv+W+brSX4MtP9Tf3sy+3or1j+TrmmuuwV133YWJEyfiBz/4ATZt2oSzzz4bN998My65ZCZdkKoaNbLmTwg5JSCCsm5BYDpXCp1COH7CRIyfMBFXXP4xKOlj23O/wd7eP6CnZw969mjR1LNnL3p7+9Db24ennv5V5vvT0NCA0aNGYuTIERg9ejRGjx6NUaNGYfSoURg5ogGjR4+G6zoQEggCgUqlBL9chFQO/EDosqFKEUEgEAQK+w8cwO6eHvTs3oPdPT3GcerR/O5345RT3oXzzm3FtVdfjYsv/jCa3/1ufQVkAKm0L4FtuWEbhgqUDBJtGBS1ZvCSdXYiKAEKkcAEgO1kSsgkYDHHMG8h27dvBwB8/OOXozCQT5gwuGTecoS/m8vSFAoFDAwMoFAoJL7EcWzM43keGhsbI5HnOA6++tWv4qMf/SgeeughVCoVLFiwAC0tLfi7z39hqE+XGYaQsPmnf/qnd/y4lUol+iLRmPV1PN/jxxtKKV0PzxwSncZnV33PWnaovx3t+kfyt1deeQUvvvgivvjFL+KGG26A4zh47LHHsGrVKrzvfWZtbUrIhWmEkRGI0stsx4PlxNE7ERShgKjvm5IBlPBh2Q7OPfe8aD2zdu3AwQJ6evaip6cHL7+8C3v39uHV195IHF/3nbNQKJRQKPRiz55eAOmJGxuADNclwzhlfFkAbIwZMxpnnH46pl54Hk45eQzGnXoaxjaPRVNTU1jjpuB6tTBbV8eRPQuWpVMkpVFTmGhsHpR0qwbLaHcQlKFUkGxsriQQpoia9XsMizmGeUsZM0bXXG3YsAHTp138jh8/CIJBB4GHGiAe7m9vNWmxagrZwX5O//79738fEyZMwOc+9zmMGzcOS5cuxfPPP4+bbroJo0ZyvSJz9BSLOj1648aNQ3wmg6OUir6klMPuZ0q5Yt5e9CA6W6Aca9+PVfbv349zzjkH3//+9zFx4kRccskl6O7ujrJCtm7dlrGVigROou+a0OmCpptkukZM92ALI1mDtCCw7RzGjK7FmNFj8KfvOx3A9KpeblogqlAgxu6XVHutWxx4UFJABAXYbk10PEqB1MYm6RYElURUMdmCwBRyWnABFmA5UUqn7pMX75eMTWwnl+qdV9GpqF4c7YyvjcVCLgMWcwzzFlIoFADEg8J3Gtd14bpuIiXxeGTXrl3o7OzE+vXrsXbtWtxzzz2YPn06uru7dTrMylVDfYrMMKQwRPft0UCDdACZUXuGYd4aNmzYgP379+PHP/4xNm7ciCVLlmDBggWH2EIhCIqgZtkk5IJAjwtcQ3RRC4LIeVIpHY2CjuZR3RhFuABEDb0BLdhgmJUQWT3elAx0VMuyASVD4SaNvnNmLzkZ9r0zTFxkEDUQTxiuZLQgoJo8WBYs2Ij76ZVDMRsKsbDvXbpdgpQBZFAO9xumYSoZ9p2zub/cILCYOwTlyvFfy8S8tZCYK7ABytvKHXfcgVGjRmHWrFmYPn06Nm7cWGUdTc6iDHOkDNUkDMMwxx4bNmyAUgof/OAHsWrVqiqH6snvnWz8phD4BV1PaAgpERqLmA6NkQmK0fxayjK0CIyXRa6TsEITEmpBQE3Fk5O2FMFzHHMfAlIGsCxLi7xQOAm/qHu2hb9LSULOruolJ2Q5EVGTsqyNVQwDE0KKCqDC1FknF5nAAFZktkKvwVLa4dPYGlKEKZdRGia1JWA3y0PBV+YQ8D925mihmhv+7Ly97Nq1C9dddx0WLFhQ1ZaA6O9nMcccHcViaahPgWGYY4QlS5Zg4sSJg7YZakq4Ilvaqt9odB1H35KRNhGUwyibG60nlYTj5AxxFPaYg0rY8sf7bIBZp6f7vpVS9WihGLQ93XDb9gBYupcc4qbcuh5PALCS6Z1KhG0BvEj0KSUhA183Kk+JKx3ZU7GQAwwTmFokG5uHEUjjNehm5V60rdlfzryuTDUs5g4B/2Nn3iws5t5eNmzYcNh18hyZY44Sum9934d3NK1bGIY57jj77LOPav2EkJM+pMhKF9QmKCRYtJBKmoIAYYTLAmwYNWYyCNsaJFMbtcAqhemRcRqjNgrxIEUQikfd3w1QugUAUvV4Ts4QnWEvOduBE0Xqwp5vjhtF+MzXq5QpCMN2B1AJ50odAdTppUnnyqJuVm72rQvrDFnIHR5OPj0ExdJRDsh7OjDbsjD7/r637iQOuc8urAjrJ5Jfs9HRk7H6W0YfOq5egS7zTJZbsJZ3Ree0Ysvbefxjn0qlMtSncMLz9kfmwvtvedfhVwWALSuO6NnQd//sjHv6KI7zZkmfX08HZtOzZMsKWFbynj8eoVq00gnQLoRhmLcHpQRkUILt1hoCTUVRpkiwSBH1fEuYjYgKpBSwYBlRqjDyZucyImJl3ZTcMcWkNhtRUsAOUzS1uUmQ7CUn9FjFrMfTUcGy9rJ0anWtHap7vpnnmxaEFO0zG5tHfe+cOpjpmZQ2GjUrV1KnYWbUBDa/++QwssiYsJg7BMMmMrdsc8IpTKl1mDv+7Ttc1/KxmLfWWNDTge8sAto/NgXAFMxcBiz8lw68hZJ22FF5GxwgmaMjnz+Gmov2dGD2lIVHsUEbVu9Wyfv69ilv2+llnV/XqnnonDMbM8cDuHAm2rEQ33krJ6qOQdyw4fmJ0PuRYZi3AaV0uqBTkxBoWgjFqY2xYHFSBiA6wmXZdnW6oZGCGO03EkJxY3Ad1bOhQtMT3RagAikqcB3tPBk5Tlo6PdQUV9RA3E6kRmqHzLS4UkpAqQCADNsL2GEE0U+IVC1Gy7DtZHqmCEpQwo/3q0IhqZB5rObmkxN95xgNi7lDMHiqXB86rj7EjPnOlZid+bfkdslZ+sPsE0AciTuyGfKu5cl19Yx/HLVLRACuNsTXlhWwLAsr7u+IXgeda9/9szF1EQAsxNRwX12r5qET7Zh5od58ysfagbXzsPIEjs5xZG7oGcwAJXlfhPcdff4pEr58RXwPm/dGT4dxbz8yyL7pi47RhRUT5qETQOfcsdG9Pej9d0hS5zvY66l6xsTbdSw/gvMLJ2jaZs1EMwCapOmcu/K4js55JOb+BXdEAAAgAElEQVRKLOYYhjlalLb6t92E6NI1YgqOU2esVwrFnRZy9L/DcXJwvXq4bh2sq+9Hn6J1nczURkhtamLteQCzl3dFzpeEbXuQMtDpnW4dYD+FFZYF23b0cbx6OG5N9P+A6vdso36PHDK1EDRebehSCaUjeFrI6WifbaXFaJgGmjBX0UIwrqfTjdahJGy3FonefUpBySAUghaYJCzmDsFgYq5r+VjMw2r0KgXV1Q4smppIK+x8oQXfUwq9HW3Aou9E4klHtNqxOdyuc+7YaLvD7VOvMxUL0YbVu2/DkczRT/lYO4Ct6O4BgD48sr4ToJn2LSswdm4n2rsUlNqM9rXzMDYlIBfubME6pbDZGMQ1f2odNi8DgHZsVuswd3wful8AsGxmfE4XzkQ7gK3dx/cs/qHwKxyZG2ryf0SaJd3DqktPTHz+/j4Afej4kp642KwU1MeARCxrywpMfSG8h3evRhsWYuryLgBTcNvu1WgD0NbRqyNsR3D/ZdOMmbPagLXd6AYAdOGRRYjuv0M9YwAAa9cB8+Pz05G2jPPr6UYn2jD74uZo0+Tz5PjE9TgyxzDMkdHbmxzjCD+s+zJqvASlNhomKCIow4LSKYxRHzUAWIwn/AFIGcT/F67+If4AVZXaSH3bLCcHy35GT8gpakFgaUHk5AApIYMiHLcWNqU7AsCSRyGCcpj5sRntWIipyzZBySARPTNbEND50wnrtE3AdnVNnO4FVw772NXE65FwNcQo1cTpY3kAwtYMoZBLtyCg+rm0eyajYTF3CEqZaZZ68BTNWF94G5RSuO1CY5UPtKAZQHNLK4DOcPCTHHQlBc/h99k5dyymLgLauzJSKBdNTdbW0Kz9hTPRjk6s29QH9DyCdWvjY3T9fCEQRdP0rDte6E5EB9omtQAAWia1YfBBXDe612YtBzp3dmf/4TiGTBMqPkfmhpo/pjVBfC/egNVzgM71j6CP7qGOGxL3cMSFt0E9OBfdyy1YYaRrMA5//3Vi3oRkzRyJsuaLZ6MNC/HIFgBbHsFCUIrzoZ4xRCtaxgMY34JWDH6P9nVvHeTMO49vMefq+5fFHMMwh6O3tzf6WYS95MzUQCWre7FR3VpSsKi4n7dNEbEp+NqTS4CH5mPVr8IUSiMzxHY8XP3g67Dt19Fx9VQ9sbh4GpxrH0SvEnjlwbn6f4fjwKv5DB7YS4YrgRZzMJtvt2DiVQB+/Xv8IUyNjCKFbg5e7l+wJRJRYYaYbcP16nHN2n36fJWCFI/jG14DXK8elm1jxZa45YLt1MRi0Ig2Rq0RRAVSibCtQlKwaUGskB8YJqVPQwCLuUOQGZnr6cZgwxyCRFDmdpHw0jdf587uI9onkVmLlq6Ze3BuMjVq/SPo2rTOmGkPo2lYiKnhg2HqIhiz/ZrWlub0kQZ/XVmkxOGJQK5GPxwrHJkbUijN9Z3sNUdpk1OxOZzpHHTNI7j/qmvmosmd8TMxew6w8OddSVF4qGcMMacFGU+nKrp3Di5Fj+eIu8c1cwzDvAkcpw6OZ/aSCyCCcsLJkWrJ0oKFerMBdqIFgRw3AW0Atu16FZQZcs5mgaCSxxNLgPV/dTM6eprxqTVPYBkALHkMwf1zMG7vOnx+biueqAwg8B9FOzZg3pc60CuDsAUBAKNuTb38C6x7CMAHTsc4JxdmmdyH3eV+iF33oA2LwywTyhBbgk1+HntXz0LnvJvQ0QNI8TI6rr0Ei+b8CL1hZtrCKbOwejfV0iUNTywj2iilDykDfa3spJDTDct9OG4NduzY+Va8VcclLOYOQaab5WFmtAcl3K5KeN0+5cj2uWyzTts8ylo0Xb+2Dt8xUyzRjJYPAKB0sejryNI3M19XFmGE8kSiJqdnmbhmbmghMf3HpFoORvZ9SmnMq9F7WKOSP/b+C1MtF30H3zFTnA/1jDlKdDQ+myOa5BmmUJqllGqIz4RhmOFAY6O2+DdTEMncRLcboEbbflUfOFqupAhH446xLEgYqADNmPugxNfG3os5uUZctCQ+lhR+mKwZ1rpNmIc1lZsxcc1cuN6MsBxAhvV0Sq+76MNR1of9nk9jPRZj8+KL9U4vvA3B6ll46ZtNcCZen8gy0a10l+Bi71+wa24nlFqHa8dWoHo2YsM6oG3WR9EM4JQPX4lZ2ICX9nqplgtxKmXkeikqVddFv7bQNMXoyaddM/n5nIbF3CCUSsVB3CzDlKhFj2gjgCNuR5DajkxGthzZPtsmtaD5U7egHUfpFBmmWnauNc0MqP4lTNU6Wov1BC1omYPMKFxmhPI4pyaMzPnsZjmkUJprVmQukTYcpk6miYw+tqzEPLp3wohYfA8/YtTMhQItjK713f8dHMq78o+9/3Sqpb6vdYolcOhnzNGRTBE3adNpmscpFJljGIY5HP35PN47eXJyoQpbEBgmKGQUkugDByRdH62MZYkoVReWWzbclvWY/bLQk/sAlKzoejUAsDxYlg355FJ4uQaM//er0at6cd8cADLQDpVOTou5ZZshZYCgkkfgv4j75izFVOsqdPQAe+67Em6uARfZySwTKX1ceN3dmAUAWBRmlixDl/Rh7X05NtGyLDjv+QzWA9j20uvRK0hE4Cwn6ptn2V5KuGabpigl0dDATpZZsJgbhEO1JZhyey9WzwlTpCbMQ+eyzVj3qcPPVie2m7IQbR29UerUke1zCm7rynCKTNfMJQZw4QAvZWaAC28Lw+BhOtYRRRTCPYYD0amWhRVbkoNYANEg93iewR+MXBiZE0IM8Zmc2FBkNCsypydFwpq0L3WjdU719m0dLXgkvE8R3YvNmPtgWChuWbB+jkQq5ZT5oemJZWHsXKDNnOQIhWDn3LG6pvWw9191zVzC8ZKEpeEiCxz6GXNI0uc3vgVtSKZU6pTO1uNazLks5hiGOUK279iJxsbGxLKo0bXZ802EbpRmPZ2qdn0EJJQox8t6utEJPZYSm/8LiwAs39yJeRPsaH0rbEFgAYBlQwZlbP75EgDLsfnBuWimejwLsB2vqpecAmDZ4/GRWW3hub6ERzb8GJhzX/J/khKQQRnWafPQqRSU6sV9VwHAYlz0jWdhnzZJm2it7oFfGUDgF6CUjMaxZNhiOzpSp81SfNhwqtotaEfMclgbGNb6iQqgFM488/1gN8sMFJPJX866St361duG+jSGB7tXqza0qdW79a+9HW0Kc1ar3qE9qyHhscc3qfOnXKy+dMutQ30qJzS3L16qzp9ysdqx8/dHt+Hu1aoNUG0dJ+KnN8nmZVBYtjn8rVetnnP8X5disaTOn3KxevbZbUN9KgzDHON8/wd3q+//4O7o98AvKN8fSKwT+EXlV/JKSRktk1KowB9QQaUQLX9yKRSwWD1RKSilpKJnLuasVntEWfndK43/TZvVckABV6of7SoqKTapdkBh6ePKLx9Ue1fPUgjHZOLJJQqAwlX3hmOyzXrdJY8pv5JXUvjxsbBUbaocDM+lXW1W4XgOUFj8SyWCl6Nz2isDFXSvUrOic+pV982BwlWrVI8/kDwHUVF+Ja8Cv0hXQAWVARX4A4nrEv0tKIbnFugloqL8ykH1V5+Zr559dutb9fYdV3BkbhCKxRLq6zmce0SMn4tblnVi3qouAF1YObcT7V+ae8LVywFATU1N+L32MGsybydUMzdyxIghPpPhy5T5q9FGrVW2rMS8te245QgyEIYznseROYZhjoyxzc14+D9+BiBu3u0a0TcpKpm2/jJ0Z7Td2OFRu1kuxUW5+tCCX7er2vvA1ThF+LBP+zRuWUZpjFOx9aorAWzArj0uLPsizFgKYPE0eDX/H3bN/XKUfeJ8eBtmXQXgoZej7CndmmA6vFxjGK0bi3lrZ+HeF2/GVKcWUz9rZpkozJoN4De78YozAXMf3Izla+dhnO3CbZmP9XPuw/c+1Qzg3bj2/o1Y9tB8jPcaMG7eeu2+fqqCFD6AuKeeDMjhsjbZ7gAUgQtr/2wnqpt77vn/h729vWhtPeetfhuPCyylFFcSZjBtxkfxiU9cjltv+dJQnwozjHju+V/jb//u73H5xy/D4tu/PtSnc8LypVu+gic3d2HTo79ALpc7/AYMEzL1ohn41zvvQGvr2UN9KgzDHMP05/P46KWX4967/zfOOGM8HLchSmNUKoDwS3C82si8A9BCRkaNskPDE1HWtWRu0uVSKaGbfTteVGunZACpgjCt0glrzSQCvwDb9iKr/6gezbD/j5aLMiwnZ9SpKQSVAdhOLpnyqBSCoBCmiNZG6wq/CGUhdOWMWy5IJeDYSSMTERTDJuC6PYNuQRBUraf3UYFSIqqT03VzRViWg79f8BWMbX43Fi3kcVUWHJkbhHKlgro6jswxR0d9vbYmrq2tOcyazNtJpVKB6zos5Jijhu5hhmGYQ9HU2IhpF38Yy7/xbRSKIq5HUwrCL4VRL9PJUQsZ2/ZiIScrUIYpCEFCxrbcWMgpASkDHVqLhBwQ+GS4UmOsV0Gyl1zsDmmFveQI4RdgJWr3NIHQyx2jCboMylBQcJxcLORCR06z2Xi0rtEEXIZ999LrARTZFOF5hA6gQRGWZeFn/7kRW7duQ+s5HJUbDBZzh6CexRxzlFBqLqVbMkODZVkYwSmWzJuAxRzDMEfKottvA2Dh81/4h8g9WQQF2Ia4AqiBeAWOUxO7M4amIFbKlj+OSLk6FRO62bcUFcACLNsUcgPaPZIMV5SK+tbp41vGPktVkToRFAHLTvTIo9dgwUqYtkjp66iaU5NoFaAi903PWLdirOtEAtM8d3O/UAqwrFC4WhBBEQoKP/vPR7F8xTdxxeWX4RNXfPxo354TBhZzh6CWxRxzlESRORZzQ0pNTQ2LOeZNwWKOYZgjpamxEf/2v76Lvb178bnP34QD+18L6+HiaFYcEYtFW9SLrsqWP2xtkIiIKSil+6tZRkROBEVYABw3fmaZ9Ximc6UWchYcU8iFdX6mYNP7LQFKJd03IzfKmrixuaxAiEpVVE+v64dNwN2wXUMJFuyEkKR1ldQ1dbad073nhI5WaiH3LbSeczanVx4GFnOHoK6OTSyYo4MGgiwkhpaamho2P2HeFGx8xTDM0dDU2Ih/+96dUEqg7epP4z9/sSn+Y9R3zjMEj4pqwdLiJghTC52UkQqUSkS/tGgTiYiarjmTYQpknLKZZTgiZQVK+AnDFr1uCYj2S1G9sHm3ITypWTkA2LYRgVQiEqkk+oQow0IyUgjEApHSQS3LhpICBw/sw933rkH7N/4RkydNwj9++xtH9D6cyLB11yGoq+V/6szRQRG5d73rpCE+kxOb2lqOzDFvDo/rLBmGOUreO3ky7rv3Htz/wBr8yx134oE1D+Hmm/4eZ33gvbBsNxkRoyiZmwwYxJG2lCOmkomG41JWIEUlKbgocubWJOvWREkbk7iGWYkMIIMybLcOsOKYjvALUJBw3QYk0zOTTdCpR50FS0cgrcHXlVKbmpjH1+cb1vVZlo72WTYAhY2PPoI7//X76M/ncfNNX8C112Q0gmWq4MjcIIwaNYojc8yb5l0nvWuoT+GEpqamlsUc86Yol8pDfQoMwwxTPnXtNbjvh6vQ2NiAv/v7m/CFBV/Bk5t/Ff09iqg5dTCjVCIoGimPFD3zoWQQuTvqZYF2uDScL6PImeNV163JALbtGpE6CRmUtHOlKfokRfVqUm0UwobnTsoERclUKqeO6pnrKhlABpUMcxcBKUoArMgRs7e3D1/+ylfxtYXLMW3axdjQuZaF3FHAkblBGDVqJLtZMm8ajswNLbW1NajhCAvzJiiXS0N9CgzDDGPGjm3Gv33vTmzdug13rVyFL3/l62hqbMTll/85Pn7pDJz5vj9LCqaAetRlRNrM9EwlIIMiHKc2Fm1Uj2bZKcMVEdW4JZ0ri1XmLGakLt1WQCnA9QwhJ8MWBE6yjUJkxEJRRaUghE4vTUQKpQ8lKoBl45VX9uOxJ57Eww//DHv37sW0i6dgw7oHMXbs8d3P9O2A+8wNwt9+7gsAgMAPEAQBgsBHEATwA/o9iP5Gy6SUQ3zWxz+O48DzPLiuC89z9XfXg+u58FwXrufp764L23YOv8O3ga3btmHjL/4PGykMId+/ayW2PffroT6NY5JSqYSent2YNGnyUJ/KMcmrr76Kr3/1Vu4zxzDMW0Jvbx/uWnk3HntsE/IDA3jv5Mm44oqPo/WcD2JSywRIFejURsuoUQuKsO1k37fAH4BtO7r2LYRcH10joqfTHZN95wCdRgkgUWenZKCP5dYmRZ8o65YJYX84va4PIcpayKVFX5SeScsKQMoNUymJ3/72N3juuRew7fnf4LHHN2HypEm4Zs6VuPyyj8Dx4u2Zo4PF3CC82L0L+9/YP9SnwQxTeCA49Dzzq2fjiZdAIAgCCBFULUt+CQQivexw26QmeQ6zLjM4tm2nJmvCyRlv8EmbqvVTkzz65+Q20f6MSSFzX+d+qHWoLwXDMMcZ/fk8HlizFj99+Gfo6+sDADQ2NmDGtGlobT0HreecjebmUwYXYlXGKNRsPBZcUaNvO5kaqR0qZaoFgUDgF6uPFZSglJ9qgi50VM/NRbV7ACBEEUpKuEb9nhAlKBmgWAZ27NiJrVu34dmt27B9xw7k8wMAoFsNXP5xnH3W+6rELHP0sJhjGIZ5B1FKQUqpvysFRT9LBaWSP+u/D/6zDNePfpYq3K8Ml4X7NH5+9tmtWLlyJe68839CSv34t20blmXBtixYtp36bukUnvBn27Lj74Mss8Nt9DJjX5Yd/s2Kjmkus/ifOcMwJwDbd+zAT37y73j8iS3o6/tDtHzypNPR2no2xo0bj/dOnoTWc87WveCUSjpXSh8yKMHxGhJ1a1kRMS36fLhebGwCAIGfD1Mua6v2a5v98KJIXzJSqEWbgOvVY+u259Hb24e9e3vw7Nbn0PeHV9Db2xet29jQgGnTpuJDredi+vSL0dTYCBmUWMi9RbCYYxiGOYF49NFHsWTJEjz66KNDfSoMwzAnPNt37MBPH/4ZHnt8U0LYEZMnnY5x407V4q71HDTU1+GMlnE6IleV7qjC2jtNJPrcBlh20rkyHenLTLkMI32FQgk7X9yNfD6P7dt3YO/ePdjb21cl2kyam5sxfdpF+FDrOZg+7eKMNag0ib0Y/1hYzDEMw5xAsJhjGIY5NunP5+O0xO3bo9rvpsZG9OfziXWbGhsx+b2T0dTYiEmTJgJK4dxzzwNF387+4J9BBkXYbl3CuVIEBUAla+e2bt0KIUrY+eLLGMgX0Z/PY/uOneg/eAA7dr6YOKYWDQpNTU3I9+fRn8+jubkZ7508CZMnn4FzW1uj82LeGVjMMQzDnECwmGMYhhkeSBnguede0MIqFHpKKWx77vmj3ldr6zmAEoACYDvo7e0dNKqWxeRJk9DU1IixY5sxtrkZTU1NWsCxcBtyuDUBwzAMwzAMwxxj2LarzVFaz9ELbpgf/a0/n8eO7TsglYAFoLfvVfSGxipKarMtMw0TUkAqgfPOPd84gkJPz0sYN+7UhJsloE1Pxo0bz60ChgEs5hiGYRiGYRhmGNHU2BiLvCNFqYTZiFISZ3/wTxNulszwg8UcwzAMwzAMwxzvpFwjLcuGxUJu2MMWMgzDMAzDMAzDMMMQFnMMwzAMwzAMwzDDEBZzDMMwDMMwDMMwwxAWcwzDMAzDMAzDMMMQFnMMwzAMwzAMwzDDEBZzDMMwDMMwDMMwwxAWcwzDMAzDMAzDMMMQFnMMwzAMwzAMwzDDEBZzDMMwDMMwDMMwwxAWcwzDMAzDMAzDMMMQFnMMwzAMwzAMwzDDEBZzDMMwDMMwDMMwwxAWcwzDMAzDMAzDMMMQFnMMwzAMwzAMwzDDEBZzDMMwDMMwDMMwwxAWcwzDMAzDMAzDMMMQFnMMwzAMwzAMwzDDEBZzDMMwDMMwDMMwwxAWcwzDMAzDMAzDMMMQFnMMwzAMwzAMwzDDEBZzDMMwDMMwDMMwwxAWcwzDMAzDMAzDMMMQFnMMwzAMwzAMwzDDEBZzDMMwDMMwDMMwwxAWcwzDMAzDMAzDMMMQFnMMwzAMwzAMwzDDEBZzDMMwDMMwDMMwwxAWcwzDMAzDMAzDMMMQFnMMwzAMwzAMwzDDEBZzDMMwDMMwDMMwwxAWcwzDMAzDMAzDMMMQFnMMwzAMwzAMwzDDEBZzDMMwDMMwDMMwwxAWcwzDMAzDMAzDMMMQFnMMwzAMwzAMwzDDEBZzDMMwDMMwDMMwwxAWcwzDMAzDMAzDMMMQFnMMwzAMwzAMwzDDEBZzDMMwDMMwDMMwwxAWcwzDMAzDMAzDMMMQFnMMwzAMwzAMwzDDEBZzDMMwDMMwDMMwwxAWcwzDMAzDMAzDMMMQFnMMwzAMwzAMwzDDEBZzDMMwxzltbW2YNWsWnnvuucTyDRs24JJLLqlazjAMwzDM8MAd6hNgGIZh3l7OOussLF26FBs2bMBVV12F1157DZdccgm2bduGAwcOYNSoUUN9igzDMAzDvAkspZQa6pNgGIZh3l4mTpyIJUuWYNWqVXjmmWfwjW98A7t27cKuXbuwYcOGoT49hmEYhmHeBCzmGIZhTgDuuecefPe730VLSwvmz5+PU089FTNmzMCuXbs4MscwDMMwwxSumWMYhjkBuP7669Hb24vTTz8dV1xxBRYsWIAFCxawkGMYhmGYYQyLOYZhmBOEW2+9Fdu3b8c999yDXbt2YcGCBUN9SgzDMAzD/BFwmiXDMMwJwv79+zFx4kS0tLTgpptuwvXXXz/Up8QwDMMwzB8Bu1kyDMOkUEpBCDHIl0z+LrP/puSxOU/2mc9ch4ceeginnz4JW7e+xS0JLMC2bTi2Ddv8clK/R+s4VcvN9dP7sSzrrT1fhmEYhhnmcGSOYZjjjq1PPY2ntz2HShCgXC6jUqmE332Uy2WUK2WUyxVUyuXw9wrKZb1OuVyGEGKoXwKTgW3bcF03/HL0d4d+9uJlrgsnWs+F68TLXcuCW5OLtnWMbWhfH2ptRWvr2UP9chmGYRjmsHBkjmGY446tv34BjuNgRF0d3DFj4LkuXN+H19gAr6YWnufBc114UsCzbXgjR8aDf8eBWyjAHTMmHug7LtxyCa5lwxk9Gq7rwHEcwPeBfB4YPTo+uFLAwYOA6wINDfHygQG9/siRAEWYfB/o79fr1dQk1xUCGDEiXlYqAYWC3t5x4uUHDwK2DTQ2xsuKRaBc1tvbdnysfF6v53nxuvk8IGXyWHRe5rGCQC+rqQHq66tfl2mkohTkG29Aeh5ErgZSCkgpIfv7IX0forERUki9zK9AHDgIWVsD6brRctF/EFJBL6dlpRJkpQJZW6u3pa+D/RCODel68bGKRcgggKypgZBS76NShiyVIXMeJKx4+2IRUilI18WWp5/BySefzGKOYRiGGRawmGMY5vjDttHb24dFC7+mf+/v1yLLFCz9/VrENDXFggfQ4kYpvZwoFgELWtzQukrpdevqksfu79frZAm5ESNiIUfiqK4uKeQqFS3ERo6Ml5XL+hyampJCLp/X300hR+uaQq5S0ctqapJCrlDQ52FeFyHi15UWcrW1yddLr8u8VgBw8CDsXA52Y2P8T6ZQ0NufckryGh44oMVwWiC+66TkNfB9LVybmoBcLnGsKjFbKOjXbArnclnvN0s4B0F0rP/8r1/g5V27gDfeSIp0hmEYhjkGYTdLhmGOS3p7+/QPNFg3BUehoEVLQ0NSyJXLWjSYwsL39fL0uv39WhjV1sbLsoQgCQtTNAqRLY6CQJ9vfX0spCoVvY+GhqQQKxb1+qZo9P1YsLhu/JrKZf27+bpKJf3V2Bifl5T6NeRy8XkdTsiNGJEUmP39WkCZ4qpU0udgHgvQQi59XsVifL0IEs719UkhlyVmzagkCTnzGppCrlzWfzO2339gP17e9VLynBiGYRjmGIXFHMMwxy8U5WpqSg7sSbC5RnJCEGghkI5IDQxoAWCKiIEBLTBMIZXPV4tGEhZmRI2EnOclBYOUer+5XCwQSZylRUyppPfd0BDvl4SYGekrlfQ5WVZSdPq+3r6xMb4GSuljWVZ8XnSuNTVJIZclUGk5RTvN94CElHm9KYKZjirS9UoLZ1Ng0rHS15uuiyka6T2srU0KOVqeuoYHDhzE7r29yXUZhmEY5hiF0ywZhjlOUdEg3lcKd3yv47Bb3PyZv4BLokcIvb3rJkUERY7MyE+pFEepSESY0SgSMSS4HCcpYpTS4uT/b+/uYuQ66zuO/87bzJl9ieNAyhpC6ULUoiJaMGqxKWlU01ZKRSO8G4NiN6hgKEVUqlS4qbykreJVL5Ki3nBRlYS3xlZjsQFuSl9kLijakFYGFG6qFgwkwa6Axmt7d2bOnJdePOfZ85yzs8axnHjP5PuRRjNz5syZM2cte3/+P8//8bx6RawZzqQqHDXnvjUDz2BQvdbtbg2ovV49INpqpQ2+eT5+jty4gOpubw4lHVdRW183x28OoxwMTOhyQ5+tvrnB2V5bN6SPRluvi/38Zhh1h7g2hmxO9Xr64bPPKklG6nSc6wsAwA5EmAMwcYo8l9LM/KI+NSWNRtrzipfpd+98y7bv+afTT1ahKc+rcOUGmTStAocNMrbK5VZ4bIVpaqoKFnaooOfVg4lkjpllZn/frzcbaVbUxlXqmvP0+v0q5IRhdQ52Ppxb/bP722GnQVAFue2GZs7O1gOXnZM3M7O1Atnr1T9rY6MKvu513djYOmzVVt/GzR90K332ernXxQ3j7ncYF5ylzSGfvameNvp9Pf3003rd614rAAB2MoZZApg4ozRVEAZbQlO3E217k2QCUZ6bsJDnVbiSqqqaW+Vx577ZEGHDhrtNqubTNefe2SpTHJswsxm4vqnl6Wl5nifv3Sd03naj/MmXtNjrme0PrFbdKO1ww8HABBXfN5/nBtTLl7eEm9W/8ORN/bVWbQsudNwAABSJSURBVHOUJ5a1+Jnvbp33ZgNbc7jkuOpbnpvGJOOGZzaHUdrQ1QxXw6H5LtPTW6tvzdB2+XI9CNohq81hnPbnINW7bzrz/KZ65tqsrV0UAAA7HWEOwMQZDIfqOb/E58lIRV4oSUbb3oq8UJ7nJkAkSX1Ona2quUHIbnMDS5KY93c69aGRdgijO9xRqhqudLvm5gaTaSfYnDql0/9dzt376bNa2Xx/WeWy33U4NPdhWB3Xas6HK/ff/9E1FRt/rv3drvTMCS3uXzKvNTtc2nlnbkB1w6wbpMbNCez3t3bktMHZ982+NrTZz3Mrm7Yq6c59s6EtDKswa+f+FcXWIGeXfHDn2TW29aYa3UkBANjBCHMAJs5gMFCvV819yzbWleWZ7rvvPi0sHNxy++AHP6Asz5UNynDV7Bw5ruFJc2ijG+SaQxPtMd0hhMNh1Zyk2zXHv3TJBB33c+45qAV9UWf/14Sj1X9dkg4taEGS8nRzaOT5zx+UF8fyej150QOm0ub7JqB5nhYf+0ct79olLwhMRW80kpJEqw/ukjf1N1rVqpZffUQrklaO/qLZR5Lyr2s5DOXdcou8qSktniy7hOY/0ol7QnlH/1bLfzgtz1vUiWdkwmhzaQY7PPOmm+pVvcHABLJud+s8OXeIqa3IuXMC7XBJaesyEDbI2XBoj9mc6zhmnt/U5pzDvgAA2OmYMwdg4gwHQ/V6vc0qUeb5yvNcd931e9u+pygXj9aum+rVJ7sEgNtsww6ZtNUr27zD97fOcRsM6hUmyYSKLDPHiGPzvosXtzZGkaT0Ddp78HEtfe3bOvZbnk7fLy189m7tPbWilY4Zbnj+Hxa05725Hv1BpsMv/4FOvPe1etvhX9K5xw5rbpBIkla+0tUni0JHTy5qz+EHdeLQZ3T4VV75r4AnDd6sY0/9nc688UPSiXP6wr1zkla1HLxdS8f+TcXxd0hPLMvbv0fLr8l07A2Xzdp7j39H808XKh4rr0uu+tBId45bc2mFJBk/HFWqApqdkzhuCYPmz8V203TnNNrrnST1Ia42fDeWZijS1Dx2f44AAOxQhDkAE2cwHGr37t0mIEWRMnnKs1x33HGnpEImhdTv/+Op7yoLgvov8W7DDxsO+n0TMOycK7ukgR3C2Bwq2Ols7RppdTompFy6ZJ67w//SrHzwCzpwz0HpyFe1+v55nZG0d27OvBSEUv4jnV55XLrn8zpw61DyX6nDHzuuI/uP6OGvLerYbhPm9Cu3a06SXvMmSffr7DOPSLfPlOMzygYk040A89WvaEnS8Xe+wzzfd1SPHlrSkQcf0dHP3mn+BTm0qAO3qRpK6oYjd6Fu9xrYqmSzEYtd3sFeWztPLwi2DA+tNWxpHtP9LDunz11jzjZccbtZlkM+Uxvm5FT1AADYoRhmCWDiDPp99XyvnHs2rSzLleW5+v2+NvqDsfd5Xigb16HRnTtnq0xu+34bznq9KsSMm2MnmRBYFOax75sgYRuYuBW5LJM2yqUFwq7mX/sWSWd0+lOntKIlHfjNuPqcwX/p7OOSfvnnNWeHbG5eiA1pyjxfuH3e7D8sw0qvXDKhkKQyBEXO9+/3df5735R0UPO3Oec1kiRPmmos12CXYXC7fNrA1FxaYTQy37/Z8MR2ALX7JUkV5NwmKHY4q6302X3DsB4O3Y6a9hzcLpexex0HUlFolOUCAKAtqMwBmDjJKFVQBjlJyrJMeZbp+8/8eJu6nJTnubKsrIa5HRptCLDdJN22/LbhSBTV53ytr5t7N6CVc9Q2W//HcVXlc9enswExL0Of50v7Dui4lrT0V5IO3q35uKwmjQZScLvmFyV953s6373DVN/yMpB0YqnTGNpojxvY7yBJZdfHC+V+qRnaOPf6X5Op4knak0kb5Tyy0JnjliVbG5vYRi5xXA9sdv6gnX/oVjHtwuKdThXOiqLeUdRdwsCtsrmVUcsG6iiqzsE2XJG2DtksCsn3ldo/AwAAtACVOQCTyZmfla1f1s2zU/LDUEEYyQ8jBWEo3/cV+IH8MNItN88qz/Lx66PZIOcOF7TBpBlY7Fyu5jpqw6EJQFlm3mNb77shyHZizHNpxjlm/hrNv8s8XDh0l+bsds+X/D068M67pZUv6/SznmlM8uD90sFHdPRO5xijsrlLp9FoxJMkZ1iiZLpkTk9Lv/HbOi5p6Z+/bkLUk5/TkS9Kxz/6B+YcMpkw584JtN0s3WYlUlnVG5nXe736d3YbniRJFZLd/WzIdSt6WWauYRDUP0uqGtTYQO1U32pVVBvkJCmOlaYjSdItcVcAAOx0VOYATLb1de25ZbfuveeuqhJkA0ez4Uiem8Wj3eUGbMByh+XZwNHt1udnJYkJHLt21atOg4EJO6OROa6tMLlrttnujHlebnfDzowO3H239MUva+/8nJR917zm+9JwqLn3Pq5z3UPa82pPRyTp4MM6t/K+KvRJJszFsRSVx924VC6s7uxz2wEtvks68sHXy/uXR3XuscM6lv27FLxd3l+aXY6vFjq2T9IwMWEujOvDFS9eNN/J7TBpg5Rkvr/bCMV2vywXd1eSmGvXrHba0GUrevaYnldfGF0yP9s8r68lNxyabVFUD+SbVcyO5PsalXPm5n7uVgEAsNN5RWH/SxIAJsOHP/KnesveN+kD977HhAM3XNnFsz2v3t0wy0wQ6XTqQeTixXqFxw7BbC5BYN/vVvRsQLPrvtnOlWtrWz9no1wzzq1y2apVUWzt2uj71f62enXp0tZ9x51vkph9Z2bq89ns/D1bVSwKE6LsGnk2BKWp+a5TU/U5avbz3aqkVFUbm+vvra9XVcwsq4ZLNpuY2EY0MzNVwLPdMJsVQNtExR26atfzc5vU2Ll7tqNoedx3/v5B+b6nL39pRQAA7HQMswQwmWxFzF1vzIar5lwsO7SyGbBsl0kb5Owi1c1hfe7QQjfc2E6MNsiFYdUYpbkOm63auRUm2yHSnV9mF/9O0/owRBuM3CDnLkJug5zd1gxyNhy5QWwwMPu74cp+Vze02s/P83pHTvcY7jw39/NmZuqLh4/rRtnvm89z5ypmmXneXJx9NDLn4C5B4IY2e+3snDx3jbuNDY3Skeb27BEAAG1AmAMwcbrdyPyy7nailKr5bG5LexvknIYpksaHE9vYxO2uuN1i33ZYYZpWQc5d0Nqy66g1h2xubFRhx+0QWRRVpaxZpXIrkG5HTXte9lzjuB6C7Pw9N8gNh1WHSLuvfX+zGuYGM3ehbjsctRlyBwOz3YYud7ikew3sd3DPdzSq5tTZSqe9XqNR/XrZuYpSFXzt3Dsb5Gx4Lqt/aZZpz57aAFUAAHYswhyAiXOT/cW9WSWzC0fbEGSHXDYrZTZIuVUuO9zQDQvS+M6Vds0z27UyDKtw5AYe2ybfNv+wbAhyhxXmedXAww0h7nIJvvNX+oUL9eGhUjW8tLlcwvp6Pfi67f+bQxil+rWyYdQNyFJVUWsGObtYt50TZ6tsvl8PmFI1/67Z8MTOqXPXmEuSemXTDtuU6sHXBuo4HnsN0zTV3BxhDgDQDjRAATBxdr3s5Tr30//TmTPfMhvSkTQYSnFXCu0wRjPkspCURpHSNNMoTZX2N5RubJhteaE0TZUOh2ab7yt1pxmPRlWVzA1oduHpKDIhxTbr6HTqgcdWjdwQs92+SVI18HCrinbeWHPfojDb3fXZmudaFOYc7PBG9/ODoF4lu9L7g6A+PHS77bajZRiaW55vrjnndbsKfF++vY1GCgJffm/KPA98BaNUviQ/7irodMz2ojD7drvy47jsUOrLTxL5kryu8zNPhlIyqg/lTG1wNZXRJBlp7hWvEAAAbUCYAzBxvvHkk7pwYU3ffuopXb50WZcuX1KaXv36YX989H2a2bVLMzPT6vViDdNUw+lpFXmmdDBUFEWKJEVRqGh2VlG3qyiKFHie1B+UVaZOvf19s/I0TKSsnPe2GY5UNUzpNrpkjlITRp2W/sFwqLDXUzg1pTAIFIShwtFIYVEo3H2zwjBSEAYK81zhMFG4e7fCbkdhGCoIQoXrlxV0Olurd1m2dd7Z5ctmGKcbGpvNYaSqI2hz/uFwWC0iHsf61MOf1t9/+rNX/TO5HqIoVBR1zM8vCs297yvqdBR1uoqiUJ7n6fs/+OGLel4AAFwrwhyAifPWt/66ut2u/uTDH5LW1lREkS7nuS6Vwe7Sj3+iy2sXdSlLdWl93QS+ixd16bnndLk/0BP/eUbJKNEoSZQMBkpGqZJ0pCQZmW2jkTpRpNnZGc3Mzmp2ZkazMzPqlK3tR0Wh0cisV6Y8N5UqNwTZeW9BUJ9jZhesvsK+RbmtKKt/he9X2/JceZoqk5SmmdIsVZamSpOR0jxXmmXKstS8lqbKslRZll/TNfY8T0HgKwhCBUFQ3XxPQRCYIOlu8zwFUaTAbvc97dv7ZkVTPXU6XXWiSFEnUkdSFEbqzM6YbVGkjucp8qTOzKyiOFanE5nXkpE6Uz1FMzNlQIsUpSNFksJdNyuKYxPaikLRcChvero+5PPiRXP9nXmR7zl8n/a++Vev6ZoAAPBiI8wBmDjr6+vyPM/8on7zzfIkzUqanZ2VtEe69VZTZfIb04Zt10TLzmlrttqXlPb7SiQT7pKRkiRRcuE5JVFnc9umIjcLfFt5ORSz01yYulC5irezbypluRR1tm73G3+FJ0OzPl1zezpyhpeWBn0p7snzZCp6trInKex2TUUvCM19limcmipDWhXexlpfr1fkJOm550z1rjkUM0m2zpNbWzM/m9p3zauOmJvnP6g6fTblef1na+f0uUFOMs879et64cKa+nauHQAAOxxhDsDEuby+rk7jl/Sa3bvHb3eDnGSqYWOCnCQzvLH5nle98nmd50QaF67GXW/P2xrkpK1BTjLBrBm8m8Gsub+r+XO1xvwZuXDhgjY2CHMAgHagmyWAibOxvqEkSW70aaClqMwBANqCMAdg4gRBUB/mCDwPhDkAQFsQ5gBMnDiOqczhmm0Q5gAALUGYAzBx4jhWMiLM4dpQmQMAtAVhDsDEieNYI4ZZ4hrRAAUA0BaEOQATJ467yvPiRp8GWiiOu1TmAACtQZgDMHHiK7WtB66g240JcwCA1iDMAZg4UXgdl9B8Ylme52n5iavbffWBRZ14pnp+/uSivHef0PnGY+xMcdylAQoAoDUIcwBwJfuOqSgKHdv3s3c9f3JRb7vf3bKqhw+vaOHgAc1JmrtjUQunjujhqwyGePHFVOYAAC1CmAPwkrL6gCfPW9byA548z6tX3Z45oUXP0+IDy1r0PFNFcytz9vWTJ7Rcvtd7YNW894ll7Tm8ImlFR15t9j9/8iEtaUGLd8yZfW47oMVD0tInqM7tVHHcVZ8GKACAliDMAXgJWpJ+p1BRnNOjh6Sl/ctadV5deWpenywKFY8d1tyYd688Lh0tCp07sSDd/5AZVrnvmHmuBT36tKnknf2fFenQog7cZt85pwMHF6RTZ3X2hf6KuCbdOGaYJQCgNQhzAF6CjuvAPkma0+E/Oy5pSaedoY92WOS23jhvhk3O75W0orPPjNvpvM4+td0BzmzzHtxocZdulgCA9iDMAcDztHD7/FXsdVZnT2332nYBEDdaN+4qTVmjEADQDoQ5AHhBzGv+0HavLWj+tu1ew40Ud7uampq60acBAMBVIcwBeAla0kMnz0s6rxOfWFI17PJ6mtP8G7XN/Li9hLkdqtuNCXMAgNYgzAF4CTquRX1EnrdHR04t6NGnj2n/dTjq3B2LWii7WS6ePK/52xdUnx93XqcfX5EOzetqBmrixRd3u5omzAEAWuI6rqwLAO0xf+8XVNzb2HjbYX2hOFzftu+YiuJY+aTxeu21ce//mI4ffpsJc7dJdh7d8dXxXTJx43VjhlkCANqDyhyAieT73o0+BUn7dfTEwua6cudPPqSlQ4/q6HUf0onrhTlzAIA2oTIHYCJFnWjs9v0fL1R8/MU7jzm3AjiuGogdxfd9whwAoDWozAGYSJ2oc6NPAS01PU2YAwC0A2EOwETqbFOZA34WKnMAgLYgzAGYSFFEmMO1IcwBANqCMAdgIkUMs8Q1GAyG6vAfAQCAliDMAZhI/EKOa3FhbU1Rh/8IAAC0A2EOwETarpslcCVra2uamZ6+0acBAMBVIcwBmEjMmcO1uLC2ppmZmRt9GgAAXBXWmQMwkTpRpEc+8zkFQVDefOdxoMAP6s/LWxgECsLxr9X22e4WVq/7Pv9fdiVZlinPc2VZpizPlWeZsixXlmeNx+Y+y8p9ao/z+nFqj3Pl+RWO6X5uud/Fixc1M0NlDgDQDl5RFMWNPgkAuJ7OnPmWVp/4hvqDvvr9gfr9vgaDgTb6ffX7ffU3zL19nmXZC3Yuvu/L87zq3vPkNbf5njzPL1/z5Ht+7d68z2+8Zo7je+a9W7ZtvuZthso8L1QUufKiUHGFx3mRq3Af54WKonqcF2b/7R7n5f5FXh6z8TjPzfGfryAI1Ol01O101Ol2qsflLYoiE6IDvxHW/c0A79vn7uPNcO/LDwL90Qfef73/GAAA8IIgzAF4yRsOhybklcFv8zYYaFDe+v3y3m7rDxqv98e+niTJjf56WwRBoCiKFIahoig092GkMAoVhaHCKDL3V3ULas+jMCwrlOFmlTMMzLYwDBQEYXlv3ldVQ0NFUbQZzDZDWrd6HATBjb50AADsKIQ5AAAAAGghJnQAAAAAQAsR5gAAAACghQhzAAAAANBChDkAAAAAaCHCHAAAAAC0EGEOAAAAAFqIMAcAAAAALUSYAwAAAIAWIswBAAAAQAsR5gAAAACghQhzAAAAANBChDkAAAAAaCHCHAAAAAC0EGEOAAAAAFqIMAcAAAAALUSYAwAAAIAWIswBAAAAQAsR5gAAAACghQhzAAAAANBChDkAAAAAaCHCHAAAAAC0EGEOAAAAAFqIMAcAAAAALUSYAwAAAIAWIswBAAAAQAsR5gAAAACghQhzAAAAANBChDkAAAAAaKH/ByCZauqxvUBaAAAAAElFTkSuQmCC;" parent="1" vertex="1">
                    <mxGeometry x="610" y="30" width="1060" height="696.27" as="geometry"/>
                </mxCell>
                <mxCell id="50" value="MembersEntity" style="swimlane;fontStyle=0;childLayout=stackLayout;horizontal=1;startSize=30;horizontalStack=0;resizeParent=1;resizeParentMax=0;resizeLast=0;collapsible=1;marginBottom=0;" parent="1" vertex="1">
                    <mxGeometry x="310" y="100" width="260" height="300" as="geometry"/>
                </mxCell>
                <mxCell id="51" value="loadMemberInfo()" style="text;strokeColor=none;fillColor=none;align=left;verticalAlign=middle;spacingLeft=4;spacingRight=4;overflow=hidden;points=[[0,0.5],[1,0.5]];portConstraint=eastwest;rotatable=0;" parent="50" vertex="1">
                    <mxGeometry y="30" width="260" height="30" as="geometry"/>
                </mxCell>
                <mxCell id="52" value="addMemberInfo(MemberInfo)" style="text;strokeColor=none;fillColor=none;align=left;verticalAlign=middle;spacingLeft=4;spacingRight=4;overflow=hidden;points=[[0,0.5],[1,0.5]];portConstraint=eastwest;rotatable=0;" parent="50" vertex="1">
                    <mxGeometry y="60" width="260" height="30" as="geometry"/>
                </mxCell>
                <mxCell id="79" value="delMemberInfo(std::string name)" style="text;strokeColor=none;fillColor=none;align=left;verticalAlign=middle;spacingLeft=4;spacingRight=4;overflow=hidden;points=[[0,0.5],[1,0.5]];portConstraint=eastwest;rotatable=0;" vertex="1" parent="50">
                    <mxGeometry y="90" width="260" height="30" as="geometry"/>
                </mxCell>
                <mxCell id="80" value="delMemberInfo(int cardNum)" style="text;strokeColor=none;fillColor=none;align=left;verticalAlign=middle;spacingLeft=4;spacingRight=4;overflow=hidden;points=[[0,0.5],[1,0.5]];portConstraint=eastwest;rotatable=0;" vertex="1" parent="50">
                    <mxGeometry y="120" width="260" height="30" as="geometry"/>
                </mxCell>
                <mxCell id="53" value="printMemberInfo(int id)" style="text;strokeColor=none;fillColor=none;align=left;verticalAlign=middle;spacingLeft=4;spacingRight=4;overflow=hidden;points=[[0,0.5],[1,0.5]];portConstraint=eastwest;rotatable=0;" parent="50" vertex="1">
                    <mxGeometry y="150" width="260" height="30" as="geometry"/>
                </mxCell>
                <mxCell id="54" value="printMemberInfo(std::string name )&#10;" style="text;strokeColor=none;fillColor=none;align=left;verticalAlign=middle;spacingLeft=4;spacingRight=4;overflow=hidden;points=[[0,0.5],[1,0.5]];portConstraint=eastwest;rotatable=0;" parent="50" vertex="1">
                    <mxGeometry y="180" width="260" height="30" as="geometry"/>
                </mxCell>
                <mxCell id="77" value="printMemberInfo(int *cardNum)" style="text;strokeColor=none;fillColor=none;align=left;verticalAlign=middle;spacingLeft=4;spacingRight=4;overflow=hidden;points=[[0,0.5],[1,0.5]];portConstraint=eastwest;rotatable=0;" vertex="1" parent="50">
                    <mxGeometry y="210" width="260" height="30" as="geometry"/>
                </mxCell>
                <mxCell id="78" value="findMemberInfo(int *cardNum)" style="text;strokeColor=none;fillColor=none;align=left;verticalAlign=middle;spacingLeft=4;spacingRight=4;overflow=hidden;points=[[0,0.5],[1,0.5]];portConstraint=eastwest;rotatable=0;" vertex="1" parent="50">
                    <mxGeometry y="240" width="260" height="30" as="geometry"/>
                </mxCell>
                <mxCell id="61" value="findMemberInfo(std::string name)" style="text;strokeColor=none;fillColor=none;align=left;verticalAlign=middle;spacingLeft=4;spacingRight=4;overflow=hidden;points=[[0,0.5],[1,0.5]];portConstraint=eastwest;rotatable=0;" parent="50" vertex="1">
                    <mxGeometry y="270" width="260" height="30" as="geometry"/>
                </mxCell>
                <mxCell id="62" value="MembersInfo" style="swimlane;fontStyle=0;childLayout=stackLayout;horizontal=1;startSize=30;horizontalStack=0;resizeParent=1;resizeParentMax=0;resizeLast=0;collapsible=1;marginBottom=0;" parent="1" vertex="1">
                    <mxGeometry x="30" y="405" width="260" height="180" as="geometry"/>
                </mxCell>
                <mxCell id="63" value="id: int" style="text;strokeColor=none;fillColor=none;align=left;verticalAlign=middle;spacingLeft=4;spacingRight=4;overflow=hidden;points=[[0,0.5],[1,0.5]];portConstraint=eastwest;rotatable=0;" parent="62" vertex="1">
                    <mxGeometry y="30" width="260" height="30" as="geometry"/>
                </mxCell>
                <mxCell id="64" value="name[10} : char" style="text;strokeColor=none;fillColor=none;align=left;verticalAlign=middle;spacingLeft=4;spacingRight=4;overflow=hidden;points=[[0,0.5],[1,0.5]];portConstraint=eastwest;rotatable=0;" parent="62" vertex="1">
                    <mxGeometry y="60" width="260" height="30" as="geometry"/>
                </mxCell>
                <mxCell id="65" value="address[40] :char" style="text;strokeColor=none;fillColor=none;align=left;verticalAlign=middle;spacingLeft=4;spacingRight=4;overflow=hidden;points=[[0,0.5],[1,0.5]];portConstraint=eastwest;rotatable=0;" parent="62" vertex="1">
                    <mxGeometry y="90" width="260" height="30" as="geometry"/>
                </mxCell>
                <mxCell id="69" value="phoneNumber[15]: char" style="text;strokeColor=none;fillColor=none;align=left;verticalAlign=middle;spacingLeft=4;spacingRight=4;overflow=hidden;points=[[0,0.5],[1,0.5]];portConstraint=eastwest;rotatable=0;" parent="62" vertex="1">
                    <mxGeometry y="120" width="260" height="30" as="geometry"/>
                </mxCell>
                <mxCell id="66" value="cardNum[5]:int" style="text;strokeColor=none;fillColor=none;align=left;verticalAlign=middle;spacingLeft=4;spacingRight=4;overflow=hidden;points=[[0,0.5],[1,0.5]];portConstraint=eastwest;rotatable=0;" parent="62" vertex="1">
                    <mxGeometry y="150" width="260" height="30" as="geometry"/>
                </mxCell>
                <mxCell id="70" value="mfrc522" style="swimlane;fontStyle=0;childLayout=stackLayout;horizontal=1;startSize=30;horizontalStack=0;resizeParent=1;resizeParentMax=0;resizeLast=0;collapsible=1;marginBottom=0;" parent="1" vertex="1">
                    <mxGeometry x="130" y="130" width="140" height="90" as="geometry"/>
                </mxCell>
                <mxCell id="71" value="request()    " style="text;strokeColor=none;fillColor=none;align=left;verticalAlign=middle;spacingLeft=4;spacingRight=4;overflow=hidden;points=[[0,0.5],[1,0.5]];portConstraint=eastwest;rotatable=0;" parent="70" vertex="1">
                    <mxGeometry y="30" width="140" height="30" as="geometry"/>
                </mxCell>
                <mxCell id="72" value="grt_card_sreial()" style="text;strokeColor=none;fillColor=none;align=left;verticalAlign=middle;spacingLeft=4;spacingRight=4;overflow=hidden;points=[[0,0.5],[1,0.5]];portConstraint=eastwest;rotatable=0;" parent="70" vertex="1">
                    <mxGeometry y="60" width="140" height="30" as="geometry"/>
                </mxCell>
                <mxCell id="73" value="CardReader" style="swimlane;fontStyle=0;childLayout=stackLayout;horizontal=1;startSize=30;horizontalStack=0;resizeParent=1;resizeParentMax=0;resizeLast=0;collapsible=1;marginBottom=0;" vertex="1" parent="1">
                    <mxGeometry x="80" y="270" width="180" height="90" as="geometry"/>
                </mxCell>
                <mxCell id="74" value="isCard()" style="text;strokeColor=none;fillColor=none;align=left;verticalAlign=middle;spacingLeft=4;spacingRight=4;overflow=hidden;points=[[0,0.5],[1,0.5]];portConstraint=eastwest;rotatable=0;" vertex="1" parent="73">
                    <mxGeometry y="30" width="180" height="30" as="geometry"/>
                </mxCell>
                <mxCell id="75" value="getCardNumber()::DeviceData" style="text;strokeColor=none;fillColor=none;align=left;verticalAlign=middle;spacingLeft=4;spacingRight=4;overflow=hidden;points=[[0,0.5],[1,0.5]];portConstraint=eastwest;rotatable=0;" vertex="1" parent="73">
                    <mxGeometry y="60" width="180" height="30" as="geometry"/>
                </mxCell>
                <mxCell id="81" value="Button" style="swimlane;fontStyle=0;childLayout=stackLayout;horizontal=1;startSize=30;horizontalStack=0;resizeParent=1;resizeParentMax=0;resizeLast=0;collapsible=1;marginBottom=0;" vertex="1" parent="1">
                    <mxGeometry x="460" y="540" width="140" height="90" as="geometry"/>
                </mxCell>
                <mxCell id="82" value="request()" style="text;strokeColor=none;fillColor=none;align=left;verticalAlign=middle;spacingLeft=4;spacingRight=4;overflow=hidden;points=[[0,0.5],[1,0.5]];portConstraint=eastwest;rotatable=0;" vertex="1" parent="81">
                    <mxGeometry y="30" width="140" height="30" as="geometry"/>
                </mxCell>
                <mxCell id="83" value="get_card_serial()" style="text;strokeColor=none;fillColor=none;align=left;verticalAlign=middle;spacingLeft=4;spacingRight=4;overflow=hidden;points=[[0,0.5],[1,0.5]];portConstraint=eastwest;rotatable=0;" vertex="1" parent="81">
                    <mxGeometry y="60" width="140" height="30" as="geometry"/>
                </mxCell>
                <mxCell id="85" value="ManageButton" style="swimlane;fontStyle=0;childLayout=stackLayout;horizontal=1;startSize=30;horizontalStack=0;resizeParent=1;resizeParentMax=0;resizeLast=0;collapsible=1;marginBottom=0;" vertex="1" parent="1">
                    <mxGeometry x="310" y="440" width="170" height="90" as="geometry"/>
                </mxCell>
                <mxCell id="86" value="checkbutton() : bool" style="text;strokeColor=none;fillColor=none;align=left;verticalAlign=middle;spacingLeft=4;spacingRight=4;overflow=hidden;points=[[0,0.5],[1,0.5]];portConstraint=eastwest;rotatable=0;" vertex="1" parent="85">
                    <mxGeometry y="30" width="170" height="30" as="geometry"/>
                </mxCell>
                <mxCell id="87" value="getButtonData() : DeviceData" style="text;strokeColor=none;fillColor=none;align=left;verticalAlign=middle;spacingLeft=4;spacingRight=4;overflow=hidden;points=[[0,0.5],[1,0.5]];portConstraint=eastwest;rotatable=0;" vertex="1" parent="85">
                    <mxGeometry y="60" width="170" height="30" as="geometry"/>
                </mxCell>
                <mxCell id="88" value="Monitor" style="swimlane;fontStyle=0;childLayout=stackLayout;horizontal=1;startSize=30;horizontalStack=0;resizeParent=1;resizeParentMax=0;resizeLast=0;collapsible=1;marginBottom=0;" vertex="1" parent="1">
                    <mxGeometry x="414" y="690" width="140" height="60" as="geometry"/>
                </mxCell>
                <mxCell id="89" value="print()" style="text;strokeColor=none;fillColor=none;align=left;verticalAlign=middle;spacingLeft=4;spacingRight=4;overflow=hidden;points=[[0,0.5],[1,0.5]];portConstraint=eastwest;rotatable=0;" vertex="1" parent="88">
                    <mxGeometry y="30" width="140" height="30" as="geometry"/>
                </mxCell>
                <mxCell id="92" value="Controller" style="swimlane;fontStyle=0;childLayout=stackLayout;horizontal=1;startSize=30;horizontalStack=0;resizeParent=1;resizeParentMax=0;resizeLast=0;collapsible=1;marginBottom=0;" vertex="1" parent="1">
                    <mxGeometry x="190" y="650" width="140" height="60" as="geometry"/>
                </mxCell>
                <mxCell id="93" value="updateEvent()" style="text;strokeColor=none;fillColor=none;align=left;verticalAlign=middle;spacingLeft=4;spacingRight=4;overflow=hidden;points=[[0,0.5],[1,0.5]];portConstraint=eastwest;rotatable=0;" vertex="1" parent="92">
                    <mxGeometry y="30" width="140" height="30" as="geometry"/>
                </mxCell>
                <mxCell id="94" value="Listener" style="swimlane;fontStyle=0;childLayout=stackLayout;horizontal=1;startSize=30;horizontalStack=0;resizeParent=1;resizeParentMax=0;resizeLast=0;collapsible=1;marginBottom=0;" vertex="1" parent="1">
                    <mxGeometry x="280" y="570" width="140" height="60" as="geometry"/>
                </mxCell>
                <mxCell id="95" value="chaeckEvent()" style="text;strokeColor=none;fillColor=none;align=left;verticalAlign=middle;spacingLeft=4;spacingRight=4;overflow=hidden;points=[[0,0.5],[1,0.5]];portConstraint=eastwest;rotatable=0;" vertex="1" parent="94">
                    <mxGeometry y="30" width="140" height="30" as="geometry"/>
                </mxCell>
                <mxCell id="98" value="MembersManage&#10;Service" style="swimlane;fontStyle=0;childLayout=stackLayout;horizontal=1;startSize=30;horizontalStack=0;resizeParent=1;resizeParentMax=0;resizeLast=0;collapsible=1;marginBottom=0;" vertex="1" parent="1">
                    <mxGeometry x="190" y="750" width="210" height="90" as="geometry"/>
                </mxCell>
                <mxCell id="99" value="updateStateEvent(std::string)" style="text;strokeColor=none;fillColor=none;align=left;verticalAlign=middle;spacingLeft=4;spacingRight=4;overflow=hidden;points=[[0,0.5],[1,0.5]];portConstraint=eastwest;rotatable=0;" vertex="1" parent="98">
                    <mxGeometry y="30" width="210" height="30" as="geometry"/>
                </mxCell>
                <mxCell id="100" value="checkCardNumber(int *cardNum)" style="text;strokeColor=none;fillColor=none;align=left;verticalAlign=middle;spacingLeft=4;spacingRight=4;overflow=hidden;points=[[0,0.5],[1,0.5]];portConstraint=eastwest;rotatable=0;" vertex="1" parent="98">
                    <mxGeometry y="60" width="210" height="30" as="geometry"/>
                </mxCell>
                <mxCell id="102" value="DataBase&lt;br&gt;memberList.bin" style="shape=cylinder3;whiteSpace=wrap;html=1;boundedLbl=1;backgroundOutline=1;size=15;" vertex="1" parent="1">
                    <mxGeometry x="500" y="790" width="160" height="100" as="geometry"/>
                </mxCell>
            </root>
        </mxGraphModel>
    </diagram>
</mxfile>